<svg xmlns="http://www.w3.org/2000/svg" width="340" height="310" viewBox="0 0 89.958 82.021" xmlns:v="https://vecta.io/nano"><style><![CDATA[.L{fill:#e6e6e6}.M{font-style:italic}.N{font-weight:bold}.O{font-size:7.408px}.P{font-family:sans-serif}.Q{font-weight:400}]]></style><path d="M3.547 3.227h.672v38.637h-.672z" class="L"/><path d="M36.777 3.175h-.336v38.637h.336z" fill="#ececec"/><path d="M3.004 55.56h1.008v14.808H3.004zm70.155-.042h.672v14.6h-.672z" fill="#999"/><path d="M3.976 41.178h70.218v.736H3.976z" class="L"/><path d="M3.766 55.518h70.218v.455H3.766zm0 14.229h70.218v.455H3.766z" fill="#999"/><text xml:space="preserve" x="3.539" y="48.482" class="L M N O P"><tspan x="3.539" y="48.482" font-weight="normal">1-Apr</tspan></text><text xml:space="preserve" x="16.794" y="65.387" class="L M N O P"><tspan x="16.794" y="65.387" font-weight="normal">Load</tspan></text><text xml:space="preserve" x="31.082" y="48.596" class="L M N O P"><tspan x="31.082" y="48.596" font-weight="normal">15-Apr</tspan></text><text xml:space="preserve" x="61.15" y="48.478" class="L M N O P"><tspan x="61.15" y="48.478" font-weight="normal">30-Apr</tspan></text><path d="M6.588 62.854h7.055v1.008H6.588z" fill="#70a2ff"/><path d="M3.457 11.195l.275.157a1.92 1.92 0 0 1 .202.143 1.54 1.54 0 0 1 .173.166 2.43 2.43 0 0 1 .187.241c.128.185.281.442.505.867l.796 1.567c.184.368.328.792.438 1.277.105.465.176.977.222 1.537.081.992.077 2.055.067 3.247l-.003.304.099 3.711c.107 1.113.332 2.313.856 3.363a1.16 1.16 0 0 0 .212.301.93.93 0 0 0 .314.21.91.91 0 0 0 .357.065c.118-.001.223-.023.324-.054.192-.06.374-.165.539-.284a3.93 3.93 0 0 0 .476-.412 8.2 8.2 0 0 0 .827-.985l.316-.468.223-.388a3.45 3.45 0 0 0 .211-.567l.174-.714.316-1.826.702-4.42.474-2.057c.178-.621.374-1.155.593-1.565.108-.202.217-.366.325-.493s.208-.208.298-.257.168-.068.254-.067.2.024.345.096a.63.63 0 0 1 .14.099 1.2 1.2 0 0 1 .16.182c.112.154.223.362.33.629.212.532.385 1.24.529 2.084l.342 2.758.241 2.991.242 2.816.156 1.222.201 1.041a4.78 4.78 0 0 0 .276.835 2.17 2.17 0 0 0 .191.341 1.34 1.34 0 0 0 .265.288c.107.085.234.153.38.188a.94.94 0 0 0 .438-.002 1.24 1.24 0 0 0 .386-.17 2.07 2.07 0 0 0 .336-.277c.868-.868 1.777-1.863 2.575-2.968.786-1.087 1.475-2.296 1.914-3.612a8.79 8.79 0 0 0 .231-.889l.22-1.122.498-2.59.312-1.26c.113-.399.235-.766.368-1.087s.273-.587.416-.787a1.61 1.61 0 0 1 .207-.241.8.8 0 0 1 .183-.132.97.97 0 0 1 .263-.077 4.55 4.55 0 0 1 .399-.043l.482-.052a1.86 1.86 0 0 0 .535-.164l.117-.017a1.66 1.66 0 0 1 .342.002c.129.014.256.042.368.087a.79.79 0 0 1 .272.17 3.12 3.12 0 0 1 .64.957c.166.374.284.797.365 1.258.166.94.174 2.01.145 3.094l-.076 3.236c.011.516.045 1.01.121 1.467.077.463.199.897.39 1.28.08.161.137.341.181.539a8.45 8.45 0 0 1 .109.656l.122.731a3.26 3.26 0 0 0 .259.763c.66 1.32 1.415 2.304 2.096 3.08.76.866 1.843 1.904 2.366 2.426a.504.504 0 0 0 .713-.713l-2.321-2.378c-.643-.733-1.342-1.646-1.952-2.866a2.26 2.26 0 0 1-.177-.529 8.42 8.42 0 0 1-.108-.654l-.124-.735a3.33 3.33 0 0 0-.263-.77c-.133-.266-.231-.596-.297-.995-.065-.392-.098-.834-.108-1.323l.076-3.188c.029-1.093.025-2.25-.16-3.297a6.46 6.46 0 0 0-.436-1.491c-.207-.467-.481-.893-.849-1.261-.184-.184-.399-.31-.615-.395a2.44 2.44 0 0 0-.63-.151c-.198-.021-.389-.02-.554-.003a1.88 1.88 0 0 0-.235.039l-.111.031a.91.91 0 0 0-.116.048c-.055.028-.134.052-.249.071s-.242.029-.398.042l-.489.054a1.92 1.92 0 0 0-.544.169 1.79 1.79 0 0 0-.419.295 2.61 2.61 0 0 0-.34.392 4.97 4.97 0 0 0-.528.989 11.09 11.09 0 0 0-.406 1.197l-.327 1.32-.505 2.623-.213 1.092-.202.783c-.398 1.194-1.031 2.311-1.775 3.341-.756 1.046-1.625 2-2.471 2.846a1.08 1.08 0 0 1-.17.143c-.043.028-.067.035-.071.036s.013-.001.028.002.021.01.012.003-.033-.029-.063-.073-.065-.104-.102-.184c-.074-.162-.146-.381-.214-.657a11.21 11.21 0 0 1-.184-.954l-.15-1.176-.239-2.784-.242-3.009-.352-2.833c-.148-.872-.336-1.661-.586-2.289a3.89 3.89 0 0 0-.451-.849 2.17 2.17 0 0 0-.298-.335 1.64 1.64 0 0 0-.367-.254 1.79 1.79 0 0 0-.786-.203 1.51 1.51 0 0 0-.746.19 2.08 2.08 0 0 0-.582.488 3.77 3.77 0 0 0-.447.673c-.266.499-.486 1.108-.673 1.762-.191.667-.353 1.4-.495 2.146l-.708 4.457-.306 1.771-.155.638c-.053.182-.102.312-.145.398-.037.074-.096.178-.175.303l-.28.414a7.15 7.15 0 0 1-.721.861 3.07 3.07 0 0 1-.355.309c-.114.082-.197.123-.25.14-.025.008-.037.008-.037.008s.015.001.03.007.027.016.028.017-.011-.011-.026-.042c-.444-.888-.652-1.946-.755-3.009-.115-1.192-.104-2.52-.095-3.606l.003-.304-.07-3.338c-.048-.594-.125-1.154-.244-1.678-.124-.546-.292-1.05-.52-1.505l-.807-1.588-.567-.969a3.43 3.43 0 0 0-.265-.34 2.55 2.55 0 0 0-.285-.273 2.92 2.92 0 0 0-.307-.219l-.332-.19a.504.504 0 0 0-.476.888z" fill="#008cff"/><ellipse cx="18.932" cy="28.726" rx="5.544" ry="4.872" fill="#d2d2d2" fill-opacity=".544"/></svg>