<svg xmlns="http://www.w3.org/2000/svg" width="793.701" height="158.74" viewBox="0 0 210 42" xmlns:v="https://vecta.io/nano"><style><![CDATA[.B{stroke:none}.C{font-weight:bold}.D{font-family:Arial}.E{writing-mode:lr-tb}.F{direction:ltr}.G{stroke:#000}.H{fill:#007bff}.I{fill:#ff6029}.J{font-size:4.939px}.K{fill:context-stroke}.L{fill-rule:evenodd}.M{marker-start:url(#A)}]]></style><defs><marker id="A" refX="0" refY="0" orient="auto-start-reverse" markerWidth="3" markerHeight="3" viewBox="0 0 1 1" overflow="visible"><path transform="scale(.7)" d="M-.211-4.106L6.211-.894A1 1 0 0 1 6.764 0a1 1 0 0 1-.553.894L-.211 4.106c-.383.192-.838.171-1.203-.054S-2 3.428-2 3v-6c0-.428.222-.826.586-1.051s.819-.246 1.203-.054z" class="B K L"/></marker><marker id="B" refX="0" refY="0" orient="auto-start-reverse" markerWidth="3" markerHeight="3" viewBox="0 0 1 1" overflow="visible"><path transform="scale(.7)" d="M-.211-4.106L6.211-.894A1 1 0 0 1 6.764 0a1 1 0 0 1-.553.894L-.211 4.106c-.383.192-.838.171-1.203-.054S-2 3.428-2 3v-6c0-.428.222-.826.586-1.051s.819-.246 1.203-.054z" class="B K L"/></marker></defs><text xml:space="preserve" x="67.194" y="12.65" font-size="6.35" letter-spacing="0" fill="#000006" fill-opacity=".598" stroke="#010000" class="C D E F"><tspan x="67.194" y="12.65" class="B"><tspan fill-opacity=".63" class="H">tenant.api</tspan>.<tspan fill="#00b806" fill-opacity=".93">leadmgm</tspan>.<tspan fill-opacity=".75" stroke-width="0" class="G I">com</tspan></tspan></text><text xml:space="preserve" x="4.961" y="8.262" letter-spacing="0" fill-opacity=".63" class="C D E F G H J"><tspan x="4.961" y="8.262" class="B">3LD</tspan><tspan x="4.961" y="12.638" class="B">third level domain</tspan><tspan x="4.961" y="17.014" class="B">subdomain</tspan></text><text xml:space="preserve" x="93.171" y="29.069" letter-spacing="0" fill="#00b800" fill-opacity=".928" class="C D E F G J"><tspan x="93.171" y="29.069" class="B">2LD</tspan><tspan x="93.171" y="33.445" class="B">second level domain</tspan></text><text xml:space="preserve" x="165.052" y="7.81" letter-spacing="0" fill-opacity=".746" class="C D E F G I J"><tspan x="165.052" y="7.81" class="B">TLD</tspan><tspan x="165.052" y="12.186" class="B">top level domain</tspan><tspan x="165.052" y="16.562" class="B">subdomain</tspan></text><path transform="matrix(0 1 1 0 0 0)" d="M17.409 112.972h10.257v.39H17.409z" fill="#00b800" fill-opacity=".93" stroke="#00b800" stroke-width=".205" stroke-opacity=".93" class="M"/><path d="M147.424 11.21h15.162v-.291h-15.162z" fill-opacity=".75" stroke="#df6029" stroke-width=".215" stroke-opacity=".75" marker-start="url(#B)" class="I"/><path d="M62.256 11.245H49.412v-.33h12.844z" fill-opacity=".83" stroke="#007bff" stroke-width=".211" stroke-opacity=".83" class="H M"/></svg>