<?xml version="1.0" encoding="UTF-8" standalone="no"?>
<svg
   id="Слой_1"
   data-name="Слой 1"
   viewBox="0 0 64 64"
   version="1.1"
   sodipodi:docname="internet-gateway-icon.svg"
   width="64"
   height="64"
   inkscape:version="1.3.2 (091e20e, 2023-11-25)"
   xmlns:inkscape="http://www.inkscape.org/namespaces/inkscape"
   xmlns:sodipodi="http://sodipodi.sourceforge.net/DTD/sodipodi-0.dtd"
   xmlns="http://www.w3.org/2000/svg"
   xmlns:svg="http://www.w3.org/2000/svg">
  <sodipodi:namedview
     id="namedview10"
     pagecolor="#ffffff"
     bordercolor="#000000"
     borderopacity="0.25"
     inkscape:showpageshadow="2"
     inkscape:pageopacity="0.0"
     inkscape:pagecheckerboard="0"
     inkscape:deskcolor="#d1d1d1"
     inkscape:zoom="0.9771529"
     inkscape:cx="189.32554"
     inkscape:cy="248.68165"
     inkscape:window-width="1392"
     inkscape:window-height="1027"
     inkscape:window-x="1934"
     inkscape:window-y="25"
     inkscape:window-maximized="0"
     inkscape:current-layer="Слой_1" />
  <defs
     id="defs1">
    <style
       id="style1">.cls-1,.cls-2,.cls-3{fill:none;stroke:#000;stroke-miterlimit:10;}.cls-1,.cls-2{stroke-linecap:round;}.cls-1{stroke-width:16px;}.cls-2{stroke-width:4px;}.cls-3{stroke-width:25px;}</style>
  </defs>
  <path
     d="m 58.710306,42.28185 a 2.8426438,3.2620503 0 0 1 2.838253,3.25701 v 7.4608 a 2.8426438,3.2620503 0 0 1 -2.838253,3.25701 H 3.7159532 A 2.8426438,3.2620503 0 0 1 0.8776978,52.99966 v -7.4608 A 2.8426438,3.2620503 0 0 1 3.7159532,42.28185 H 58.710306 m 0,-1.00719 H 3.7159532 A 3.7170503,4.2654676 0 0 0 0,45.53886 v 7.4608 a 3.7170503,4.2654676 0 0 0 3.7159532,4.2642 H 58.710306 a 3.7170503,4.2654676 0 0 0 3.71595,-4.2642 v -7.4608 a 3.7170503,4.2654676 0 0 0 -3.71595,-4.2642 z"
     id="path1"
     style="stroke-width:1.17527;stroke-dasharray:none" />
  <line
     class="cls-1"
     x1="10.093525"
     y1="57.263847"
     x2="6.8021574"
     y2="63.684723"
     id="line1"
     style="stroke-width:0.441289;stroke-dasharray:none" />
  <line
     class="cls-1"
     x1="51.777588"
     y1="57.270172"
     x2="55.068958"
     y2="63.69104"
     id="line2"
     style="stroke-width:0.441289;stroke-dasharray:none" />
  <line
     class="cls-1"
     x1="46.644154"
     y1="41.274658"
     x2="56.282372"
     y2="3.0012817"
     id="line3"
     style="stroke-width:0.441289;stroke-dasharray:none" />
  <line
     class="cls-1"
     x1="14.905504"
     y1="41.336327"
     x2="5.2672844"
     y2="3.0629578"
     id="line4"
     style="stroke-width:0.441289;stroke-dasharray:none" />
  <path
     d="m 7.5394242,50.53203 c 0.8469785,0 0.8491727,-1.51079 0,-1.51079 -0.8491727,0 -0.8480752,1.51079 0,1.51079 z"
     id="path4"
     style="stroke-width:1.17527;stroke-dasharray:none" />
  <path
     d="m 10.228471,50.40361 c 0.848075,0 0.849173,-1.51079 0,-1.51079 -0.8491729,0 -0.8480758,1.51079 0,1.51079 z"
     id="path5"
     style="stroke-width:1.17527;stroke-dasharray:none" />
  <path
     d="m 12.805611,50.2752 c 0.846978,0 0.849173,-1.51079 0,-1.51079 -0.849173,0 -0.848076,1.51079 0,1.51079 z"
     id="path6"
     style="stroke-width:1.17527;stroke-dasharray:none" />
  <line
     class="cls-2"
     x1="34.888489"
     y1="46.058807"
     x2="56.282372"
     y2="46.058807"
     id="line6"
     style="stroke-width:0.110322;stroke-dasharray:none" />
  <line
     class="cls-2"
     x1="34.888489"
     y1="49.206299"
     x2="56.282372"
     y2="49.206299"
     id="line7"
     style="stroke-width:0.110322;stroke-dasharray:none" />
  <line
     class="cls-2"
     x1="34.888489"
     y1="52.35379"
     x2="56.282372"
     y2="52.35379"
     id="line8"
     style="stroke-width:0.110322;stroke-dasharray:none" />
  <ellipse
     cx="31.289928"
     cy="28.903809"
     id="circle8"
     style="stroke-width:1.17527;stroke-dasharray:none"
     rx="2.3324819"
     ry="2.6766186" />
  <path
     class="cls-3"
     d="m 25.528938,24.65595 c 0,0 2.443292,-3.14748 6.104389,-3.11349 3.661097,0.034 6.378669,3.58058 6.378669,3.58058"
     id="path8"
     style="stroke-width:0.689515;stroke-dasharray:none" />
  <path
     class="cls-3"
     d="m 21.380719,20.91296 c 0,0 4.865737,-5.74352 10.285522,-5.74352 5.419783,0 10.18678,5.66547 10.18678,5.66547"
     id="path9"
     style="stroke-width:0.689515;stroke-dasharray:none" />
  <path
     class="cls-3"
     d="m 17.578093,17.6421 c 0,0 5.823525,-8.09406 13.73268,-8.09406 8.346906,0 13.638327,7.93165 13.638327,7.93165"
     id="path10"
     style="stroke-width:0.587636;stroke-dasharray:none" />
</svg>
