<?xml version="1.0" encoding="UTF-8" standalone="no"?>
<!-- Created with Inkscape (http://www.inkscape.org/) -->

<svg
   width="210mm"
   height="297mm"
   viewBox="0 0 210 297"
   version="1.1"
   id="svg1"
   inkscape:version="1.3.2 (091e20e, 2023-11-25)"
   sodipodi:docname="schedule_scaling_actions.svg"
   xmlns:inkscape="http://www.inkscape.org/namespaces/inkscape"
   xmlns:sodipodi="http://sodipodi.sourceforge.net/DTD/sodipodi-0.dtd"
   xmlns="http://www.w3.org/2000/svg"
   xmlns:svg="http://www.w3.org/2000/svg">
  <sodipodi:namedview
     id="namedview1"
     pagecolor="#ffffff"
     bordercolor="#000000"
     borderopacity="0.25"
     inkscape:showpageshadow="2"
     inkscape:pageopacity="0.0"
     inkscape:pagecheckerboard="0"
     inkscape:deskcolor="#d1d1d1"
     inkscape:document-units="mm"
     inkscape:zoom="0.78751403"
     inkscape:cx="401.8976"
     inkscape:cy="363.16813"
     inkscape:window-width="1392"
     inkscape:window-height="1027"
     inkscape:window-x="1994"
     inkscape:window-y="25"
     inkscape:window-maximized="0"
     inkscape:current-layer="layer1" />
  <defs
     id="defs1">
    <inkscape:path-effect
       effect="powerstroke"
       id="path-effect42"
       is_visible="true"
       lpeversion="1.3"
       scale_width="1"
       interpolator_type="CentripetalCatmullRom"
       interpolator_beta="0.75"
       start_linecap_type="round"
       end_linecap_type="round"
       offset_points="1.1770314,0.16798642"
       linejoin_type="spiro"
       miter_limit="4"
       not_jump="true"
       sort_points="true"
       message="&lt;b&gt;Ctrl + click&lt;/b&gt; on existing node and move it" />
    <inkscape:path-effect
       effect="powerstroke"
       id="path-effect41"
       is_visible="true"
       lpeversion="1.3"
       scale_width="1"
       interpolator_type="CentripetalCatmullRom"
       interpolator_beta="0.75"
       start_linecap_type="round"
       end_linecap_type="round"
       offset_points="1.0344308,0.16798642"
       linejoin_type="spiro"
       miter_limit="4"
       not_jump="true"
       sort_points="true"
       message="&lt;b&gt;Ctrl + click&lt;/b&gt; on existing node and move it" />
    <inkscape:path-effect
       effect="powerstroke"
       id="path-effect40"
       is_visible="true"
       lpeversion="1.3"
       scale_width="1"
       interpolator_type="CentripetalCatmullRom"
       interpolator_beta="0.75"
       start_linecap_type="round"
       end_linecap_type="round"
       offset_points="0.70065087,0.16798642"
       linejoin_type="spiro"
       miter_limit="4"
       not_jump="true"
       sort_points="true"
       message="&lt;b&gt;Ctrl + click&lt;/b&gt; on existing node and move it" />
    <inkscape:path-effect
       effect="powerstroke"
       id="path-effect39"
       is_visible="true"
       lpeversion="1.3"
       scale_width="1"
       interpolator_type="CentripetalCatmullRom"
       interpolator_beta="0.75"
       start_linecap_type="round"
       end_linecap_type="round"
       offset_points="1.3256062,0.16798642"
       linejoin_type="spiro"
       miter_limit="4"
       not_jump="true"
       sort_points="true"
       message="&lt;b&gt;Ctrl + click&lt;/b&gt; on existing node and move it" />
    <inkscape:path-effect
       effect="powerstroke"
       id="path-effect38"
       is_visible="true"
       lpeversion="1.3"
       scale_width="1"
       interpolator_type="CentripetalCatmullRom"
       interpolator_beta="0.75"
       start_linecap_type="round"
       end_linecap_type="round"
       offset_points="1.1570286,0.16798642"
       linejoin_type="spiro"
       miter_limit="4"
       not_jump="true"
       sort_points="true"
       message="&lt;b&gt;Ctrl + click&lt;/b&gt; on existing node and move it" />
    <inkscape:path-effect
       effect="powerstroke"
       id="path-effect37"
       is_visible="true"
       lpeversion="1.3"
       scale_width="1"
       interpolator_type="CentripetalCatmullRom"
       interpolator_beta="0.75"
       start_linecap_type="round"
       end_linecap_type="round"
       offset_points="1.054654,0.16798642"
       linejoin_type="spiro"
       miter_limit="4"
       not_jump="true"
       sort_points="true"
       message="&lt;b&gt;Ctrl + click&lt;/b&gt; on existing node and move it" />
    <inkscape:path-effect
       effect="powerstroke"
       id="path-effect36"
       is_visible="true"
       lpeversion="1.3"
       scale_width="1"
       interpolator_type="CentripetalCatmullRom"
       interpolator_beta="0.75"
       start_linecap_type="round"
       end_linecap_type="round"
       offset_points="0.5,0.16798642"
       linejoin_type="spiro"
       miter_limit="4"
       not_jump="true"
       sort_points="true"
       message="&lt;b&gt;Ctrl + click&lt;/b&gt; on existing node and move it" />
    <inkscape:path-effect
       effect="powerstroke"
       id="path-effect35"
       is_visible="true"
       lpeversion="1.3"
       scale_width="1"
       interpolator_type="CentripetalCatmullRom"
       interpolator_beta="0.75"
       start_linecap_type="round"
       end_linecap_type="round"
       offset_points="0.50694202,0.16798642"
       linejoin_type="spiro"
       miter_limit="4"
       not_jump="true"
       sort_points="true"
       message="&lt;b&gt;Ctrl + click&lt;/b&gt; on existing node and move it" />
    <inkscape:path-effect
       effect="powerstroke"
       id="path-effect34"
       is_visible="true"
       lpeversion="1.3"
       scale_width="1"
       interpolator_type="CentripetalCatmullRom"
       interpolator_beta="0.75"
       start_linecap_type="round"
       end_linecap_type="round"
       offset_points="0.73596938,0.16798642"
       linejoin_type="spiro"
       miter_limit="4"
       not_jump="true"
       sort_points="true"
       message="&lt;b&gt;Ctrl + click&lt;/b&gt; on existing node and move it" />
    <inkscape:path-effect
       effect="powerstroke"
       id="path-effect33"
       is_visible="true"
       lpeversion="1.3"
       scale_width="1"
       interpolator_type="CentripetalCatmullRom"
       interpolator_beta="0.75"
       start_linecap_type="round"
       end_linecap_type="round"
       offset_points="1.3402879,0.16798642"
       linejoin_type="spiro"
       miter_limit="4"
       not_jump="true"
       sort_points="true"
       message="&lt;b&gt;Ctrl + click&lt;/b&gt; on existing node and move it" />
    <inkscape:path-effect
       effect="powerstroke"
       id="path-effect32"
       is_visible="true"
       lpeversion="1.3"
       scale_width="1"
       interpolator_type="CentripetalCatmullRom"
       interpolator_beta="0.75"
       start_linecap_type="round"
       end_linecap_type="round"
       offset_points="0.72765578,0.16798642"
       linejoin_type="spiro"
       miter_limit="4"
       not_jump="true"
       sort_points="true"
       message="&lt;b&gt;Ctrl + click&lt;/b&gt; on existing node and move it" />
    <inkscape:path-effect
       effect="powerstroke"
       id="path-effect31"
       is_visible="true"
       lpeversion="1.3"
       scale_width="1"
       interpolator_type="CentripetalCatmullRom"
       interpolator_beta="0.75"
       start_linecap_type="round"
       end_linecap_type="round"
       offset_points="0.92838286,0.16798642"
       linejoin_type="spiro"
       miter_limit="4"
       not_jump="true"
       sort_points="true"
       message="&lt;b&gt;Ctrl + click&lt;/b&gt; on existing node and move it" />
    <inkscape:path-effect
       effect="powerstroke"
       id="path-effect30"
       is_visible="true"
       lpeversion="1.3"
       scale_width="1"
       interpolator_type="CentripetalCatmullRom"
       interpolator_beta="0.75"
       start_linecap_type="round"
       end_linecap_type="round"
       offset_points="0.74467479,0.16798642"
       linejoin_type="spiro"
       miter_limit="4"
       not_jump="true"
       sort_points="true"
       message="&lt;b&gt;Ctrl + click&lt;/b&gt; on existing node and move it" />
    <inkscape:path-effect
       effect="powerstroke"
       id="path-effect29"
       is_visible="true"
       lpeversion="1.3"
       scale_width="1"
       interpolator_type="CentripetalCatmullRom"
       interpolator_beta="0.75"
       start_linecap_type="round"
       end_linecap_type="round"
       offset_points="0.8372049,0.16798642"
       linejoin_type="spiro"
       miter_limit="4"
       not_jump="true"
       sort_points="true"
       message="&lt;b&gt;Ctrl + click&lt;/b&gt; on existing node and move it" />
    <inkscape:path-effect
       effect="powerstroke"
       id="path-effect28"
       is_visible="true"
       lpeversion="1.3"
       scale_width="1"
       interpolator_type="CentripetalCatmullRom"
       interpolator_beta="0.75"
       start_linecap_type="round"
       end_linecap_type="round"
       offset_points="1.3351364,0.16798642"
       linejoin_type="spiro"
       miter_limit="4"
       not_jump="true"
       sort_points="true"
       message="&lt;b&gt;Ctrl + click&lt;/b&gt; on existing node and move it" />
    <inkscape:path-effect
       effect="powerstroke"
       id="path-effect27"
       is_visible="true"
       lpeversion="1.3"
       scale_width="1"
       interpolator_type="CentripetalCatmullRom"
       interpolator_beta="0.75"
       start_linecap_type="round"
       end_linecap_type="round"
       offset_points="1.306114,0.16798642"
       linejoin_type="spiro"
       miter_limit="4"
       not_jump="true"
       sort_points="true"
       message="&lt;b&gt;Ctrl + click&lt;/b&gt; on existing node and move it" />
    <inkscape:path-effect
       effect="skeletal"
       id="path-effect26"
       is_visible="true"
       lpeversion="1"
       pattern="M 0,4.9921382 C 0,2.2364779 2.2364779,0 4.9921382,0 c 2.7556604,0 4.9921383,2.2364779 4.9921383,4.9921382 0,2.7556604 -2.2364779,4.9921383 -4.9921383,4.9921383 C 2.2364779,9.9842765 0,7.7477986 0,4.9921382 Z"
       copytype="single_stretched"
       prop_scale="0.09"
       scale_y_rel="false"
       spacing="0"
       normal_offset="0"
       tang_offset="0"
       prop_units="false"
       vertical_pattern="false"
       hide_knot="false"
       fuse_tolerance="0" />
    <inkscape:path-effect
       effect="bspline"
       id="path-effect25"
       is_visible="true"
       lpeversion="1.3"
       weight="33.333333"
       steps="2"
       helper_size="0"
       apply_no_weight="true"
       apply_with_weight="true"
       only_selected="false"
       uniform="false" />
    <inkscape:path-effect
       effect="powerstroke"
       id="path-effect24"
       is_visible="true"
       lpeversion="1.3"
       scale_width="1"
       interpolator_type="CentripetalCatmullRom"
       interpolator_beta="0.75"
       start_linecap_type="round"
       end_linecap_type="round"
       offset_points="1.4645516,0.16798642"
       linejoin_type="spiro"
       miter_limit="4"
       not_jump="true"
       sort_points="true"
       message="&lt;b&gt;Ctrl + click&lt;/b&gt; on existing node and move it" />
    <inkscape:path-effect
       effect="bspline"
       id="path-effect23"
       is_visible="true"
       lpeversion="1.3"
       weight="33.333333"
       steps="2"
       helper_size="0"
       apply_no_weight="true"
       apply_with_weight="true"
       only_selected="false"
       uniform="false" />
    <inkscape:path-effect
       effect="powerstroke"
       id="path-effect22"
       is_visible="true"
       lpeversion="1.3"
       scale_width="1"
       interpolator_type="CentripetalCatmullRom"
       interpolator_beta="0.75"
       start_linecap_type="round"
       end_linecap_type="round"
       offset_points="0.75909509,0.16798642"
       linejoin_type="spiro"
       miter_limit="4"
       not_jump="true"
       sort_points="true"
       message="&lt;b&gt;Ctrl + click&lt;/b&gt; on existing node and move it" />
    <inkscape:path-effect
       effect="powerstroke"
       id="path-effect21"
       is_visible="true"
       lpeversion="1.3"
       scale_width="1"
       interpolator_type="CentripetalCatmullRom"
       interpolator_beta="0.75"
       start_linecap_type="round"
       end_linecap_type="round"
       offset_points="3.5,0"
       linejoin_type="spiro"
       miter_limit="4"
       not_jump="true"
       sort_points="true"
       message="&lt;b&gt;Ctrl + click&lt;/b&gt; on existing node and move it" />
    <inkscape:path-effect
       effect="powerstroke"
       id="path-effect20"
       is_visible="true"
       lpeversion="1.3"
       scale_width="1"
       interpolator_type="CentripetalCatmullRom"
       interpolator_beta="0.75"
       start_linecap_type="round"
       end_linecap_type="round"
       offset_points="0.8738509,0.16798642"
       linejoin_type="spiro"
       miter_limit="4"
       not_jump="true"
       sort_points="true"
       message="&lt;b&gt;Ctrl + click&lt;/b&gt; on existing node and move it" />
    <inkscape:path-effect
       effect="powerstroke"
       id="path-effect19"
       is_visible="true"
       lpeversion="1.3"
       scale_width="1"
       interpolator_type="CentripetalCatmullRom"
       interpolator_beta="0.75"
       start_linecap_type="round"
       end_linecap_type="round"
       offset_points="1.1252642,0.50395926"
       linejoin_type="spiro"
       miter_limit="4"
       not_jump="true"
       sort_points="true"
       message="&lt;b&gt;Ctrl + click&lt;/b&gt; on existing node and move it" />
    <inkscape:path-effect
       effect="powerstroke"
       id="path-effect18"
       is_visible="true"
       lpeversion="1.3"
       scale_width="1"
       interpolator_type="CentripetalCatmullRom"
       interpolator_beta="0.75"
       start_linecap_type="round"
       end_linecap_type="round"
       offset_points="1.4897009,0.50395926"
       linejoin_type="spiro"
       miter_limit="4"
       not_jump="true"
       sort_points="true"
       message="&lt;b&gt;Ctrl + click&lt;/b&gt; on existing node and move it" />
    <inkscape:path-effect
       effect="powerstroke"
       id="path-effect17"
       is_visible="true"
       lpeversion="1.3"
       scale_width="1"
       interpolator_type="CentripetalCatmullRom"
       interpolator_beta="0.75"
       start_linecap_type="round"
       end_linecap_type="round"
       offset_points="1.0448914,0.50395926"
       linejoin_type="spiro"
       miter_limit="4"
       not_jump="true"
       sort_points="true"
       message="&lt;b&gt;Ctrl + click&lt;/b&gt; on existing node and move it" />
    <inkscape:path-effect
       effect="powerstroke"
       id="path-effect16"
       is_visible="true"
       lpeversion="1.3"
       scale_width="1"
       interpolator_type="CentripetalCatmullRom"
       interpolator_beta="0.75"
       start_linecap_type="round"
       end_linecap_type="round"
       offset_points="1.4447164,0.50395926"
       linejoin_type="spiro"
       miter_limit="4"
       not_jump="true"
       sort_points="true"
       message="&lt;b&gt;Ctrl + click&lt;/b&gt; on existing node and move it" />
    <inkscape:path-effect
       effect="powerstroke"
       id="path-effect15"
       is_visible="true"
       lpeversion="1.3"
       scale_width="1"
       interpolator_type="CentripetalCatmullRom"
       interpolator_beta="0.75"
       start_linecap_type="round"
       end_linecap_type="round"
       offset_points="1.0785388,0.50395926"
       linejoin_type="spiro"
       miter_limit="4"
       not_jump="true"
       sort_points="true"
       message="&lt;b&gt;Ctrl + click&lt;/b&gt; on existing node and move it" />
    <inkscape:path-effect
       effect="powerstroke"
       id="path-effect14"
       is_visible="true"
       lpeversion="1.3"
       scale_width="1"
       interpolator_type="CentripetalCatmullRom"
       interpolator_beta="0.75"
       start_linecap_type="round"
       end_linecap_type="round"
       offset_points="1.4504699,0.50395926"
       linejoin_type="spiro"
       miter_limit="4"
       not_jump="true"
       sort_points="true"
       message="&lt;b&gt;Ctrl + click&lt;/b&gt; on existing node and move it" />
    <inkscape:path-effect
       effect="powerstroke"
       id="path-effect12"
       is_visible="true"
       lpeversion="1.3"
       scale_width="1"
       interpolator_type="CentripetalCatmullRom"
       interpolator_beta="0.75"
       start_linecap_type="round"
       end_linecap_type="round"
       offset_points="1.0184623,0.50395926"
       linejoin_type="spiro"
       miter_limit="4"
       not_jump="true"
       sort_points="true"
       message="&lt;b&gt;Ctrl + click&lt;/b&gt; on existing node and move it" />
    <inkscape:path-effect
       effect="powerstroke"
       id="path-effect11"
       is_visible="true"
       lpeversion="1.3"
       scale_width="1"
       interpolator_type="CentripetalCatmullRom"
       interpolator_beta="0.75"
       start_linecap_type="round"
       end_linecap_type="round"
       offset_points="1.1839947,0.50395926"
       linejoin_type="spiro"
       miter_limit="4"
       not_jump="true"
       sort_points="true"
       message="&lt;b&gt;Ctrl + click&lt;/b&gt; on existing node and move it" />
    <inkscape:path-effect
       effect="powerstroke"
       id="path-effect10"
       is_visible="true"
       lpeversion="1.3"
       scale_width="1"
       interpolator_type="CentripetalCatmullRom"
       interpolator_beta="0.75"
       start_linecap_type="round"
       end_linecap_type="round"
       offset_points="1.040267,0.50395926"
       linejoin_type="spiro"
       miter_limit="4"
       not_jump="true"
       sort_points="true"
       message="&lt;b&gt;Ctrl + click&lt;/b&gt; on existing node and move it" />
    <inkscape:path-effect
       effect="powerstroke"
       id="path-effect9"
       is_visible="true"
       lpeversion="1.3"
       scale_width="1"
       interpolator_type="CentripetalCatmullRom"
       interpolator_beta="0.75"
       start_linecap_type="round"
       end_linecap_type="round"
       offset_points="1.3913555,0.50395926"
       linejoin_type="spiro"
       miter_limit="4"
       not_jump="true"
       sort_points="true"
       message="&lt;b&gt;Ctrl + click&lt;/b&gt; on existing node and move it" />
    <inkscape:path-effect
       effect="powerstroke"
       id="path-effect7"
       is_visible="true"
       lpeversion="1.3"
       scale_width="1"
       interpolator_type="CentripetalCatmullRom"
       interpolator_beta="0.75"
       start_linecap_type="round"
       end_linecap_type="round"
       offset_points="0.51253688,0.50395926"
       linejoin_type="spiro"
       miter_limit="4"
       not_jump="true"
       sort_points="true"
       message="&lt;b&gt;Ctrl + click&lt;/b&gt; on existing node and move it" />
    <inkscape:path-effect
       effect="powerstroke"
       id="path-effect6"
       is_visible="true"
       lpeversion="1.3"
       scale_width="1"
       interpolator_type="CentripetalCatmullRom"
       interpolator_beta="0.75"
       start_linecap_type="round"
       end_linecap_type="round"
       offset_points="1.2045427,0.50395926"
       linejoin_type="spiro"
       miter_limit="4"
       not_jump="true"
       sort_points="true"
       message="&lt;b&gt;Ctrl + click&lt;/b&gt; on existing node and move it" />
    <inkscape:path-effect
       effect="powerstroke"
       id="path-effect5"
       is_visible="true"
       lpeversion="1.3"
       scale_width="1"
       interpolator_type="CentripetalCatmullRom"
       interpolator_beta="0.75"
       start_linecap_type="round"
       end_linecap_type="round"
       offset_points="0.36295064,0.50395926"
       linejoin_type="spiro"
       miter_limit="4"
       not_jump="true"
       sort_points="true"
       message="&lt;b&gt;Ctrl + click&lt;/b&gt; on existing node and move it" />
    <inkscape:path-effect
       effect="powerstroke"
       id="path-effect1"
       is_visible="true"
       lpeversion="1.3"
       scale_width="1"
       interpolator_type="CentripetalCatmullRom"
       interpolator_beta="0.75"
       start_linecap_type="round"
       end_linecap_type="round"
       offset_points="0.64310158,0.50395926"
       linejoin_type="spiro"
       miter_limit="4"
       not_jump="true"
       sort_points="true"
       message="&lt;b&gt;Ctrl + click&lt;/b&gt; on existing node and move it" />
    <inkscape:path-effect
       effect="powerstroke"
       id="path-effect13"
       is_visible="true"
       lpeversion="1.3"
       scale_width="1"
       interpolator_type="CentripetalCatmullRom"
       interpolator_beta="0.75"
       start_linecap_type="round"
       end_linecap_type="round"
       offset_points="1.4795603,0.50395926"
       linejoin_type="spiro"
       miter_limit="4"
       not_jump="true"
       sort_points="true"
       message="&lt;b&gt;Ctrl + click&lt;/b&gt; on existing node and move it" />
  </defs>
  <g
     inkscape:label="Layer 1"
     inkscape:groupmode="layer"
     id="layer1">
    <path
       d="m 3.7179962,3.7564576 h 0.672 V 42.393433 h -0.672 z"
       class="B"
       id="path1"
       style="fill:#e6e6e6" />
    <path
       d="M 36.948165,3.7041576 H 36.612246 V 42.341133 h 0.335919 z"
       class="B"
       id="path1-5"
       style="fill:#ececec;stroke-width:0.70702" />
    <path
       d="m 3.1749962,56.120236 h 1.008 v 25.864186 h -1.008 z m 70.1549778,-0.07266 h 0.672 v 25.499858 h -0.672 z"
       fill="#999999"
       id="path2"
       style="stroke-width:1.04128" />
    <path
       d="M 4.1469962,41.707436 H 74.364974 v 0.735997 H 4.1469962 Z"
       class="B"
       id="path3"
       style="fill:#e6e6e6" />
    <path
       d="M 3.9369962,56.047587 H 74.154974 v 0.808874 H 3.9369962 Z m 0,25.297934 H 74.154974 v 0.808874 H 3.9369962 Z"
       fill="#999999"
       id="path4"
       style="stroke-width:1.04833" />
    <text
       xml:space="preserve"
       x="3.7099905"
       y="49.011646"
       class="B C D E F"
       id="text11"
       style="font-style:italic;font-weight:bold;font-size:7.408px;font-family:sans-serif;fill:#e6e6e6"><tspan
         x="3.7099905"
         y="49.011646"
         font-weight="normal"
         class="G I"
         id="tspan11">1-Apr</tspan></text>
    <text
       xml:space="preserve"
       x="16.965166"
       y="65.91597"
       class="B C D E F"
       id="text12"
       style="font-style:italic;font-weight:bold;font-size:7.408px;font-family:sans-serif;fill:#e6e6e6"><tspan
         x="16.965166"
         y="65.91597"
         font-weight="normal"
         class="G I"
         id="tspan12">Load</tspan></text>
    <text
       xml:space="preserve"
       x="31.253166"
       y="49.125629"
       class="B C D E F"
       id="text14"
       style="font-style:italic;font-weight:bold;font-size:7.408px;font-family:sans-serif;fill:#e6e6e6"><tspan
         x="31.253166"
         y="49.125629"
         font-weight="normal"
         class="G I"
         id="tspan14">15-Apr</tspan></text>
    <text
       xml:space="preserve"
       x="61.321011"
       y="49.00761"
       class="B C D E F"
       id="text16"
       style="font-style:italic;font-weight:bold;font-size:7.408px;font-family:sans-serif;fill:#e6e6e6"><tspan
         x="61.321011"
         y="49.00761"
         font-weight="normal"
         class="G I"
         id="tspan16">30-Apr</tspan></text>
    <path
       d="m 6.7589962,63.382921 h 7.0549968 v 1.008 H 6.7589962 Z"
       fill="#00b900"
       id="path16"
       style="fill:#70a2ff;fill-opacity:1" />
    <path
       d="m 3.457455,11.195218 c 0.091564,0.04912 0.1881134,0.102544 0.275111,0.15684 0.070816,0.0442 0.1381448,0.09063 0.2022669,0.143174 0.055249,0.04528 0.1122444,0.09839 0.173152,0.16637 0.055124,0.06153 0.1164004,0.138469 0.1872693,0.240861 0.1281021,0.185085 0.2805897,0.442296 0.5053462,0.866863 0.2025835,0.382682 0.4421725,0.858944 0.7961557,1.566911 0.183834,0.367668 0.3284747,0.791918 0.4382457,1.276988 0.1052605,0.465138 0.1764081,0.976787 0.2220541,1.537106 0.080826,0.992167 0.076922,2.055437 0.06668,3.247271 -0.00126,0.146547 -0.00137,0.157099 -0.00263,0.303647 -0.00913,1.074331 -0.021612,2.457065 0.0992,3.711118 0.1072435,1.113202 0.3315002,2.313164 0.8563102,3.362784 0.053951,0.107903 0.1231018,0.211524 0.2123757,0.301427 0.088375,0.089 0.19345,0.16136 0.3143828,0.209537 0.1179735,0.047 0.2391168,0.06624 0.3572257,0.06457 0.114257,-0.0016 0.2231711,-0.02268 0.323688,-0.05417 0.1920509,-0.06017 0.3739981,-0.16491 0.5392343,-0.284239 0.1618446,-0.116879 0.3220408,-0.258277 0.4763658,-0.411936 0.2949642,-0.293691 0.583022,-0.646966 0.827197,-0.985228 0.117125,-0.162255 0.224449,-0.321523 0.316192,-0.467545 0.0886,-0.141022 0.165964,-0.274923 0.22263,-0.388256 0.08111,-0.162211 0.150143,-0.356467 0.211455,-0.566653 0.06142,-0.210578 0.118989,-0.450861 0.174113,-0.713796 0.108704,-0.51851 0.211037,-1.140195 0.315676,-1.825857 0.200293,-1.312437 0.420597,-2.946188 0.70184,-4.420471 0.139005,-0.72867 0.294805,-1.430337 0.474106,-2.057236 0.177531,-0.620709 0.374331,-1.154519 0.593077,-1.56483 0.107769,-0.202145 0.216646,-0.366257 0.324958,-0.493292 0.107679,-0.126294 0.20803,-0.208019 0.298173,-0.25723 0.08617,-0.04704 0.168221,-0.06754 0.253583,-0.06673 0.08928,8.46e-4 0.199566,0.02396 0.344535,0.09645 0.04293,0.02146 0.08965,0.05293 0.140459,0.09901 0.05091,0.04618 0.104738,0.106089 0.160466,0.182471 0.112116,0.153669 0.223108,0.361817 0.329675,0.628705 0.212236,0.531529 0.385321,1.240447 0.528666,2.084177 0.141249,0.831389 0.249683,1.769052 0.341895,2.757592 0.09151,0.981047 0.165306,1.992036 0.24057,2.990768 0.07404,0.9825 0.149263,1.949673 0.242404,2.816169 0.04641,0.431721 0.09767,0.842506 0.156181,1.221945 0.0582,0.377439 0.124265,0.728472 0.201221,1.04122 0.07617,0.309557 0.166038,0.594247 0.275996,0.834803 0.05519,0.120734 0.118117,0.236309 0.191001,0.341014 0.07253,0.104196 0.159604,0.204383 0.265162,0.287933 0.106924,0.08463 0.233742,0.152758 0.380142,0.187587 0.147237,0.03503 0.295658,0.03189 0.438466,-0.002 0.139836,-0.03322 0.268578,-0.09444 0.385525,-0.170083 0.116732,-0.0755 0.228313,-0.169635 0.335576,-0.276898 0.867581,-0.867581 1.776573,-1.862943 2.575151,-2.968125 0.785736,-1.087411 1.475345,-2.29566 1.914241,-3.612346 0.08259,-0.247769 0.158255,-0.553043 0.23079,-0.888867 0.07288,-0.337429 0.145239,-0.718352 0.219554,-1.121945 0.149095,-0.809705 0.306875,-1.714499 0.498388,-2.590447 0.09542,-0.436426 0.1984,-0.861796 0.311566,-1.260189 0.113302,-0.398872 0.235427,-0.765759 0.368182,-1.086722 0.133471,-0.322694 0.272772,-0.586888 0.416324,-0.787187 0.07121,-0.09936 0.140604,-0.178955 0.207178,-0.240927 0.06616,-0.06158 0.127668,-0.103942 0.183079,-0.131647 0.06298,-0.03149 0.147402,-0.05725 0.263295,-0.07709 0.11779,-0.02017 0.245982,-0.03094 0.398774,-0.04308 0.145389,-0.01155 0.316421,-0.02455 0.482411,-0.05199 0.168715,-0.02789 0.355902,-0.07407 0.535385,-0.163817 -0.0124,0.0062 -0.01546,0.0068 -0.01305,0.0059 0.0029,-9.6e-4 0.01004,-0.0032 0.02213,-0.006 0.02464,-0.0058 0.06081,-0.01228 0.10749,-0.01716 0.09464,-0.0099 0.21427,-0.01149 0.341613,0.0022 0.129226,0.01393 0.255925,0.04249 0.368293,0.08682 0.113865,0.04491 0.204381,0.102484 0.271657,0.16976 0.266628,0.266628 0.476099,0.587594 0.639733,0.95696 0.165829,0.374323 0.28383,0.796795 0.365143,1.257621 0.165802,0.939658 0.174219,2.009503 0.145133,3.094403 -0.02989,1.114772 -0.09794,2.220485 -0.0762,3.236115 0.01105,0.516141 0.04545,1.010412 0.121466,1.466652 0.07708,0.462607 0.19875,0.897478 0.390186,1.28035 0.08045,0.160906 0.136995,0.340692 0.181173,0.538866 0.04612,0.206865 0.07714,0.425944 0.109391,0.655545 0.03362,0.23933 0.06805,0.485797 0.122044,0.730632 0.05734,0.259967 0.136558,0.517181 0.259338,0.76274 0.659881,1.319763 1.415054,2.30419 2.096067,3.080286 0.759712,0.865782 1.843371,1.903644 2.365982,2.426255 a 0.50395926,0.50395926 90 0 0 0.712706,-0.712706 c -0.554335,-0.554335 -1.590269,-1.545481 -2.321086,-2.378334 -0.643376,-0.733204 -1.342076,-1.646089 -1.952159,-2.866255 -0.07463,-0.149254 -0.13086,-0.321755 -0.176584,-0.52907 -0.04416,-0.200205 -0.07362,-0.407636 -0.10819,-0.653763 -0.03124,-0.222379 -0.06737,-0.481791 -0.123739,-0.734638 -0.05499,-0.246666 -0.134083,-0.511613 -0.263432,-0.770311 -0.132888,-0.265775 -0.231039,-0.596442 -0.297482,-0.995236 -0.06529,-0.391881 -0.09754,-0.83414 -0.107993,-1.322587 -0.02107,-0.98429 0.04483,-2.022282 0.07607,-3.187528 0.02932,-1.093422 0.02456,-2.249982 -0.160103,-3.296551 -0.09152,-0.518656 -0.229226,-1.023558 -0.436189,-1.490732 -0.205436,-0.463724 -0.480505,-0.893358 -0.848567,-1.26142 -0.183584,-0.183584 -0.399171,-0.309723 -0.614526,-0.394668 -0.211464,-0.08341 -0.428835,-0.129616 -0.630079,-0.151314 -0.198423,-0.0214 -0.389367,-0.01984 -0.554413,-0.0026 -0.08187,0.0086 -0.161448,0.0214 -0.235103,0.03885 -0.03685,0.0087 -0.07426,0.0191 -0.111072,0.03148 -0.03611,0.01215 -0.07603,0.02769 -0.116402,0.04788 -0.0554,0.0277 -0.134026,0.05189 -0.249036,0.07091 -0.115915,0.01916 -0.242158,0.02929 -0.397826,0.04166 -0.145745,0.01158 -0.319092,0.02527 -0.489064,0.05437 -0.171027,0.02928 -0.360774,0.07746 -0.543938,0.169039 -0.154944,0.07747 -0.293919,0.178905 -0.419069,0.295403 -0.124662,0.116044 -0.237321,0.248716 -0.339681,0.39154 -0.203465,0.283897 -0.377212,0.623393 -0.52847,0.989092 -0.151916,0.367291 -0.286082,0.773153 -0.406351,1.19655 -0.120455,0.424055 -0.228333,0.870572 -0.326663,1.320317 -0.196172,0.897258 -0.358306,1.826626 -0.504983,2.623204 -0.07405,0.40216 -0.144085,0.770291 -0.2135,1.091676 -0.07002,0.324198 -0.136632,0.587466 -0.201786,0.782928 -0.397936,1.193809 -1.030858,2.310906 -1.775007,3.340761 -0.756035,1.046307 -1.624967,1.999808 -2.470895,2.845736 -0.07007,0.07007 -0.126911,0.115241 -0.170278,0.143292 -0.04341,0.02808 -0.06669,0.03473 -0.0711,0.03577 -0.004,9.59e-4 0.01334,-0.0013 0.02779,0.0021 0.01669,0.004 0.02103,0.0097 0.01212,0.0026 -0.01047,-0.0083 -0.03274,-0.02931 -0.06347,-0.07345 -0.03055,-0.04389 -0.06495,-0.104146 -0.101545,-0.184202 -0.07409,-0.162092 -0.14604,-0.380577 -0.213961,-0.656604 -0.06767,-0.275024 -0.128462,-0.595121 -0.1838,-0.953994 -0.05547,-0.359728 -0.104858,-0.754409 -0.150183,-1.176073 -0.09114,-0.847869 -0.165324,-1.800141 -0.239479,-2.784173 -0.07495,-0.99461 -0.149526,-2.016466 -0.242078,-3.008655 -0.09324,-0.999615 -0.204442,-1.965587 -0.351777,-2.832799 -0.148128,-0.871884 -0.335511,-1.661061 -0.586289,-2.289118 -0.126731,-0.317387 -0.274766,-0.606783 -0.451492,-0.849008 -0.0893,-0.122391 -0.187964,-0.23557 -0.297532,-0.334956 -0.110139,-0.0999 -0.232366,-0.186715 -0.366871,-0.253969 -0.256361,-0.128181 -0.519485,-0.20029 -0.785744,-0.202813 -0.27009,-0.0026 -0.520573,0.06681 -0.746101,0.189929 -0.223553,0.122043 -0.415972,0.293009 -0.582188,0.487958 -0.167411,0.196351 -0.315307,0.425304 -0.447391,0.673059 -0.265784,0.498541 -0.485668,1.107826 -0.672723,1.761834 -0.190644,0.666559 -0.35295,1.400321 -0.495112,2.145539 -0.285933,1.498872 -0.511772,3.170449 -0.708157,4.457282 -0.104203,0.682802 -0.203116,1.281466 -0.305765,1.771097 -0.05192,0.247653 -0.103478,0.460933 -0.155236,0.638368 -0.05306,0.181912 -0.102338,0.312079 -0.1453688,0.398141 -0.037003,0.07401 -0.096211,0.178081 -0.1745738,0.302806 -0.079474,0.126495 -0.1746164,0.26786 -0.2799822,0.413826 -0.2221829,0.307795 -0.4752767,0.61613 -0.7211183,0.860911 -0.1282335,0.12768 -0.2478624,0.231473 -0.3553019,0.309063 -0.1138185,0.0822 -0.1973541,0.122897 -0.2504581,0.139534 -0.024896,0.0078 -0.03728,0.0082 -0.036593,0.0082 7.007e-4,-10e-6 0.015361,0.0011 0.030027,0.0069 0.014998,0.006 0.027431,0.01625 0.027795,0.01661 3.724e-4,3.75e-4 -0.0106,-0.01104 -0.026067,-0.04198 C 7.7340203,26.436176 7.5259732,25.378527 7.4235846,24.315719 7.3087411,23.123624 7.3197662,21.795245 7.3289925,20.70982 c 6.598e-4,-0.07762 0.00197,-0.225944 0.00263,-0.303557 0.010192,-1.186018 0.015099,-2.2935 -0.069971,-3.33777 C 7.2132865,16.474858 7.136505,15.914146 7.0180626,15.390759 6.8944845,14.844677 6.7258177,14.340586 6.4982667,13.885484 6.1453485,13.179647 5.900439,12.692635 5.691399,12.297757 5.4586992,11.858185 5.2856349,11.562342 5.1240267,11.328847 5.0325843,11.196729 4.9455583,11.086001 4.858695,10.989044 4.7617415,10.880825 4.667061,10.792158 4.5736954,10.715646 4.467104,10.628295 4.3621971,10.556907 4.2662173,10.497005 4.1505188,10.424796 4.0305784,10.358885 3.9339478,10.307044 A 0.50395926,0.50395926 90 0 0 3.457455,11.195218 Z"
       id="path-1"
       inkscape:path-effect="#path-effect13"
       inkscape:original-d="m 3.6957014,10.751131 c 0.8953943,0.480366 1.0245065,0.705122 2.3518099,3.359729 1.6809176,3.361835 -0.1674319,9.744321 1.6798643,13.438914 0.5649708,1.129942 2.3175974,-1.275467 2.6877824,-2.015837 0.9982,-1.996399 1.169399,-13.694147 4.367647,-12.095023 2.84315,1.421575 1.19666,17.953793 4.031675,15.118778 1.736548,-1.736548 3.535631,-3.887438 4.367647,-6.383484 0.59154,-1.774619 1.004534,-7.557697 2.687783,-8.399321 0.491683,-0.245842 1.208456,-0.100269 1.679864,-0.335973 0.232797,-0.116399 1.174146,-0.169745 1.679864,0.335973 2.527197,2.527197 0.372673,8.808694 1.679864,11.423077 0.413248,0.826496 0.266417,1.876725 0.671946,2.687783 1.187195,2.37439 2.754558,3.762476 4.367647,5.375565"
       style="fill:#008cff;fill-opacity:1;fill-rule:nonzero;stroke:none"
       transform="translate(0.17108556,0.52915767)" />
    <path
       style="fill:#bcd4ff;fill-opacity:1;stroke:none;stroke-opacity:1;stroke-width:0;stroke-dasharray:none;opacity:1;stroke-dashoffset:0"
       d="m 226.02772,647.60751 c 0,0 309.83575,35.55492 309.83575,35.55492"
       id="path22"
       inkscape:path-effect="#path-effect23"
       inkscape:original-d="m 226.02772,647.60751 309.83575,35.55492" />
    <path
       d="m 1.233691,184.91186 c 0.7494026,0.65135 1.7688654,1.38384 3.1595795,2.01167 0.9918499,0.44776 2.1151129,0.81817 3.4515712,1.11189 2.3356243,0.5133 4.2307063,0.61221 7.2553843,0.94828 1.035595,0.11507 2.109741,0.20373 3.223048,0.2623 3.878448,0.20401 8.893916,0.0765 14.965655,-0.9355 1.952962,-0.32549 4.099873,-0.99747 6.399696,-1.92395 2.076729,-0.8366 4.11569,-1.81356 6.078803,-2.79512 1.337084,-0.66854 3.058072,-1.28374 5.028638,-1.82042 1.910231,-0.52025 4.04057,-0.96255 6.231074,-1.30032 2.13453,-0.32913 4.31892,-0.55766 6.37312,-0.65816 2.011213,-0.0984 3.893488,-0.0737 5.455622,0.0999 2.395728,0.26619 4.400262,0.93146 6.254593,1.77799 1.844663,0.84211 3.481342,1.83259 5.246795,2.78706 1.726385,0.93335 3.535482,1.80761 5.644195,2.36252 2.095163,0.55134 4.489902,0.78912 7.417538,0.46383 2.071978,-0.23022 3.993318,-0.86275 5.874875,-1.62947 1.876992,-0.76486 3.708132,-1.65964 5.592042,-2.4132 6.14213,-2.45684 12.40936,-3.3477 18.75209,-3.3477 2.2777,0 4.73444,0.49018 7.24979,1.18528 2.5451,0.70333 5.21643,1.63708 7.78883,2.48714 2.66362,0.8802 5.25599,1.6833 7.74725,2.16638 2.55422,0.49529 4.95658,0.64386 7.14865,0.20544 0.81445,-0.16289 1.61336,-0.43474 2.38288,-0.76007 0.79847,-0.33757 1.58144,-0.73981 2.3251,-1.14889 1.6123,-0.88689 3.08936,-1.8151 4.40548,-2.47316 1.5649,-0.78245 3.50505,-1.42937 5.52514,-1.95562 2.21532,-0.57711 4.57185,-1.02119 6.77523,-1.35502 2.50379,-0.37934 4.89055,-0.62911 6.90462,-0.78583 2.45307,-0.19088 4.46045,-0.25344 5.91784,-0.25344 a 0.16798642,0.16798642 90 0 0 0,-0.33598 c -1.46657,0 -3.48265,0.063 -5.9439,0.25446 -2.0208,0.15724 -4.41578,0.40786 -6.92888,0.78861 -2.2111,0.33499 -4.57972,0.78117 -6.8096,1.36208 -2.0312,0.52914 -3.99637,1.18307 -5.59071,1.98024 -1.33689,0.66845 -2.81742,1.59931 -4.41715,2.47929 -0.73857,0.40627 -1.51036,0.8025 -2.294,1.13381 -0.75526,0.3193 -1.53186,0.58286 -2.31793,0.74007 -2.13316,0.42664 -4.48776,0.28498 -7.0188,-0.20581 -2.46857,-0.47868 -5.04345,-1.27578 -7.70581,-2.15557 -2.56432,-0.84739 -5.24903,-1.7857 -7.80475,-2.49196 -2.52665,-0.69823 -5.01719,-1.19743 -7.33928,-1.19743 -6.37463,0 -12.68609,0.89543 -18.87687,3.37174 -1.89921,0.75968 -3.73123,1.65492 -5.594046,2.41401 -1.868608,0.76144 -3.757293,1.38136 -5.785193,1.60668 -2.887449,0.32083 -5.240584,0.0858 -7.294921,-0.45482 -2.070384,-0.54483 -3.852021,-1.40439 -5.569915,-2.33315 -1.747174,-0.94459 -3.408897,-1.94888 -5.267065,-2.79716 -1.878844,-0.85771 -3.918152,-1.53529 -6.357015,-1.80627 -1.585579,-0.17618 -3.486843,-0.2005 -5.509129,-0.10156 -2.066871,0.10111 -4.262905,0.33094 -6.407916,0.66168 -2.201179,0.33941 -4.344062,0.78418 -6.268149,1.3082 -1.981479,0.53966 -3.726908,1.16224 -5.090609,1.84409 -1.960362,0.98018 -3.989889,1.95242 -6.054099,2.78399 -2.286694,0.92119 -4.408872,1.58409 -6.329388,1.90418 -6.046306,1.00772 -11.037278,1.1342 -14.892773,0.93139 -1.106859,-0.0582 -2.174518,-0.14637 -3.203593,-0.26071 -3.042723,-0.33808 -4.907694,-0.43424 -7.2203711,-0.9425 -1.3167944,-0.2894 -2.4175114,-0.653 -3.3854483,-1.08997 -1.3563852,-0.61233 -2.3486435,-1.3256 -3.0774178,-1.95903 a 0.16798642,0.16798642 90 0 0 -0.2204008,0.25358 z"
       id="path-1-9"
       inkscape:path-effect="#path-effect42"
       inkscape:original-d="m 1.3438914,184.78507 c 3.902527,3.39195 8.9378666,3.49423 13.7748866,4.03167 6.025349,0.66949 12.217716,0.31553 18.142534,-0.67194 4.098159,-0.68303 8.730288,-2.85327 12.430996,-4.70362 5.486596,-2.7433 16.943986,-4.38883 23.182126,-3.6957 9.728772,1.08097 12.929832,8.67986 24.526018,7.3914 4.109187,-0.45658 7.629878,-2.5144 11.423078,-4.03168 6.06402,-2.4256 12.31768,-3.35972 18.81448,-3.35972 9.13675,0 21.13959,7.79991 29.90158,6.04751 3.15166,-0.63034 6.25112,-2.95757 9.07127,-4.36765 6.09415,-3.04708 18.44079,-4.36765 25.19796,-4.36765"
       style="opacity:1;fill:#d1e2ff;fill-opacity:1;fill-rule:nonzero;stroke:none;stroke-width:0;stroke-dasharray:none;stroke-dashoffset:0;stroke-opacity:1"
       transform="matrix(0.2356115,0,0,1,34.16016,-154.54751)" />
    <text
       xml:space="preserve"
       x="16.452242"
       y="76.92115"
       class="B C D E F"
       id="text13"
       style="font-style:italic;font-weight:bold;font-size:7.408px;font-family:sans-serif;fill:#e6e6e6"><tspan
         x="16.452242"
         y="76.92115"
         font-weight="normal"
         class="G I"
         id="tspan13">Capacity</tspan></text>
    <path
       id="use11"
       d="m 6.4600774,72.670741 h 6.3830006 v 4.367997 H 6.4600774 Z"
       style="fill:#808080" />
    <path
       id="use11-1"
       d="m 45.919362,30.087821 h 5.375082 v 11.7594 h -5.375082 z"
       style="fill:#808080;stroke-width:1.50567" />
    <path
       id="use11-1-9"
       d="m 59.795832,30.448057 h 5.375082 v 11.7594 h -5.375082 z"
       style="fill:#808080;stroke-width:1.50567" />
    <path
       id="use11-1-3"
       d="m 73.554163,27.474717 h 5.375082 v 14.783155 h -5.375082 z"
       style="fill:#808080;stroke-width:1.68819" />
    <path
       id="use11-1-3-9"
       d="m 66.939579,34.378904 h 5.375075 v 8.063698 h -5.375075 z"
       style="fill:#808080;stroke-width:1.24682" />
    <path
       id="use11-1-3-9-4"
       d="m 52.988054,34.324439 h 5.375075 v 8.063698 h -5.375075 z"
       style="fill:#808080;stroke-width:1.24682" />
  </g>
</svg>
