<svg xmlns="http://www.w3.org/2000/svg" width="793.701" height="1122.52" viewBox="0 0 210 297" xmlns:v="https://vecta.io/nano"><style><![CDATA[.B{fill:#e6e6e6}.C{font-style:italic}.D{font-weight:bold}.E{font-size:7.408px}.F{font-family:sans-serif}.G{font-style:normal}.H{font-weight:400}.I{font-family:Courier New}]]></style><path d="M4.014 3.536h.672v38.637h-.672z" class="B"/><path d="M3.471 55.365h1.008v23.854H3.471zm70.155-.067h.672v23.518h-.672z" fill="#999"/><path d="M4.443 41.487h70.218v.736H4.443z" class="B"/><path d="M4.233 55.298h70.218v.736H4.233zm0 23.019h70.218v.736H4.233z" fill="#999"/><path d="M4.397 17.131c.614.336 1.237.754 1.812 1.297.446.421.85.903 1.233 1.492.699 1.074 1.029 1.957 1.811 3.588.41.853.703 1.701 1.034 2.727l.976 2.771.017.041.013.034.012.031.07.186.201.55.541 1.493.532 1.437.193.487.071.158.036.067.029.044.028.034a.46.46 0 0 0 .058.054 5.45 5.45 0 0 0 .797.524c.275.146.574.271.911.369a6.32 6.32 0 0 0 1.068.208 11.34 11.34 0 0 0 1.276.064l.161.005.235.016.585.04.631.008.311-.029c.1-.016.211-.04.317-.082a1.2 1.2 0 0 0 .277-.154 1.42 1.42 0 0 0 .212-.195 2.26 2.26 0 0 0 .318-.477c.091-.177.174-.377.249-.594l.212-.704.361-1.676.327-1.893.756-3.699c.153-.542.323-1.022.517-1.412a3.37 3.37 0 0 1 .298-.499 1.62 1.62 0 0 1 .299-.319l.383-.283.515-.345a10.49 10.49 0 0 1 1.245-.684 5.85 5.85 0 0 1 .632-.248c.203-.065.39-.109.556-.129s.298-.017.403.002a.65.65 0 0 1 .138.041c.041.018.081.04.119.071.066.052.14.126.219.228s.156.223.233.366c.155.286.299.64.434 1.046.269.809.491 1.785.7 2.775l.302 1.441.304 1.3c.104.392.215.75.339 1.04a2.71 2.71 0 0 0 .206.399c.038.06.08.117.126.171s.099.107.161.155c-.014-.011-.02-.019-.02-.021s.003.005.007.021c.009.035.015.092.008.178a2.23 2.23 0 0 1-.047.294l-.086.353-.091.376a2.83 2.83 0 0 0-.059.379c-.009.122-.007.256.027.385a.75.75 0 0 0 .086.202c.042.068.099.135.176.195a3.41 3.41 0 0 0 .9.506 3.72 3.72 0 0 0 .98.221c.659.06 1.318-.042 1.924-.221a8.42 8.42 0 0 0 1.679-.716 9.89 9.89 0 0 0 1.277-.84 1.25 1.25 0 0 0 .282-.309 1.52 1.52 0 0 0 .166-.352c.08-.242.112-.515.118-.797s-.015-.589-.051-.903l-.141-.966-.3-1.87c-.032-.283-.047-.536-.039-.755.004-.109.014-.206.029-.291s.036-.155.059-.21c.189-.442.254-.91.264-1.372s-.035-.938-.076-1.392l-.071-1.328c.011-.423.072-.809.22-1.156s.258-.715.35-1.08l.254-1.103.286-1.05c.114-.334.251-.641.426-.915.404-.632.906-1.29 1.468-1.936a21.73 21.73 0 0 1 1.839-1.867c.653-.587 1.326-1.119 1.983-1.562.664-.447 1.3-.795 1.877-1.02.334-.131.624-.21.874-.249a2.11 2.11 0 0 1 .631-.015c.173.025.325.076.463.153s.273.184.397.325a2.38 2.38 0 0 1 .339.515c.101.202.188.43.261.681.147.505.237 1.088.288 1.711.101 1.253.042 2.645-.008 3.838l-.045 1.617.026.635a2.42 2.42 0 0 0 .091.506l.885 3.001c.265 1.064.444 2.08.444 2.94 0 .133.012.286.035.447s.059.341.107.522c.096.365.244.757.454 1.102a2.66 2.66 0 0 0 .381.494 1.95 1.95 0 0 0 .541.39 1.79 1.79 0 0 0 .743.176c.277.005.552-.049.821-.154.113-.044.216-.1.31-.163s.182-.134.265-.211a3.55 3.55 0 0 0 .466-.543c.294-.413.579-.941.858-1.534l.858-2.012.903-2.305 2.051-4.671c.381-.723.775-1.379 1.189-1.943.421-.575.853-1.043 1.295-1.388.335-.261.727-.447 1.128-.556a3.32 3.32 0 0 1 1.232-.102c.407.045.776.172 1.083.373a2.03 2.03 0 0 1 .761.918c.283.663.43 1.36.518 2.046.093.725.126 1.497.166 2.183.046.785.102 1.494.239 2.179.154.767.4 1.44.784 2.041.124.194.427.273.676.176s.35-.334.225-.528c-.326-.51-.547-1.1-.69-1.811-.128-.639-.182-1.311-.228-2.093l-.17-2.226c-.092-.716-.249-1.477-.564-2.216-.224-.524-.587-.956-1.069-1.272-.457-.3-1.003-.484-1.588-.55-.557-.062-1.144-.016-1.707.138-.541.147-1.064.395-1.509.743-.526.411-1.009.942-1.457 1.554-.442.603-.855 1.292-1.246 2.035-.767 1.457-1.444 3.113-2.082 4.739l-.902 2.301-.842 1.975c-.273.579-.536 1.063-.792 1.423-.127.178-.246.317-.356.419a1.2 1.2 0 0 1-.148.119.57.57 0 0 1-.107.058c-.148.058-.26.073-.344.072a.57.57 0 0 1-.242-.059c-.085-.041-.177-.106-.271-.201s-.183-.212-.267-.349c-.165-.272-.292-.6-.377-.923-.042-.158-.072-.311-.092-.451s-.029-.262-.029-.36c0-.936-.192-2.007-.462-3.09l-.897-3.041c-.026-.082-.049-.204-.064-.371s-.022-.359-.023-.582l.045-1.588.007-3.913c-.052-.648-.147-1.276-.311-1.837-.082-.28-.182-.547-.305-.792s-.27-.474-.448-.676-.391-.38-.644-.52-.543-.238-.864-.284a3.39 3.39 0 0 0-1.015.018c-.355.057-.729.162-1.124.317-.674.263-1.38.654-2.084 1.128a19.17 19.17 0 0 0-2.086 1.642c-.675.607-1.324 1.266-1.911 1.941a17.54 17.54 0 0 0-1.536 2.026 4.89 4.89 0 0 0-.498 1.064c-.125.365-.219.742-.304 1.113l-.251 1.089a6.7 6.7 0 0 1-.318.984c-.192.449-.26.922-.271 1.389s.032.943.074 1.4l.074 1.323c-.009.419-.068.798-.212 1.137-.047.111-.079.228-.101.349s-.034.248-.039.378c-.01.261.009.548.043.846l.305 1.904.137.933c.034.298.052.574.047.821a2.15 2.15 0 0 1-.087.614c-.026.079-.056.143-.089.193a.43.43 0 0 1-.095.107 8.9 8.9 0 0 1-1.147.755c-.452.25-.948.473-1.452.621s-.999.216-1.453.175a2.49 2.49 0 0 1-.658-.148 2.37 2.37 0 0 1-.626-.354c.014.011.02.019.02.021s-.003-.005-.007-.021c-.009-.035-.015-.092-.008-.178s.023-.183.047-.294l.086-.353.091-.376a2.83 2.83 0 0 0 .059-.379c.009-.123.007-.256-.027-.385a.75.75 0 0 0-.086-.202c-.042-.068-.099-.135-.176-.195-.005-.004-.018-.015-.036-.037a.78.78 0 0 1-.063-.086c-.048-.074-.098-.172-.151-.295-.105-.248-.207-.57-.308-.951l-.297-1.271-.302-1.44-.719-2.845a7.31 7.31 0 0 0-.481-1.155c-.091-.168-.19-.325-.298-.465s-.23-.27-.369-.379c-.105-.082-.22-.149-.344-.203s-.255-.092-.388-.117a2.59 2.59 0 0 0-.799-.015 4.33 4.33 0 0 0-.779.178c-.256.082-.511.184-.757.296-.495.225-.972.499-1.373.754l-.555.371-.421.311a2.45 2.45 0 0 0-.46.483c-.134.182-.254.387-.364.607-.219.442-.402.965-.561 1.526-.32 1.134-.556 2.491-.771 3.765l-.325 1.883-.35 1.63-.197.655a4.03 4.03 0 0 1-.212.508 1.53 1.53 0 0 1-.209.319c-.032.035-.059.059-.08.075a.17.17 0 0 1-.035.022c.002-.001-.022.007-.064.014s-.101.012-.171.015a5.38 5.38 0 0 1-.505-.008l-.559-.038-.257-.017-.234-.008c-.44 0-.81-.019-1.131-.056a5.08 5.08 0 0 1-.859-.166c-.257-.075-.484-.17-.697-.283a4.46 4.46 0 0 1-.652-.43.41.41 0 0 1 .052.048l.021.025.013.019-.062-.138-.185-.466-.529-1.427-.541-1.492-.203-.554-.073-.193-.013-.034-.015-.038-.023-.057c-.387-.906-.686-1.879-.955-2.714-.332-1.03-.637-1.914-1.067-2.811-.759-1.581-1.124-2.542-1.857-3.668-.413-.634-.857-1.166-1.355-1.637-.643-.607-1.336-1.071-2.011-1.441a.6.6 0 0 0-.701.097c-.159.178-.104.423.123.548z" fill="#009400"/><g fill="#666"><path d="M5.501 36.99h6.383v4.368H5.501z"/><use href="#B"/><path d="M22.49 37.042h6.383v4.368H22.49z"/><use href="#B" x="16.989" y="0.052"/><use href="#B" x="25.929"/><use href="#B" x="34.187" y="-0.213"/><use href="#B" x="42.918" y="0.052"/><use href="#B" x="51.175" y="-0.161"/><path d="M7.144 69.321h6.383v4.368H7.144z"/></g><text xml:space="preserve" x="4.006" y="48.262" class="B C D E F"><tspan x="4.006" y="48.262" font-weight="normal" class="G I">9am</tspan></text><text xml:space="preserve" x="16.732" y="64.108" class="B C D E F"><tspan x="16.732" y="64.108" font-weight="normal" class="G I">Utilization</tspan></text><text xml:space="preserve" x="16.826" y="73.748" class="B C D E F"><tspan x="16.826" y="73.748" font-weight="normal" class="G I">Capacity</tspan></text><text xml:space="preserve" x="21.495" y="48.376" class="B C D E F"><tspan x="21.495" y="48.376" font-weight="normal" class="G I">11am</tspan></text><text xml:space="preserve" x="44.154" y="48.379" class="B C D E F"><tspan x="44.154" y="48.379" font-weight="normal" class="G I">1pm</tspan></text><text xml:space="preserve" x="61.617" y="48.258" class="B C D E F"><tspan x="61.617" y="48.258" font-weight="normal" class="G I">3pm</tspan></text><path d="M7.055 61.575h7.055v1.008H7.055z" fill="#00b900"/><defs ><path id="B" d="M13.758 37.113h6.383v4.368h-6.383z"/></defs></svg>