<svg xmlns="http://www.w3.org/2000/svg" width="300" height="310" viewBox="0 0 79.375 82.021" xmlns:v="https://vecta.io/nano"><style><![CDATA[.P{fill:#e6e6e6}.Q{font-style:italic}.R{font-weight:bold}.S{font-size:7.408px}.T{font-family:sans-serif}.U{font-weight:400}.V{font-style:normal}.W{font-family:Courier New}]]></style><g class="P"><path d="M3.44 2.646h.672v38.637H3.44z"/><path d="M3.868 40.597h70.218v.736H3.868z"/></g><path d="M4.926 28.577h6.383v11.891H4.926zm8.258 9.609h6.383v2.405h-6.383zm8.731-4.978h6.383v7.311h-6.383zm8.257 3.067h6.383v4.368h-6.383zm8.941-7.902h6.383v12.218h-6.383zm8.257 3.385h6.383v8.62H47.37zm8.731-1.698h6.383v10.582h-6.383zm8.258 6.002h6.383v4.368h-6.383z" fill="#666"/><text xml:space="preserve" x="3.431" y="47.372" class="P Q R S T"><tspan x="3.431" y="47.372" font-weight="normal" class="V W">9am</tspan></text><text xml:space="preserve" x="20.92" y="47.486" class="P Q R S T"><tspan x="20.92" y="47.486" font-weight="normal" class="V W">11am</tspan></text><text xml:space="preserve" x="43.58" y="47.49" class="P Q R S T"><tspan x="43.58" y="47.49" font-weight="normal" class="V W">1pm</tspan></text><text xml:space="preserve" x="61.042" y="47.368" class="P Q R S T"><tspan x="61.042" y="47.368" font-weight="normal" class="V W">3pm</tspan></text><path d="M5.087 24.013a2.41 2.41 0 0 0 .284.076l.321.055.773.072 2.038.041 5.242-.157 5.039-.186 1.754.003.543.04.153.026c.038.009.044.013.03.007l.595.3 1.598.915c.617.356 1.428.805 2.366 1.101a1.56 1.56 0 0 0 .38.066 2.55 2.55 0 0 0 .38-.009 5.2 5.2 0 0 0 .791-.15l.842-.251.857-.288.815-.263.698-.176c.207-.039.362-.05.469-.041a.35.35 0 0 1 .093.017c.251.235.539.419.86.589l1.001.481c.287.136.587.218.892.26a4.4 4.4 0 0 0 .91.023c.595-.041 1.207-.177 1.791-.313l1.671-.338a4.45 4.45 0 0 1 .734-.037 2.44 2.44 0 0 1 .633.104l.22.08.284.116.677.271a4.55 4.55 0 0 0 .749.213 2.2 2.2 0 0 0 .396.036 1.42 1.42 0 0 0 .419-.062c.857-.27 1.686-.646 2.478-1.004l2.359-.959c.464-.146.958-.222 1.478-.26l1.631-.039 1.716-.043c.584-.044 1.168-.132 1.737-.312.168-.053.344-.079.53-.081a2.88 2.88 0 0 1 .6.062c.435.087.896.254 1.387.449l1.536.593c.536.178 1.093.312 1.655.312l.67.011.954.028 2.345.066 2.272.013.878-.04.346-.039a2.01 2.01 0 0 0 .299-.065c.344-.108.608-.259.812-.441a1.75 1.75 0 0 0 .428-.583c.086-.186.139-.377.174-.495l.052-.16c.016-.042.028-.064.035-.074-.014.009-.025.012-.015.009a.38.38 0 0 1 .099-.006 1.54 1.54 0 0 1 .254.036 6.5 6.5 0 0 1 .969.314l1.632.719c.256.121.567.023.695-.219s.024-.537-.232-.658l-1.699-.748c-.435-.171-.817-.297-1.14-.365a2.71 2.71 0 0 0-.438-.059 1.45 1.45 0 0 0-.403.037c-.13.032-.253.086-.361.166a.98.98 0 0 0-.243.258 1.34 1.34 0 0 0-.128.257l-.075.227-.126.368a.77.77 0 0 1-.189.262c-.082.073-.212.156-.43.225a.85.85 0 0 1-.135.027l-.272.03-.811.036c-.622.013-1.394.005-2.226-.013l-2.334-.066-.96-.028-.698-.012c-.395 0-.826-.095-1.311-.256l-1.479-.572c-.496-.197-1.036-.397-1.574-.504a3.99 3.99 0 0 0-.827-.082c-.28.003-.563.042-.845.131-.465.147-.961.225-1.491.264l-1.635.04-1.712.042c-.575.042-1.156.128-1.726.308-.854.269-1.677.642-2.478 1.004l-2.359.959c-.015.005-.046.011-.098.012a1.12 1.12 0 0 1-.198-.02 3.56 3.56 0 0 1-.567-.164l-.633-.254-.304-.124-.289-.104c-.301-.095-.609-.141-.914-.154s-.614.007-.916.044c-.599.075-1.221.227-1.783.358-.59.137-1.123.253-1.62.287-.247.017-.475.013-.684-.016a1.97 1.97 0 0 1-.578-.167l-.959-.46c-.274-.145-.473-.278-.633-.429a1.05 1.05 0 0 0-.357-.218 1.44 1.44 0 0 0-.378-.08c-.245-.02-.509.009-.759.056-.26.049-.536.122-.81.203l-.852.275-.846.285-.777.232c-.246.064-.453.104-.622.12a1.42 1.42 0 0 1-.212.006c-.058-.003-.094-.011-.115-.018-.818-.258-1.544-.656-2.155-1.008l-1.628-.931-.64-.323a1.23 1.23 0 0 0-.249-.083 2.71 2.71 0 0 0-.258-.045 7.5 7.5 0 0 0-.64-.048l-1.821-.003-5.063.187-5.203.156c-.837.005-1.477-.009-1.966-.039l-.688-.064-.246-.042-.162-.042c-.27-.091-.566.042-.662.297s.044.536.314.627z" fill="green"/><g fill="#999"><path d="M2.91 53.778h1.008v23.854H2.91zm70.155-.068h.672v23.518h-.672z"/><path d="M3.673 53.71h70.218v.736H3.673zm0 23.019h70.218v.736H3.673z"/></g><path d="M6.583 67.733h6.383v4.368H6.583z" fill="#666"/><text xml:space="preserve" x="16.172" y="62.521" class="P Q R S T"><tspan x="16.172" y="62.521" font-weight="normal" class="V W">Utilization</tspan></text><text xml:space="preserve" x="16.266" y="72.16" class="P Q R S T"><tspan x="16.266" y="72.16" font-weight="normal" class="V W">Capacity</tspan></text><path d="M6.495 59.988h7.055v1.008H6.495z" fill="#00b900"/></svg>