<svg xmlns="http://www.w3.org/2000/svg" contentStyleType="text/css" height="688" preserveAspectRatio="none" style="background:#FFFFFF" width="365" zoomAndPan="magnify" xmlns:v="https://vecta.io/nano"><style><![CDATA[.B{fill:#000}.C{font-family:Verdana}.D{font-size:13.75px}.E{stroke:#2688d4}.F{stroke-width:1.146}.G{stroke-width:.573}.H{fill:#add1b2}.I{stroke:#181818}.J{fill:#2688d4}]]></style><rect fill="#fff" height="73.049" rx="4.583" width="146.667" x="107.708" y="186.29" class="E G"/><circle cx="123.75" cy="222.814" r="11.458" class="F H I"/><path d="M125.851 227.682q-.47.242-.987.362-.517.121-1.088.121-2.028 0-3.095-1.336-1.067-1.336-1.067-3.86 0-2.531 1.067-3.867 1.068-1.336 3.095-1.336.571 0 1.094.121.524.121.98.363v2.202q-.51-.47-.99-.688-.48-.218-.99-.218-1.088 0-1.642.863-.554.863-.554 2.561 0 1.692.554 2.555.554.863 1.642.863.51 0 .99-.218.48-.218.99-.688z"/><text lengthAdjust="spacing" textLength="26.3542" x="181.615" y="211.572" class="B C D">VPC</text><text lengthAdjust="spacing" textLength="100.8333" x="144.375" y="228.283" class="B C D">(virtual private</text><text lengthAdjust="spacing" textLength="41.25" x="174.167" y="244.993" class="B C D">cloud)</text><rect fill="#fff" height="89.76" rx="4.583" width="129.479" x="228.594" y="592.969" class="E G"/><circle cx="244.635" cy="637.849" r="11.458" class="F H I"/><path d="M246.737 642.716q-.47.242-.987.362-.517.121-1.088.121-2.028 0-3.095-1.336-1.068-1.336-1.068-3.861 0-2.531 1.068-3.867 1.067-1.336 3.095-1.336.571 0 1.094.121.524.121.98.363v2.202q-.51-.47-.99-.688-.48-.218-.99-.218-1.088 0-1.642.863-.554.863-.554 2.561 0 1.692.554 2.555.554.863 1.642.863.51 0 .99-.218.48-.218.99-.688z"/><text lengthAdjust="spacing" textLength="34.375" x="289.896" y="618.251" class="B C D">CIDR</text><text lengthAdjust="spacing" textLength="65.3125" x="274.427" y="634.962" class="B C D">(Classless</text><text lengthAdjust="spacing" textLength="83.6458" x="265.26" y="651.673" class="B C D">Inter-Domai</text><text lengthAdjust="spacing" textLength="58.4375" x="277.865" y="668.383" class="B C D">Routing)</text><rect fill="#fff" height="56.338" rx="4.583" width="118.021" x="10.885" y="397.994" class="E G"/><circle cx="26.927" cy="426.163" r="11.458" class="F H I"/><path d="M29.029 431.031q-.47.242-.987.362-.517.121-1.088.121-2.027 0-3.095-1.336-1.067-1.336-1.067-3.861 0-2.531 1.067-3.867 1.068-1.336 3.095-1.336.571 0 1.094.121.524.121.98.363v2.202q-.51-.47-.99-.688-.48-.218-.99-.218-1.088 0-1.641.863-.554.863-.554 2.561 0 1.692.554 2.555.554.863 1.641.863.51 0 .99-.218.48-.218.99-.688z"/><text lengthAdjust="spacing" textLength="72.1875" x="47.552" y="423.276" class="B C D">Availability</text><text lengthAdjust="spacing" textLength="34.375" x="66.458" y="439.987" class="B C D">Zone</text><rect fill="#fff" height="39.628" rx="4.583" width="91.667" x="135.208" y="8.021" class="E G"/><circle cx="151.25" cy="27.835" r="11.458" class="F H I"/><path d="M153.351 32.702q-.47.242-.987.363-.517.121-1.088.121-2.028 0-3.095-1.336-1.068-1.336-1.068-3.86 0-2.531 1.068-3.867 1.067-1.336 3.095-1.336.571 0 1.094.121.524.121.98.363v2.202q-.51-.47-.99-.688-.48-.218-.99-.218-1.088 0-1.642.863-.554.863-.554 2.561 0 1.692.554 2.555.554.863 1.642.863.51 0 .99-.218.48-.218.99-.688z"/><text lengthAdjust="spacing" textLength="45.8333" x="171.875" y="33.303" class="B C D">Region</text><rect fill="#fff" height="39.628" rx="4.583" width="95.104" x="24.635" y="618.04" class="E G"/><circle cx="40.677" cy="637.853" r="11.458" class="F H I"/><path d="M42.779 642.721q-.47.242-.987.362-.517.121-1.088.121-2.027 0-3.095-1.336-1.068-1.336-1.068-3.861 0-2.531 1.068-3.867 1.068-1.336 3.095-1.336.571 0 1.094.121.524.121.98.363v2.202q-.51-.47-.99-.688-.48-.218-.99-.218-1.088 0-1.642.863-.554.863-.554 2.561 0 1.692.554 2.555.554.863 1.642.863.51 0 .99-.218.48-.218.99-.688z"/><text lengthAdjust="spacing" textLength="49.2708" x="61.302" y="643.322" class="B C D">Subnet</text><g class="E F"><path d="M181.042 47.965v131.06" fill="none"/><use href="#B" class="J"/></g><text lengthAdjust="spacing" textLength="9.1667" x="163.503" y="76.285" class="B C D">1</text><text lengthAdjust="spacing" textLength="9.1667" x="164.18" y="168.359" class="B C D">5</text><g class="E F"><path d="M241.484 259.646v326.196" fill="none"/><use href="#B" x="60.442" y="406.817" class="J"/></g><text lengthAdjust="spacing" textLength="9.1667" x="235.205" y="287.95" class="B C D">1</text><text lengthAdjust="spacing" textLength="9.1667" x="216.293" y="575.073" class="B C D">5</text><g class="E F"><path d="M127.05 638.046h101.188" fill="none"/><path d="M120.175 638.046l10.313 4.583-4.583-4.583 4.583-4.583-10.313 4.583z" class="J"/></g><text lengthAdjust="spacing" textLength="27.5" x="134.548" y="628.405" class="B C D">0..n</text><text lengthAdjust="spacing" textLength="9.1667" x="204.624" y="628.571" class="B C D">1</text><g class="E F"><path d="M118.307 259.646v130.969" fill="none"/><use href="#B" x="-62.735" y="211.59" class="J"/></g><text lengthAdjust="spacing" textLength="43.5417" x="67.891" y="319.475" class="B C D">covers</text><text lengthAdjust="spacing" textLength="9.1667" x="90.857" y="287.95" class="B C D">1</text><text lengthAdjust="spacing" textLength="27.5" x="91.407" y="380.336" class="B C D">0..n</text><g class="E F"><path d="M72.188 454.713v156.074" fill="none"/><use href="#B" x="-108.854" y="431.762" class="J"/></g><text lengthAdjust="spacing" textLength="51.5625" x="13.75" y="527.088" class="B C D">belongs</text><text lengthAdjust="spacing" textLength="9.1667" x="55.637" y="483.059" class="B C D">1</text><text lengthAdjust="spacing" textLength="27.5" x="33.48" y="600.262" class="B C D">0..n</text><defs ><path id="B" d="M181.042 185.9l4.583-10.312-4.583 4.583-4.583-4.583 4.583 10.313z"/></defs></svg>