<svg xmlns="http://www.w3.org/2000/svg" xmlns:xlink="http://www.w3.org/1999/xlink" contentStyleType="text/css" height="688.6458px" preserveAspectRatio="none" style="width:739px;height:688px;background:#FFFFFF;" version="1.1" viewBox="0 0 739 688" width="739.0625px" zoomAndPan="magnify"><defs/><g><!--class VPC--><g id="elem_VPC"><rect codeLine="8" fill="#FFFFFF" height="73.0491" id="VPC" rx="4.5833" ry="4.5833" style="stroke:#2688D4;stroke-width:0.5729166666666666;" width="149.0523" x="306.4287" y="186.2896"/><ellipse cx="322.4703" cy="222.8141" fill="#ADD1B2" rx="11.4583" ry="11.4583" style="stroke:#181818;stroke-width:1.1458333333333333;"/><path d="M324.5718,227.6817 Q324.1018,227.9234 323.5848,228.0442 Q323.0679,228.1651 322.4972,228.1651 Q320.4696,228.1651 319.4021,226.829 Q318.3346,225.493 318.3346,222.9686 Q318.3346,220.4374 319.4021,219.1014 Q320.4696,217.7653 322.4972,217.7653 Q323.0679,217.7653 323.5915,217.8862 Q324.1152,218.007 324.5718,218.2487 L324.5718,220.4509 Q324.0615,219.9809 323.5815,219.7627 Q323.1014,219.5445 322.5912,219.5445 Q321.5035,219.5445 320.9496,220.4072 Q320.3957,221.27 320.3957,222.9686 Q320.3957,224.6605 320.9496,225.5232 Q321.5035,226.3859 322.5912,226.3859 Q323.1014,226.3859 323.5815,226.1677 Q324.0615,225.9495 324.5718,225.4795 Z " fill="#000000"/><text fill="#000000" font-family="Verdana" font-size="13.75" lengthAdjust="spacing" textLength="27.2919" x="381.0589" y="211.5718">VPC</text><text fill="#000000" font-family="Verdana" font-size="13.75" lengthAdjust="spacing" textLength="103.219" x="343.0953" y="228.2826">(virtual private</text><text fill="#000000" font-family="Verdana" font-size="13.75" lengthAdjust="spacing" textLength="42.7942" x="373.3077" y="244.9934">cloud)</text></g><!--class CIDR--><g id="elem_CIDR"><rect codeLine="11" fill="#FFFFFF" height="89.7599" id="CIDR" rx="4.5833" ry="4.5833" style="stroke:#2688D4;stroke-width:0.5729166666666666;" width="130.3878" x="516.2766" y="592.9688"/><ellipse cx="532.3182" cy="637.8487" fill="#ADD1B2" rx="11.4583" ry="11.4583" style="stroke:#181818;stroke-width:1.1458333333333333;"/><path d="M534.4197,642.7163 Q533.9497,642.958 533.4327,643.0788 Q532.9158,643.1997 532.3451,643.1997 Q530.3175,643.1997 529.25,641.8636 Q528.1825,640.5275 528.1825,638.0031 Q528.1825,635.472 529.25,634.1359 Q530.3175,632.7999 532.3451,632.7999 Q532.9158,632.7999 533.4395,632.9207 Q533.9631,633.0416 534.4197,633.2833 L534.4197,635.4854 Q533.9094,635.0155 533.4294,634.7973 Q532.9493,634.5791 532.4391,634.5791 Q531.3514,634.5791 530.7976,635.4418 Q530.2437,636.3045 530.2437,638.0031 Q530.2437,639.695 530.7976,640.5578 Q531.3514,641.4205 532.4391,641.4205 Q532.9493,641.4205 533.4294,641.2023 Q533.9094,640.9841 534.4197,640.5141 Z " fill="#000000"/><text fill="#000000" font-family="Verdana" font-size="13.75" lengthAdjust="spacing" textLength="35.5432" x="577.4489" y="618.2509">CIDR</text><text fill="#000000" font-family="Verdana" font-size="13.75" lengthAdjust="spacing" textLength="68.4949" x="560.973" y="634.9618">(Classless</text><text fill="#000000" font-family="Verdana" font-size="13.75" lengthAdjust="spacing" textLength="84.5544" x="552.9432" y="651.6726">Inter-Domai</text><text fill="#000000" font-family="Verdana" font-size="13.75" lengthAdjust="spacing" textLength="59.3103" x="565.5653" y="668.3834">Routing)</text></g><!--class AvZone--><g id="elem_AvZone"><rect codeLine="14" fill="#FFFFFF" height="56.3383" id="AvZone" rx="4.5833" ry="4.5833" style="stroke:#2688D4;stroke-width:0.5729166666666666;" width="120.8742" x="298.7401" y="397.9938"/><ellipse cx="314.7818" cy="426.1629" fill="#ADD1B2" rx="11.4583" ry="11.4583" style="stroke:#181818;stroke-width:1.1458333333333333;"/><path d="M316.8832,431.0305 Q316.4133,431.2722 315.8963,431.393 Q315.3793,431.5139 314.8086,431.5139 Q312.7811,431.5139 311.7135,430.1778 Q310.646,428.8417 310.646,426.3173 Q310.646,423.7862 311.7135,422.4501 Q312.7811,421.1141 314.8086,421.1141 Q315.3793,421.1141 315.903,421.2349 Q316.4267,421.3558 316.8832,421.5975 L316.8832,423.7996 Q316.373,423.3296 315.8929,423.1114 Q315.4129,422.8932 314.9026,422.8932 Q313.815,422.8932 313.2611,423.756 Q312.7072,424.6187 312.7072,426.3173 Q312.7072,428.0092 313.2611,428.8719 Q313.815,429.7347 314.9026,429.7347 Q315.4129,429.7347 315.8929,429.5165 Q316.373,429.2983 316.8832,428.8283 Z " fill="#000000"/><text fill="#000000" font-family="Verdana" font-size="13.75" lengthAdjust="spacing" textLength="75.0409" x="335.4068" y="423.2759">Availability</text><text fill="#000000" font-family="Verdana" font-size="13.75" lengthAdjust="spacing" textLength="34.657" x="355.5987" y="439.9868">Zone</text></g><!--class igw--><g id="elem_igw"><rect codeLine="17" fill="#FFFFFF" height="56.3383" id="igw" rx="4.5833" ry="4.5833" style="stroke:#2688D4;stroke-width:0.5729166666666666;" width="167.1193" x="564.3787" y="194.6542"/><ellipse cx="580.4203" cy="222.8233" fill="#ADD1B2" rx="11.4583" ry="11.4583" style="stroke:#181818;stroke-width:1.1458333333333333;"/><path d="M582.5218,227.6909 Q582.0518,227.9326 581.5348,228.0534 Q581.0179,228.1743 580.4472,228.1743 Q578.4196,228.1743 577.3521,226.8382 Q576.2846,225.5021 576.2846,222.9777 Q576.2846,220.4466 577.3521,219.1105 Q578.4196,217.7745 580.4472,217.7745 Q581.0179,217.7745 581.5415,217.8953 Q582.0652,218.0162 582.5218,218.2579 L582.5218,220.46 Q582.0115,219.9901 581.5315,219.7719 Q581.0514,219.5537 580.5412,219.5537 Q579.4535,219.5537 578.8996,220.4164 Q578.3457,221.2791 578.3457,222.9777 Q578.3457,224.6696 578.8996,225.5324 Q579.4535,226.3951 580.5412,226.3951 Q581.0514,226.3951 581.5315,226.1769 Q582.0115,225.9587 582.5218,225.4887 Z " fill="#000000"/><text fill="#000000" font-family="Verdana" font-size="13.75" lengthAdjust="spacing" textLength="121.286" x="601.0453" y="219.9364">Internet Gateway</text><text fill="#000000" font-family="Verdana" font-size="13.75" lengthAdjust="spacing" textLength="42.5323" x="640.4222" y="236.6472">(IGW)</text></g><!--class rt--><g id="elem_rt"><rect codeLine="20" fill="#FFFFFF" height="39.6275" id="rt" rx="4.5833" ry="4.5833" style="stroke:#2688D4;stroke-width:0.5729166666666666;" width="125.0905" x="72.0599" y="203.0073"/><ellipse cx="88.1016" cy="222.821" fill="#ADD1B2" rx="11.4583" ry="11.4583" style="stroke:#181818;stroke-width:1.1458333333333333;"/><path d="M90.203,227.6886 Q89.733,227.9303 89.2161,228.0511 Q88.6991,228.172 88.1284,228.172 Q86.1008,228.172 85.0333,226.8359 Q83.9658,225.4999 83.9658,222.9755 Q83.9658,220.4443 85.0333,219.1083 Q86.1008,217.7722 88.1284,217.7722 Q88.6991,217.7722 89.2228,217.8931 Q89.7465,218.0139 90.203,218.2556 L90.203,220.4578 Q89.6928,219.9878 89.2127,219.7696 Q88.7327,219.5514 88.2224,219.5514 Q87.1348,219.5514 86.5809,220.4141 Q86.027,221.2768 86.027,222.9755 Q86.027,224.6673 86.5809,225.5301 Q87.1348,226.3928 88.2224,226.3928 Q88.7327,226.3928 89.2127,226.1746 Q89.6928,225.9564 90.203,225.4864 Z " fill="#000000"/><text fill="#000000" font-family="Verdana" font-size="13.75" lengthAdjust="spacing" textLength="79.2572" x="108.7266" y="228.2895">Route table</text></g><!--class Region--><g id="elem_Region"><rect fill="#FFFFFF" height="39.6275" id="Region" rx="4.5833" ry="4.5833" style="stroke:#2688D4;stroke-width:0.5729166666666666;" width="92.9714" x="334.4672" y="8.0208"/><ellipse cx="350.5089" cy="27.8346" fill="#ADD1B2" rx="11.4583" ry="11.4583" style="stroke:#181818;stroke-width:1.1458333333333333;"/><path d="M352.6103,32.7021 Q352.1403,32.9438 351.6234,33.0647 Q351.1064,33.1855 350.5357,33.1855 Q348.5081,33.1855 347.4406,31.8495 Q346.3731,30.5134 346.3731,27.989 Q346.3731,25.4579 347.4406,24.1218 Q348.5081,22.7857 350.5357,22.7857 Q351.1064,22.7857 351.6301,22.9066 Q352.1538,23.0274 352.6103,23.2691 L352.6103,25.4713 Q352.1001,25.0013 351.62,24.7831 Q351.14,24.5649 350.6297,24.5649 Q349.5421,24.5649 348.9882,25.4277 Q348.4343,26.2904 348.4343,27.989 Q348.4343,29.6809 348.9882,30.5436 Q349.5421,31.4064 350.6297,31.4064 Q351.14,31.4064 351.62,31.1882 Q352.1001,30.97 352.6103,30.5 Z " fill="#000000"/><text fill="#000000" font-family="Verdana" font-size="13.75" lengthAdjust="spacing" textLength="47.1381" x="371.1339" y="33.303">Region</text></g><!--class Subnet--><g id="elem_Subnet"><rect fill="#FFFFFF" height="39.6275" id="Subnet" rx="4.5833" ry="4.5833" style="stroke:#2688D4;stroke-width:0.5729166666666666;" width="94.811" x="311.7797" y="618.0396"/><ellipse cx="327.8214" cy="637.8533" fill="#ADD1B2" rx="11.4583" ry="11.4583" style="stroke:#181818;stroke-width:1.1458333333333333;"/><path d="M329.9228,642.7209 Q329.4528,642.9626 328.9359,643.0834 Q328.4189,643.2043 327.8482,643.2043 Q325.8206,643.2043 324.7531,641.8682 Q323.6856,640.5322 323.6856,638.0077 Q323.6856,635.4766 324.7531,634.1406 Q325.8206,632.8045 327.8482,632.8045 Q328.4189,632.8045 328.9426,632.9253 Q329.4663,633.0462 329.9228,633.2879 L329.9228,635.49 Q329.4126,635.0201 328.9325,634.8019 Q328.4525,634.5837 327.9422,634.5837 Q326.8546,634.5837 326.3007,635.4464 Q325.7468,636.3091 325.7468,638.0077 Q325.7468,639.6996 326.3007,640.5624 Q326.8546,641.4251 327.9422,641.4251 Q328.4525,641.4251 328.9325,641.2069 Q329.4126,640.9887 329.9228,640.5187 Z " fill="#000000"/><text fill="#000000" font-family="Verdana" font-size="13.75" lengthAdjust="spacing" textLength="48.9777" x="348.4464" y="643.3218">Subnet</text></g><!--link Region to VPC--><g id="link_Region_VPC"><path codeLine="23" d="M380.9537,47.9646 C380.9537,80.4604 380.9537,144.9708 380.9537,185.9 " fill="none" id="Region-VPC" style="stroke:#2688D4;stroke-width:1.1458333333333333;"/><text fill="#000000" font-family="Verdana" font-size="13.75" lengthAdjust="spacing" textLength="8.7415" x="364.8004" y="76.2851">1</text><text fill="#000000" font-family="Verdana" font-size="13.75" lengthAdjust="spacing" textLength="8.7415" x="365.4155" y="168.3589">5</text></g><!--link VPC to CIDR--><g id="link_VPC_CIDR"><path codeLine="24" d="M455.9714,255.1656 C497.313,255.1656 540.3276,255.1656 540.3276,255.1656 C540.3276,255.1656 540.3276,491.0813 540.3276,592.4531 " fill="none" id="VPC-CIDR" style="stroke:#2688D4;stroke-width:1.1458333333333333;"/><text fill="#000000" font-family="Verdana" font-size="13.75" lengthAdjust="spacing" textLength="8.7415" x="470.4782" y="249.1714">1</text><text fill="#000000" font-family="Verdana" font-size="13.75" lengthAdjust="spacing" textLength="8.7415" x="518.5257" y="575.1331">5</text></g><!--link Subnet to CIDR--><g id="link_Subnet_CIDR"><path codeLine="25" d="M406.8724,637.851 C438.6349,637.851 480.8016,637.851 515.738,637.851 " fill="none" id="Subnet-CIDR" style="stroke:#2688D4;stroke-width:1.1458333333333333;"/><text fill="#000000" font-family="Verdana" font-size="13.75" lengthAdjust="spacing" textLength="27.4463" x="421.6234" y="628.1011">0..n</text><text fill="#000000" font-family="Verdana" font-size="13.75" lengthAdjust="spacing" textLength="8.7415" x="492.8338" y="628.2693">1</text></g><!--link VPC to AvZone--><g id="link_VPC_AvZone"><path codeLine="26" d="M363.0214,259.6458 C363.0214,299.2458 363.0214,361.3615 363.0214,397.4896 " fill="none" id="VPC-AvZone" style="stroke:#2688D4;stroke-width:1.1458333333333333;"/><polygon fill="#000000" points="295.4172,318.5898,298.1112,310.2985,292.7232,310.2985,295.4172,318.5898" style="stroke:#000000;stroke-width:1.1458333333333333;"/><text fill="#000000" font-family="Verdana" font-size="13.75" lengthAdjust="spacing" textLength="44.8688" x="311.4589" y="319.4749">covers</text><text fill="#000000" font-family="Verdana" font-size="13.75" lengthAdjust="spacing" textLength="8.7415" x="344.577" y="287.9501">1</text><text fill="#000000" font-family="Verdana" font-size="13.75" lengthAdjust="spacing" textLength="27.4463" x="327.7626" y="380.3357">0..n</text></g><!--link AvZone to Subnet--><g id="link_AvZone_Subnet"><path codeLine="27" d="M359.1828,454.7125 C359.1828,498.1625 359.1828,579.826 359.1828,617.6615 " fill="none" id="AvZone-Subnet" style="stroke:#2688D4;stroke-width:1.1458333333333333;"/><polygon fill="#000000" points="283.5578,517.0367,280.8638,525.328,286.2518,525.328,283.5578,517.0367" style="stroke:#000000;stroke-width:1.1458333333333333;"/><text fill="#000000" font-family="Verdana" font-size="13.75" lengthAdjust="spacing" textLength="53.3081" x="299.5995" y="527.0884">belongs</text><text fill="#000000" font-family="Verdana" font-size="13.75" lengthAdjust="spacing" textLength="8.7415" x="343.4995" y="483.0588">1</text><text fill="#000000" font-family="Verdana" font-size="13.75" lengthAdjust="spacing" textLength="27.4463" x="321.935" y="600.2624">0..n</text></g><!--link VPC to igw--><g id="link_VPC_igw"><path codeLine="28" d="M456.0287,222.8188 C489.6589,222.8188 529.4307,222.8188 564.0349,222.8188 " fill="none" id="VPC-igw" style="stroke:#2688D4;stroke-width:1.1458333333333333;"/><text fill="#000000" font-family="Verdana" font-size="13.75" lengthAdjust="spacing" textLength="8.7415" x="470.5414" y="213.4888">1</text><text fill="#000000" font-family="Verdana" font-size="13.75" lengthAdjust="spacing" textLength="8.7415" x="540.6651" y="213.4878">1</text></g><!--link rt to VPC--><g id="link_rt_VPC"><path codeLine="29" d="M197.4026,222.8188 C230.4714,222.8188 271.263,222.8188 305.9818,222.8188 " fill="none" id="rt-VPC" style="stroke:#2688D4;stroke-width:1.1458333333333333;"/><text fill="#000000" font-family="Verdana" font-size="13.75" lengthAdjust="spacing" textLength="8.7012" x="212.0137" y="213.2365">n</text><text fill="#000000" font-family="Verdana" font-size="13.75" lengthAdjust="spacing" textLength="8.7415" x="283.0058" y="213.405">1</text></g><!--link rt to Subnet--><g id="link_rt_Subnet"><path codeLine="30" d="M134.5995,242.8365 C134.5995,325.7375 134.5995,637.851 134.5995,637.851 C134.5995,637.851 245.6307,637.851 311.5505,637.851 " fill="none" id="rt-Subnet" style="stroke:#2688D4;stroke-width:1.1458333333333333;"/><polygon fill="#000000" points="24.1816,489.8007,23.2505,481.1326,18.3333,483.3353,24.1816,489.8007" style="stroke:#000000;stroke-width:1.1458333333333333;"/><text fill="#000000" font-family="Verdana" font-size="13.75" lengthAdjust="spacing" textLength="90.7782" x="37.2037" y="491.0864">define routes</text><text fill="#000000" font-family="Verdana" font-size="13.75" lengthAdjust="spacing" textLength="79.4519" x="35.9918" y="519.2555">for multiple</text><text fill="#000000" font-family="Verdana" font-size="13.75" lengthAdjust="spacing" textLength="8.7415" x="118.3273" y="271.5539">1</text><text fill="#000000" font-family="Verdana" font-size="13.75" lengthAdjust="spacing" textLength="8.7012" x="288.3543" y="627.6818">n</text></g><!--SRC=[PLBFIyCm5BxdhtZsuZoqReST51761cCtcQ0WlQJjMmrBNqhosZ74_zsagRfgJidtAzzBUwMer5s5a6MtZiyQixPhj717HQsqiW6j2FdS8XZBx-Q285EXmnRkbkBw5xMIZW5TpEU2JGjie33Cfe5AMInP6HAYrD8vI5wUrZdDUcMvanfQgth9cFi-fgjk4f0El08-nEUFOxtRxBrb7KuQdSjfHumstPX6gfpsfcD5TVG6xSIywgNIib1QyJcdDqCuw5Pzs4wKGwWV6xQ-q4bwzMotVOsngZvDjE5E19Q5Zd6M8xt7siyAoIA1D4qXMIPX6X4cykiI3aN5q7R4TI3cMKO9F7U5x_7F5Scn-JqyGcbwj4wCo1zT3F6w1oXG6whT9D2cSUCdc-133M-tBCQ4mD0timZCS7c51_-JW0qluJ_9mLXeEisgrIY-0000]--></g></svg>