<svg xmlns="http://www.w3.org/2000/svg" xmlns:xlink="http://www.w3.org/1999/xlink" contentStyleType="text/css" height="688.6458px" preserveAspectRatio="none" style="width:674px;height:688px;background:#FFFFFF;" version="1.1" viewBox="0 0 674 688" width="674.8958px" zoomAndPan="magnify"><defs/><g><!--class VPC--><g id="elem_VPC"><rect codeLine="8" fill="#FFFFFF" height="73.0491" id="VPC" rx="4.5833" ry="4.5833" style="stroke:#2688D4;stroke-width:0.5729166666666666;" width="149.0523" x="242.3896" y="186.2896"/><ellipse cx="258.4313" cy="222.8141" fill="#ADD1B2" rx="11.4583" ry="11.4583" style="stroke:#181818;stroke-width:1.1458333333333333;"/><path d="M260.5327,227.6817 Q260.0627,227.9234 259.5458,228.0442 Q259.0288,228.1651 258.4581,228.1651 Q256.4305,228.1651 255.363,226.829 Q254.2955,225.493 254.2955,222.9686 Q254.2955,220.4374 255.363,219.1014 Q256.4305,217.7653 258.4581,217.7653 Q259.0288,217.7653 259.5525,217.8862 Q260.0761,218.007 260.5327,218.2487 L260.5327,220.4509 Q260.0224,219.9809 259.5424,219.7627 Q259.0624,219.5445 258.5521,219.5445 Q257.4645,219.5445 256.9106,220.4072 Q256.3567,221.27 256.3567,222.9686 Q256.3567,224.6605 256.9106,225.5232 Q257.4645,226.3859 258.5521,226.3859 Q259.0624,226.3859 259.5424,226.1677 Q260.0224,225.9495 260.5327,225.4795 Z " fill="#000000"/><text fill="#000000" font-family="Verdana" font-size="13.75" lengthAdjust="spacing" textLength="27.2919" x="317.0198" y="211.5718">VPC</text><text fill="#000000" font-family="Verdana" font-size="13.75" lengthAdjust="spacing" textLength="103.219" x="279.0563" y="228.2826">(virtual private</text><text fill="#000000" font-family="Verdana" font-size="13.75" lengthAdjust="spacing" textLength="42.7942" x="309.2687" y="244.9934">cloud)</text></g><!--class CIDR--><g id="elem_CIDR"><rect codeLine="11" fill="#FFFFFF" height="89.7599" id="CIDR" rx="4.5833" ry="4.5833" style="stroke:#2688D4;stroke-width:0.5729166666666666;" width="130.3878" x="452.249" y="592.9688"/><ellipse cx="468.2906" cy="637.8487" fill="#ADD1B2" rx="11.4583" ry="11.4583" style="stroke:#181818;stroke-width:1.1458333333333333;"/><path d="M470.3921,642.7163 Q469.9221,642.958 469.4051,643.0788 Q468.8882,643.1997 468.3175,643.1997 Q466.2899,643.1997 465.2224,641.8636 Q464.1549,640.5275 464.1549,638.0031 Q464.1549,635.472 465.2224,634.1359 Q466.2899,632.7999 468.3175,632.7999 Q468.8882,632.7999 469.4118,632.9207 Q469.9355,633.0416 470.3921,633.2833 L470.3921,635.4854 Q469.8818,635.0155 469.4018,634.7973 Q468.9217,634.5791 468.4115,634.5791 Q467.3238,634.5791 466.7699,635.4418 Q466.216,636.3045 466.216,638.0031 Q466.216,639.695 466.7699,640.5578 Q467.3238,641.4205 468.4115,641.4205 Q468.9217,641.4205 469.4018,641.2023 Q469.8818,640.9841 470.3921,640.5141 Z " fill="#000000"/><text fill="#000000" font-family="Verdana" font-size="13.75" lengthAdjust="spacing" textLength="35.5432" x="513.4212" y="618.2509">CIDR</text><text fill="#000000" font-family="Verdana" font-size="13.75" lengthAdjust="spacing" textLength="68.4949" x="496.9454" y="634.9618">(Classless</text><text fill="#000000" font-family="Verdana" font-size="13.75" lengthAdjust="spacing" textLength="84.5544" x="488.9156" y="651.6726">Inter-Domai</text><text fill="#000000" font-family="Verdana" font-size="13.75" lengthAdjust="spacing" textLength="59.3103" x="501.5377" y="668.3834">Routing)</text></g><!--class AvZone--><g id="elem_AvZone"><rect codeLine="14" fill="#FFFFFF" height="56.3383" id="AvZone" rx="4.5833" ry="4.5833" style="stroke:#2688D4;stroke-width:0.5729166666666666;" width="120.8742" x="234.7125" y="397.9938"/><ellipse cx="250.7542" cy="426.1629" fill="#ADD1B2" rx="11.4583" ry="11.4583" style="stroke:#181818;stroke-width:1.1458333333333333;"/><path d="M252.8556,431.0305 Q252.3856,431.2722 251.8687,431.393 Q251.3517,431.5139 250.781,431.5139 Q248.7534,431.5139 247.6859,430.1778 Q246.6184,428.8417 246.6184,426.3173 Q246.6184,423.7862 247.6859,422.4501 Q248.7534,421.1141 250.781,421.1141 Q251.3517,421.1141 251.8754,421.2349 Q252.3991,421.3558 252.8556,421.5975 L252.8556,423.7996 Q252.3454,423.3296 251.8653,423.1114 Q251.3853,422.8932 250.875,422.8932 Q249.7874,422.8932 249.2335,423.756 Q248.6796,424.6187 248.6796,426.3173 Q248.6796,428.0092 249.2335,428.8719 Q249.7874,429.7347 250.875,429.7347 Q251.3853,429.7347 251.8653,429.5165 Q252.3454,429.2983 252.8556,428.8283 Z " fill="#000000"/><text fill="#000000" font-family="Verdana" font-size="13.75" lengthAdjust="spacing" textLength="75.0409" x="271.3792" y="423.2759">Availability</text><text fill="#000000" font-family="Verdana" font-size="13.75" lengthAdjust="spacing" textLength="34.657" x="291.5711" y="439.9868">Zone</text></g><!--class igw--><g id="elem_igw"><rect codeLine="17" fill="#FFFFFF" height="56.3383" id="igw" rx="4.5833" ry="4.5833" style="stroke:#2688D4;stroke-width:0.5729166666666666;" width="167.1193" x="500.3396" y="194.6542"/><ellipse cx="516.3813" cy="222.8233" fill="#ADD1B2" rx="11.4583" ry="11.4583" style="stroke:#181818;stroke-width:1.1458333333333333;"/><path d="M518.4827,227.6909 Q518.0127,227.9326 517.4958,228.0534 Q516.9788,228.1743 516.4081,228.1743 Q514.3805,228.1743 513.313,226.8382 Q512.2455,225.5021 512.2455,222.9777 Q512.2455,220.4466 513.313,219.1105 Q514.3805,217.7745 516.4081,217.7745 Q516.9788,217.7745 517.5025,217.8953 Q518.0261,218.0162 518.4827,218.2579 L518.4827,220.46 Q517.9724,219.9901 517.4924,219.7719 Q517.0124,219.5537 516.5021,219.5537 Q515.4145,219.5537 514.8606,220.4164 Q514.3067,221.2791 514.3067,222.9777 Q514.3067,224.6696 514.8606,225.5324 Q515.4145,226.3951 516.5021,226.3951 Q517.0124,226.3951 517.4924,226.1769 Q517.9724,225.9587 518.4827,225.4887 Z " fill="#000000"/><text fill="#000000" font-family="Verdana" font-size="13.75" lengthAdjust="spacing" textLength="121.286" x="537.0063" y="219.9364">Internet Gateway</text><text fill="#000000" font-family="Verdana" font-size="13.75" lengthAdjust="spacing" textLength="42.5323" x="576.3831" y="236.6472">(IGW)</text></g><!--class rt--><g id="elem_rt"><rect codeLine="20" fill="#FFFFFF" height="39.6275" id="rt" rx="4.5833" ry="4.5833" style="stroke:#2688D4;stroke-width:0.5729166666666666;" width="125.0905" x="8.0208" y="203.0073"/><ellipse cx="24.0625" cy="222.821" fill="#ADD1B2" rx="11.4583" ry="11.4583" style="stroke:#181818;stroke-width:1.1458333333333333;"/><path d="M26.1639,227.6886 Q25.694,227.9303 25.177,228.0511 Q24.66,228.172 24.0894,228.172 Q22.0618,228.172 20.9943,226.8359 Q19.9268,225.4999 19.9268,222.9755 Q19.9268,220.4443 20.9943,219.1083 Q22.0618,217.7722 24.0894,217.7722 Q24.66,217.7722 25.1837,217.8931 Q25.7074,218.0139 26.1639,218.2556 L26.1639,220.4578 Q25.6537,219.9878 25.1736,219.7696 Q24.6936,219.5514 24.1833,219.5514 Q23.0957,219.5514 22.5418,220.4141 Q21.9879,221.2768 21.9879,222.9755 Q21.9879,224.6673 22.5418,225.5301 Q23.0957,226.3928 24.1833,226.3928 Q24.6936,226.3928 25.1736,226.1746 Q25.6537,225.9564 26.1639,225.4864 Z " fill="#000000"/><text fill="#000000" font-family="Verdana" font-size="13.75" lengthAdjust="spacing" textLength="79.2572" x="44.6875" y="228.2895">Route table</text></g><!--class Region--><g id="elem_Region"><rect fill="#FFFFFF" height="39.6275" id="Region" rx="4.5833" ry="4.5833" style="stroke:#2688D4;stroke-width:0.5729166666666666;" width="92.9714" x="270.4396" y="8.0208"/><ellipse cx="286.4813" cy="27.8346" fill="#ADD1B2" rx="11.4583" ry="11.4583" style="stroke:#181818;stroke-width:1.1458333333333333;"/><path d="M288.5827,32.7021 Q288.1127,32.9438 287.5958,33.0647 Q287.0788,33.1855 286.5081,33.1855 Q284.4805,33.1855 283.413,31.8495 Q282.3455,30.5134 282.3455,27.989 Q282.3455,25.4579 283.413,24.1218 Q284.4805,22.7857 286.5081,22.7857 Q287.0788,22.7857 287.6025,22.9066 Q288.1261,23.0274 288.5827,23.2691 L288.5827,25.4713 Q288.0724,25.0013 287.5924,24.7831 Q287.1124,24.5649 286.6021,24.5649 Q285.5145,24.5649 284.9606,25.4277 Q284.4067,26.2904 284.4067,27.989 Q284.4067,29.6809 284.9606,30.5436 Q285.5145,31.4064 286.6021,31.4064 Q287.1124,31.4064 287.5924,31.1882 Q288.0724,30.97 288.5827,30.5 Z " fill="#000000"/><text fill="#000000" font-family="Verdana" font-size="13.75" lengthAdjust="spacing" textLength="47.1381" x="307.1062" y="33.303">Region</text></g><!--class Subnet--><g id="elem_Subnet"><rect fill="#FFFFFF" height="39.6275" id="Subnet" rx="4.5833" ry="4.5833" style="stroke:#2688D4;stroke-width:0.5729166666666666;" width="94.811" x="247.7406" y="618.0396"/><ellipse cx="263.7823" cy="637.8533" fill="#ADD1B2" rx="11.4583" ry="11.4583" style="stroke:#181818;stroke-width:1.1458333333333333;"/><path d="M265.8837,642.7209 Q265.4138,642.9626 264.8968,643.0834 Q264.3798,643.2043 263.8091,643.2043 Q261.7816,643.2043 260.7141,641.8682 Q259.6465,640.5322 259.6465,638.0077 Q259.6465,635.4766 260.7141,634.1406 Q261.7816,632.8045 263.8091,632.8045 Q264.3798,632.8045 264.9035,632.9253 Q265.4272,633.0462 265.8837,633.2879 L265.8837,635.49 Q265.3735,635.0201 264.8934,634.8019 Q264.4134,634.5837 263.9031,634.5837 Q262.8155,634.5837 262.2616,635.4464 Q261.7077,636.3091 261.7077,638.0077 Q261.7077,639.6996 262.2616,640.5624 Q262.8155,641.4251 263.9031,641.4251 Q264.4134,641.4251 264.8934,641.2069 Q265.3735,640.9887 265.8837,640.5187 Z " fill="#000000"/><text fill="#000000" font-family="Verdana" font-size="13.75" lengthAdjust="spacing" textLength="48.9777" x="284.4073" y="643.3218">Subnet</text></g><!--link Region to VPC--><g id="link_Region_VPC"><path codeLine="23" d="M316.9146,47.9646 C316.9146,80.4604 316.9146,144.9708 316.9146,185.9 " fill="none" id="Region-VPC" style="stroke:#2688D4;stroke-width:1.1458333333333333;"/><text fill="#000000" font-family="Verdana" font-size="13.75" lengthAdjust="spacing" textLength="8.7415" x="300.7584" y="76.2851">1</text><text fill="#000000" font-family="Verdana" font-size="13.75" lengthAdjust="spacing" textLength="8.7415" x="301.3764" y="168.3589">5</text></g><!--link VPC to CIDR--><g id="link_VPC_CIDR"><path codeLine="24" d="M391.9437,255.1656 C433.274,255.1656 476.2885,255.1656 476.2885,255.1656 C476.2885,255.1656 476.2885,491.0813 476.2885,592.4531 " fill="none" id="VPC-CIDR" style="stroke:#2688D4;stroke-width:1.1458333333333333;"/><text fill="#000000" font-family="Verdana" font-size="13.75" lengthAdjust="spacing" textLength="8.7415" x="406.4517" y="249.1714">1</text><text fill="#000000" font-family="Verdana" font-size="13.75" lengthAdjust="spacing" textLength="8.7415" x="454.4848" y="575.1331">5</text></g><!--link Subnet to CIDR--><g id="link_Subnet_CIDR"><path codeLine="25" d="M342.8333,637.851 C374.6073,637.851 416.7625,637.851 451.699,637.851 " fill="none" id="Subnet-CIDR" style="stroke:#2688D4;stroke-width:1.1458333333333333;"/><text fill="#000000" font-family="Verdana" font-size="13.75" lengthAdjust="spacing" textLength="27.4463" x="357.5844" y="628.1011">0..n</text><text fill="#000000" font-family="Verdana" font-size="13.75" lengthAdjust="spacing" textLength="8.7415" x="428.7933" y="628.2693">1</text></g><!--link VPC to AvZone--><g id="link_VPC_AvZone"><path codeLine="26" d="M298.9938,259.6458 C298.9938,299.2458 298.9938,361.3615 298.9938,397.4896 " fill="none" id="VPC-AvZone" style="stroke:#2688D4;stroke-width:1.1458333333333333;"/><polygon fill="#000000" points="231.3896,318.5898,234.0836,310.2985,228.6956,310.2985,231.3896,318.5898" style="stroke:#000000;stroke-width:1.1458333333333333;"/><text fill="#000000" font-family="Verdana" font-size="13.75" lengthAdjust="spacing" textLength="44.8688" x="247.4312" y="319.4749">covers</text><text fill="#000000" font-family="Verdana" font-size="13.75" lengthAdjust="spacing" textLength="8.7415" x="280.5513" y="287.9501">1</text><text fill="#000000" font-family="Verdana" font-size="13.75" lengthAdjust="spacing" textLength="27.4463" x="263.735" y="380.3357">0..n</text></g><!--link AvZone to Subnet--><g id="link_AvZone_Subnet"><path codeLine="27" d="M295.1438,454.7125 C295.1438,498.1625 295.1438,579.826 295.1438,617.6615 " fill="none" id="AvZone-Subnet" style="stroke:#2688D4;stroke-width:1.1458333333333333;"/><polygon fill="#000000" points="219.5188,517.0367,216.8247,525.328,222.2128,525.328,219.5188,517.0367" style="stroke:#000000;stroke-width:1.1458333333333333;"/><text fill="#000000" font-family="Verdana" font-size="13.75" lengthAdjust="spacing" textLength="53.3081" x="235.5604" y="527.0884">belongs</text><text fill="#000000" font-family="Verdana" font-size="13.75" lengthAdjust="spacing" textLength="8.7415" x="279.4581" y="483.0588">1</text><text fill="#000000" font-family="Verdana" font-size="13.75" lengthAdjust="spacing" textLength="27.4463" x="257.8959" y="600.2624">0..n</text></g><!--link VPC to igw--><g id="link_VPC_igw"><path codeLine="28" d="M392.001,222.8188 C425.6198,222.8188 465.4031,222.8188 499.9958,222.8188 " fill="none" id="VPC-igw" style="stroke:#2688D4;stroke-width:1.1458333333333333;"/><text fill="#000000" font-family="Verdana" font-size="13.75" lengthAdjust="spacing" textLength="8.7415" x="406.5149" y="213.4888">1</text><text fill="#000000" font-family="Verdana" font-size="13.75" lengthAdjust="spacing" textLength="8.7415" x="476.6261" y="213.4878">1</text></g><!--link rt to VPC--><g id="link_rt_VPC"><path codeLine="29" d="M133.3635,222.8188 C166.4437,222.8188 207.2354,222.8188 241.9542,222.8188 " fill="none" id="rt-VPC" style="stroke:#2688D4;stroke-width:1.1458333333333333;"/><text fill="#000000" font-family="Verdana" font-size="13.75" lengthAdjust="spacing" textLength="8.7012" x="147.9746" y="213.2365">n</text><text fill="#000000" font-family="Verdana" font-size="13.75" lengthAdjust="spacing" textLength="8.7415" x="218.9794" y="213.405">1</text></g><!--link rt to Subnet--><g id="link_rt_Subnet"><path codeLine="30" d="M70.5604,242.8365 C70.5604,325.7375 70.5604,637.851 70.5604,637.851 C70.5604,637.851 181.5917,637.851 247.5229,637.851 " fill="none" id="rt-Subnet" style="stroke:#2688D4;stroke-width:1.1458333333333333;"/><text fill="#000000" font-family="Verdana" font-size="13.75" lengthAdjust="spacing" textLength="8.7415" x="54.2882" y="271.5539">1</text><text fill="#000000" font-family="Verdana" font-size="13.75" lengthAdjust="spacing" textLength="8.7415" x="223.9756" y="627.5979">1</text></g><!--SRC=[PK_FIyCm5BxdhtZcuZoqReST51761cCtcQ0WlQJjeuQbBoLvxHZY_sxI5BMQK_BzolTTQQfCNoFa-QtdYy6ywriZ_4bJfvngmMX2ldG8rl6x_KMGhT5Z1tThSVs3EaMdYAwMIy6s0xPGMcRRGgqTLgmj2L4PvJt8bwTjGOj1E-wLWSxfGJ4MeO_jwni9oaDGm8Vu_7Pi3xjZi6pZow3t1Hs8qMKxsofTqD7shAb9tgYTcJU3qaQLscY-5FHc2KVTPeZNcN8C3RDX7mgTLL0l3llN5AkRyqmR_qHWLPeKvpZHHsp2Lf0h2LcMWLpBk4R4HU7yXcDHCRQTS1E9PPwJXEU-33t-kH8vDR-7HwZiWCwB2VcZIo51zm0b6akDdmMwB5t2iXa-rWXsns9Ac36haVa2]--></g></svg>