<?xml version="1.0" encoding="us-ascii" standalone="no"?><svg xmlns="http://www.w3.org/2000/svg" xmlns:xlink="http://www.w3.org/1999/xlink" contentStyleType="text/css" height="491.5625px" preserveAspectRatio="none" style="width:735px;height:491px;background:#FFFFFF;" version="1.1" viewBox="0 0 735 491" width="735.625px" zoomAndPan="magnify"><defs/><g><!--class region--><g id="elem_region"><rect codeLine="8" fill="#FFFFFF" height="39.6275" id="region" rx="4.5833" ry="4.5833" style="stroke:#2688D4;stroke-width:0.5729166666666666;" width="129.4792" x="354.0625" y="198.8135"/><ellipse cx="370.1042" cy="218.6273" fill="#ADD1B2" rx="11.4583" ry="11.4583" style="stroke:#181818;stroke-width:1.1458333333333333;"/><path d="M372.2056,223.4948 Q371.7356,223.7365 371.2187,223.8574 Q370.7017,223.9782 370.131,223.9782 Q368.1034,223.9782 367.0359,222.6422 Q365.9684,221.3061 365.9684,218.7817 Q365.9684,216.2506 367.0359,214.9145 Q368.1034,213.5785 370.131,213.5785 Q370.7017,213.5785 371.2254,213.6993 Q371.7491,213.8202 372.2056,214.0619 L372.2056,216.264 Q371.6954,215.794 371.2153,215.5758 Q370.7353,215.3576 370.225,215.3576 Q369.1374,215.3576 368.5835,216.2204 Q368.0296,217.0831 368.0296,218.7817 Q368.0296,220.4736 368.5835,221.3363 Q369.1374,222.1991 370.225,222.1991 Q370.7353,222.1991 371.2153,221.9809 Q371.6954,221.7627 372.2056,221.2927 Z " fill="#000000"/><text fill="#000000" font-family="Verdana" font-size="13.75" lengthAdjust="spacing" textLength="83.6458" x="390.7292" y="224.0957">AWS-Region</text></g><g id="elem_GMN3"><path d="M274.4271,11.4583 L274.4271,125.4732 A4.5833,4.5833 0 0 0 279.0104,130.0566 L414.2188,130.0566 L418.8021,198.2406 L423.3854,130.0566 L558.5938,130.0566 A4.5833,4.5833 0 0 0 563.1771,125.4732 L563.1771,18.3333 L551.7188,6.875 L279.0104,6.875 A4.5833,4.5833 0 0 0 274.4271,11.4583 " fill="#FEFFDD" style="stroke:#181818;stroke-width:0.5729166666666666;"/><path d="M551.7188,6.875 L551.7188,16.0417 A2.2917,2.2917 0 0 0 554.0104,18.3333 L563.1771,18.3333 L551.7188,6.875 " fill="#FEFFDD" style="stroke:#181818;stroke-width:0.5729166666666666;"/><text fill="#000000" font-family="Verdana" font-size="13.75" lengthAdjust="spacing" textLength="201.6667" x="287.0313" y="32.1572">eu-south-2,     Europe(Spain)</text><text fill="#000000" font-family="Verdana" font-size="13.75" lengthAdjust="spacing" textLength="217.7083" x="287.0313" y="48.868">eu-central-1, Europe(Frankfurt)</text><text fill="#000000" font-family="Verdana" font-size="13.75" lengthAdjust="spacing" textLength="207.3958" x="287.0313" y="65.5788">eu-west-3,         Europe(Paris)</text><text fill="#000000" font-family="Verdana" font-size="13.75" lengthAdjust="spacing" textLength="253.2292" x="287.0313" y="82.2896">eu-north-1,        Europe (Stockholm)</text><text fill="#000000" font-family="Verdana" font-size="13.75" lengthAdjust="spacing" textLength="203.9583" x="287.0313" y="99.0004">eu-south-1,      Europe(Milan)</text><text fill="#000000" font-family="Verdana" font-size="13.75" lengthAdjust="spacing" textLength="201.6667" x="287.0313" y="115.7113">eu-central-2,  Europe(Zurich)</text></g><!--class zone--><g id="elem_zone"><rect codeLine="12" fill="#FFFFFF" height="56.3383" id="zone" rx="4.5833" ry="4.5833" style="stroke:#2688D4;stroke-width:0.5729166666666666;" width="155.8333" x="340.8854" y="402.1531"/><ellipse cx="356.9271" cy="430.3223" fill="#ADD1B2" rx="11.4583" ry="11.4583" style="stroke:#181818;stroke-width:1.1458333333333333;"/><path d="M359.0285,435.1898 Q358.5586,435.4315 358.0416,435.5524 Q357.5246,435.6732 356.9539,435.6732 Q354.9264,435.6732 353.8588,434.3372 Q352.7913,433.0011 352.7913,430.4767 Q352.7913,427.9456 353.8588,426.6095 Q354.9264,425.2734 356.9539,425.2734 Q357.5246,425.2734 358.0483,425.3943 Q358.572,425.5151 359.0285,425.7568 L359.0285,427.959 Q358.5183,427.489 358.0382,427.2708 Q357.5582,427.0526 357.0479,427.0526 Q355.9603,427.0526 355.4064,427.9154 Q354.8525,428.7781 354.8525,430.4767 Q354.8525,432.1686 355.4064,433.0313 Q355.9603,433.8941 357.0479,433.8941 Q357.5582,433.8941 358.0382,433.6759 Q358.5183,433.4576 359.0285,432.9877 Z " fill="#000000"/><text fill="#000000" font-family="Verdana" font-size="13.75" lengthAdjust="spacing" textLength="110" x="377.5521" y="427.4353">AWS-Availability</text><text fill="#000000" font-family="Verdana" font-size="13.75" lengthAdjust="spacing" textLength="34.375" x="415.3646" y="444.1461">Zone</text></g><g id="elem_GMN7"><path d="M6.875,381.6656 L6.875,478.9697 A4.5833,4.5833 0 0 0 11.4583,483.553 L221.1458,483.553 A4.5833,4.5833 0 0 0 225.7292,478.9697 L225.7292,435.4281 L340.3354,430.8448 L225.7292,426.2615 L225.7292,388.5406 L214.2708,377.0823 L11.4583,377.0823 A4.5833,4.5833 0 0 0 6.875,381.6656 " fill="#FEFFDD" style="stroke:#181818;stroke-width:0.5729166666666666;"/><path d="M214.2708,377.0823 L214.2708,386.249 A2.2917,2.2917 0 0 0 216.5625,388.5406 L225.7292,388.5406 L214.2708,377.0823 " fill="#FEFFDD" style="stroke:#181818;stroke-width:0.5729166666666666;"/><text fill="#000000" font-family="Verdana" font-size="13.75" lengthAdjust="spacing" textLength="183.3333" x="19.4792" y="402.3645">eu-south-2, Europe(Spain)</text><text fill="#000000" font-family="Verdana" font-size="13.75" lengthAdjust="spacing" textLength="56.1458" x="19.4792" y="419.0753">AZones:</text><text fill="#000000" font-family="Verdana" font-size="13.75" lengthAdjust="spacing" textLength="84.7917" x="42.3958" y="435.7861">eu-south-2a</text><text fill="#000000" font-family="Verdana" font-size="13.75" lengthAdjust="spacing" textLength="84.7917" x="42.3958" y="452.4969">eu-south-2b</text><text fill="#000000" font-family="Verdana" font-size="13.75" lengthAdjust="spacing" textLength="83.6458" x="42.3958" y="469.2077">eu-south-2c</text></g><!--class datacenter--><g id="elem_datacenter"><rect codeLine="16" fill="#FFFFFF" height="56.3383" id="datacenter" rx="4.5833" ry="4.5833" style="stroke:#2688D4;stroke-width:0.5729166666666666;" width="115.7292" x="611.875" y="402.1531"/><ellipse cx="627.9167" cy="430.3223" fill="#ADD1B2" rx="11.4583" ry="11.4583" style="stroke:#181818;stroke-width:1.1458333333333333;"/><path d="M630.0181,435.1898 Q629.5481,435.4315 629.0312,435.5524 Q628.5142,435.6732 627.9435,435.6732 Q625.9159,435.6732 624.8484,434.3372 Q623.7809,433.0011 623.7809,430.4767 Q623.7809,427.9456 624.8484,426.6095 Q625.9159,425.2734 627.9435,425.2734 Q628.5142,425.2734 629.0379,425.3943 Q629.5616,425.5151 630.0181,425.7568 L630.0181,427.959 Q629.5079,427.489 629.0278,427.2708 Q628.5478,427.0526 628.0375,427.0526 Q626.9499,427.0526 626.396,427.9154 Q625.8421,428.7781 625.8421,430.4767 Q625.8421,432.1686 626.396,433.0313 Q626.9499,433.8941 628.0375,433.8941 Q628.5478,433.8941 629.0278,433.6759 Q629.5079,433.4576 630.0181,432.9877 Z " fill="#000000"/><text fill="#000000" font-family="Verdana" font-size="13.75" lengthAdjust="spacing" textLength="69.8958" x="648.5417" y="427.4353">AWS-Data</text><text fill="#000000" font-family="Verdana" font-size="13.75" lengthAdjust="spacing" textLength="45.8333" x="660.5729" y="444.1461">Center</text></g><!--link region to zone--><g id="link_region_zone"><path codeLine="20" d="M418.8021,238.9177 C418.8021,276.799 418.8021,351.45 418.8021,394.8656 " fill="none" id="region-to-zone" style="stroke:#2688D4;stroke-width:1.1458333333333333;"/><polygon fill="#2688D4" points="418.8021,401.7406,423.3854,391.4281,418.8021,396.0115,414.2188,391.4281,418.8021,401.7406" style="stroke:#2688D4;stroke-width:1.1458333333333333;"/><text fill="#000000" font-family="Verdana" font-size="13.75" lengthAdjust="spacing" textLength="9.1667" x="401.2637" y="267.2793">1</text><text fill="#000000" font-family="Verdana" font-size="13.75" lengthAdjust="spacing" textLength="27.5" x="381.3118" y="384.6068">3..6</text></g><!--link zone to datacenter--><g id="link_zone_datacenter"><path codeLine="21" d="M497.1656,430.8448 C534.1302,430.8448 570.5906,430.8448 604.5875,430.8448 " fill="none" id="zone-to-datacenter" style="stroke:#2688D4;stroke-width:1.1458333333333333;"/><polygon fill="#2688D4" points="611.4625,430.8448,601.15,426.2615,605.7333,430.8448,601.15,435.4281,611.4625,430.8448" style="stroke:#2688D4;stroke-width:1.1458333333333333;"/><text fill="#000000" font-family="Verdana" font-size="13.75" lengthAdjust="spacing" textLength="9.1667" x="511.6238" y="421.6287">1</text><text fill="#000000" font-family="Verdana" font-size="13.75" lengthAdjust="spacing" textLength="9.1667" x="587.7786" y="421.2459">*</text></g><!--SRC=[PL7BJiCm4BpxAvPSQ54TMYfnw06fud53GlI0LFNYEbjYrV56zWPK4FzEx3JgooTxPdOqExuoJjkcGCZpsy0xYtdTL5Q4hN6ryge2QnpohaOWpoKT4OuA35Z3P3mMrmVOAxVjOQOQc61Dp5H1OJngDkI4q5Q50DdyOo7VyRE5Cb01VBh2h_WJZXWXZjEcXsU0ZGpKS2dlHX3FS-Efni6YLiODLwwbDJhsoih9g2TVOfvDuxaJV6DWEUt6ZopUb3UXKxYuPpGuKS1WmQIt9TcgatL1UjdUvjLOTPOaHjspoyORNGvFjfz_gNPcRQpXtSejoM5gugUz77gmkE5OH49FQpYhO1uTmcpbKgg3K5qWwmj4dmHxKjmEFRPRe4-HYXRGwPc22R7_bcoIWIoaV81ickVtMKefKjH4-KJTP4S6uXy0]--></g></svg>