<?xml version="1.0" encoding="us-ascii" standalone="no"?><svg xmlns="http://www.w3.org/2000/svg" xmlns:xlink="http://www.w3.org/1999/xlink" contentStyleType="text/css" height="1118px" preserveAspectRatio="none" style="width:673px;height:1118px;background:#FFFFFF;" version="1.1" viewBox="0 0 673 1118" width="673px" zoomAndPan="magnify"><defs/><g><rect fill="#F1F1F1" height="52.9766" rx="12.5" ry="12.5" style="stroke:#181818;stroke-width:1.5;" width="117" x="10" y="531.8057"/><text fill="#000000" font-family="sans-serif" font-size="14" lengthAdjust="spacing" textLength="27" x="20" y="555.3408">EC2</text><text fill="#000000" font-family="sans-serif" font-size="14" lengthAdjust="spacing" textLength="97" x="20" y="571.8291">instance types</text><rect fill="#F1F1F1" height="85.9531" rx="12.5" ry="12.5" style="stroke:#181818;stroke-width:1.5;" width="264" x="177" y="96.4414"/><text fill="#000000" font-family="sans-serif" font-size="14" font-weight="bold" lengthAdjust="spacing" textLength="117" x="187" y="119.9766">General Purpose</text><text fill="#000000" font-family="sans-serif" font-size="14" lengthAdjust="spacing" textLength="184" x="187" y="136.4648">(good balance of compute,</text><text fill="#000000" font-family="sans-serif" font-size="14" lengthAdjust="spacing" textLength="244" x="187" y="152.9531">memory and networking resources)</text><text fill="#000000" font-family="sans-serif" font-size="14" lengthAdjust="spacing" textLength="232" x="187" y="169.4414">(web-servers &amp; code repositories)</text><text fill="#000000" font-family="sans-serif" font-size="14" lengthAdjust="spacing" textLength="30" x="494" y="24.5352">M7g</text><path d="M441,139.418 L451,139.418 C466,139.418 466,19.2441 481,19.2441 L491,19.2441 " fill="none" style="stroke:#181818;stroke-width:1.0;"/><text fill="#000000" font-family="sans-serif" font-size="14" lengthAdjust="spacing" textLength="25" x="494" y="43.0234">M7i</text><path d="M441,139.418 L451,139.418 C466,139.418 466,37.7324 481,37.7324 L491,37.7324 " fill="none" style="stroke:#181818;stroke-width:1.0;"/><text fill="#000000" font-family="sans-serif" font-size="14" lengthAdjust="spacing" textLength="59" x="494" y="61.5117">M7i-flex</text><path d="M441,139.418 L451,139.418 C466,139.418 466,56.2207 481,56.2207 L491,56.2207 " fill="none" style="stroke:#181818;stroke-width:1.0;"/><text fill="#000000" font-family="sans-serif" font-size="14" lengthAdjust="spacing" textLength="29" x="494" y="80">M7a</text><path d="M441,139.418 L451,139.418 C466,139.418 466,74.709 481,74.709 L491,74.709 " fill="none" style="stroke:#181818;stroke-width:1.0;"/><text fill="#000000" font-family="sans-serif" font-size="14" lengthAdjust="spacing" textLength="27" x="494" y="98.4883">Mac</text><path d="M441,139.418 L451,139.418 C466,139.418 466,93.1973 481,93.1973 L491,93.1973 " fill="none" style="stroke:#181818;stroke-width:1.0;"/><text fill="#000000" font-family="sans-serif" font-size="14" lengthAdjust="spacing" textLength="30" x="494" y="116.9766">M6g</text><path d="M441,139.418 L451,139.418 C466,139.418 466,111.6855 481,111.6855 L491,111.6855 " fill="none" style="stroke:#181818;stroke-width:1.0;"/><text fill="#000000" font-family="sans-serif" font-size="14" lengthAdjust="spacing" textLength="25" x="494" y="135.4648">M6i</text><path d="M441,139.418 L451,139.418 C466,139.418 466,130.1738 481,130.1738 L491,130.1738 " fill="none" style="stroke:#181818;stroke-width:1.0;"/><text fill="#000000" font-family="sans-serif" font-size="14" lengthAdjust="spacing" textLength="21" x="494" y="153.9531">M5</text><path d="M441,139.418 L451,139.418 C466,139.418 466,148.6621 481,148.6621 L491,148.6621 " fill="none" style="stroke:#181818;stroke-width:1.0;"/><text fill="#000000" font-family="sans-serif" font-size="14" lengthAdjust="spacing" textLength="30" x="494" y="172.4414">M5n</text><path d="M441,139.418 L451,139.418 C466,139.418 466,167.1504 481,167.1504 L491,167.1504 " fill="none" style="stroke:#181818;stroke-width:1.0;"/><text fill="#000000" font-family="sans-serif" font-size="14" lengthAdjust="spacing" textLength="29" x="494" y="190.9297">M5a</text><path d="M441,139.418 L451,139.418 C466,139.418 466,185.6387 481,185.6387 L491,185.6387 " fill="none" style="stroke:#181818;stroke-width:1.0;"/><text fill="#000000" font-family="sans-serif" font-size="14" lengthAdjust="spacing" textLength="27" x="494" y="209.418">T4g</text><path d="M441,139.418 L451,139.418 C466,139.418 466,204.127 481,204.127 L491,204.127 " fill="none" style="stroke:#181818;stroke-width:1.0;"/><text fill="#000000" font-family="sans-serif" font-size="14" lengthAdjust="spacing" textLength="18" x="494" y="227.9063">T3</text><path d="M441,139.418 L451,139.418 C466,139.418 466,222.6152 481,222.6152 L491,222.6152 " fill="none" style="stroke:#181818;stroke-width:1.0;"/><text fill="#000000" font-family="sans-serif" font-size="14" lengthAdjust="spacing" textLength="26" x="494" y="246.3945">T3a</text><path d="M441,139.418 L451,139.418 C466,139.418 466,241.1035 481,241.1035 L491,241.1035 " fill="none" style="stroke:#181818;stroke-width:1.0;"/><text fill="#000000" font-family="sans-serif" font-size="14" lengthAdjust="spacing" textLength="18" x="494" y="264.8828">T2</text><path d="M441,139.418 L451,139.418 C466,139.418 466,259.5918 481,259.5918 L491,259.5918 " fill="none" style="stroke:#181818;stroke-width:1.0;"/><path d="M127,558.2939 L137,558.2939 C152,558.2939 152,139.418 167,139.418 L177,139.418 " fill="none" style="stroke:#181818;stroke-width:1.0;"/><rect fill="#F1F1F1" height="184.8828" rx="12.5" ry="12.5" style="stroke:#181818;stroke-width:1.5;" width="273" x="177" y="278.8359"/><text fill="#000000" font-family="sans-serif" font-size="14" font-weight="bold" lengthAdjust="spacing" textLength="146" x="187" y="302.3711">Compute Optimized</text><text fill="#000000" font-family="sans-serif" font-size="14" lengthAdjust="spacing" textLength="152" x="187" y="318.8594">(compute applications</text><text fill="#000000" font-family="sans-serif" font-size="14" lengthAdjust="spacing" textLength="245" x="187" y="335.3477">need high performance processors)</text><text fill="#000000" font-family="sans-serif" font-size="14" lengthAdjust="spacing" textLength="201" x="187" y="351.8359">(batch processing workloads,</text><text fill="#000000" font-family="sans-serif" font-size="14" lengthAdjust="spacing" textLength="132" x="187" y="368.3242">media transcoding,</text><text fill="#000000" font-family="sans-serif" font-size="14" lengthAdjust="spacing" textLength="212" x="187" y="384.8125">high performance web servers,</text><text fill="#000000" font-family="sans-serif" font-size="14" lengthAdjust="spacing" textLength="247" x="187" y="401.3008">high performance computing (HPC),</text><text fill="#000000" font-family="sans-serif" font-size="14" lengthAdjust="spacing" textLength="133" x="187" y="417.7891">scientific modeling,</text><text fill="#000000" font-family="sans-serif" font-size="14" lengthAdjust="spacing" textLength="206" x="187" y="434.2773">dedicated gaming servers and</text><text fill="#000000" font-family="sans-serif" font-size="14" lengthAdjust="spacing" textLength="253" x="187" y="450.7656">ad server engines, machine learning)</text><text fill="#000000" font-family="sans-serif" font-size="14" lengthAdjust="spacing" textLength="28" x="503" y="302.6152">C7g</text><path d="M450,371.2773 L460,371.2773 C475,371.2773 475,297.3242 490,297.3242 L500,297.3242 " fill="none" style="stroke:#181818;stroke-width:1.0;"/><text fill="#000000" font-family="sans-serif" font-size="14" lengthAdjust="spacing" textLength="37" x="503" y="321.1035">C7gn</text><path d="M450,371.2773 L460,371.2773 C475,371.2773 475,315.8125 490,315.8125 L500,315.8125 " fill="none" style="stroke:#181818;stroke-width:1.0;"/><text fill="#000000" font-family="sans-serif" font-size="14" lengthAdjust="spacing" textLength="23" x="503" y="339.5918">C7i</text><path d="M450,371.2773 L460,371.2773 C475,371.2773 475,334.3008 490,334.3008 L500,334.3008 " fill="none" style="stroke:#181818;stroke-width:1.0;"/><text fill="#000000" font-family="sans-serif" font-size="14" lengthAdjust="spacing" textLength="57" x="503" y="358.0801">C7i-flex</text><path d="M450,371.2773 L460,371.2773 C475,371.2773 475,352.7891 490,352.7891 L500,352.7891 " fill="none" style="stroke:#181818;stroke-width:1.0;"/><text fill="#000000" font-family="sans-serif" font-size="14" lengthAdjust="spacing" textLength="28" x="503" y="376.5684">C6g</text><path d="M450,371.2773 L460,371.2773 C475,371.2773 475,371.2773 490,371.2773 L500,371.2773 " fill="none" style="stroke:#181818;stroke-width:1.0;"/><text fill="#000000" font-family="sans-serif" font-size="14" lengthAdjust="spacing" textLength="19" x="503" y="395.0566">C5</text><path d="M450,371.2773 L460,371.2773 C475,371.2773 475,389.7656 490,389.7656 L500,389.7656 " fill="none" style="stroke:#181818;stroke-width:1.0;"/><text fill="#000000" font-family="sans-serif" font-size="14" lengthAdjust="spacing" textLength="28" x="503" y="413.5449">C5n</text><path d="M450,371.2773 L460,371.2773 C475,371.2773 475,408.2539 490,408.2539 L500,408.2539 " fill="none" style="stroke:#181818;stroke-width:1.0;"/><text fill="#000000" font-family="sans-serif" font-size="14" lengthAdjust="spacing" textLength="27" x="503" y="432.0332">C5a</text><path d="M450,371.2773 L460,371.2773 C475,371.2773 475,426.7422 490,426.7422 L500,426.7422 " fill="none" style="stroke:#181818;stroke-width:1.0;"/><text fill="#000000" font-family="sans-serif" font-size="14" lengthAdjust="spacing" textLength="19" x="503" y="450.5215">C4</text><path d="M450,371.2773 L460,371.2773 C475,371.2773 475,445.2305 490,445.2305 L500,445.2305 " fill="none" style="stroke:#181818;stroke-width:1.0;"/><path d="M127,558.2939 L137,558.2939 C152,558.2939 152,371.2773 167,371.2773 L177,371.2773 " fill="none" style="stroke:#181818;stroke-width:1.0;"/><rect fill="#F1F1F1" height="135.418" rx="12.5" ry="12.5" style="stroke:#181818;stroke-width:1.5;" width="291" x="177" y="488.4512"/><text fill="#000000" font-family="sans-serif" font-size="14" font-weight="bold" lengthAdjust="spacing" textLength="139" x="187" y="511.9863">Memory Optimized</text><text fill="#000000" font-family="sans-serif" font-size="14" lengthAdjust="spacing" textLength="271" x="187" y="528.4746">(deliver fast performance for workloads</text><text fill="#000000" font-family="sans-serif" font-size="14" lengthAdjust="spacing" textLength="270" x="187" y="544.9629">that process large data sets in memory)</text><text fill="#000000" font-family="sans-serif" font-size="14" lengthAdjust="spacing" textLength="201" x="187" y="561.4512">(high-performance relational</text><text fill="#000000" font-family="sans-serif" font-size="14" lengthAdjust="spacing" textLength="177" x="187" y="577.9395">non-relational databases,</text><text fill="#000000" font-family="sans-serif" font-size="14" lengthAdjust="spacing" textLength="242" x="187" y="594.4277">distributed web-scale cache stores,</text><text fill="#000000" font-family="sans-serif" font-size="14" lengthAdjust="spacing" textLength="268" x="187" y="610.916">in-memory databases optimized for BI)</text><text fill="#000000" font-family="sans-serif" font-size="14" lengthAdjust="spacing" textLength="27" x="521" y="469.0098">R8g</text><path d="M468,556.1602 L478,556.1602 C493,556.1602 493,463.7188 508,463.7188 L518,463.7188 " fill="none" style="stroke:#181818;stroke-width:1.0;"/><text fill="#000000" font-family="sans-serif" font-size="14" lengthAdjust="spacing" textLength="27" x="521" y="487.498">R7g</text><path d="M468,556.1602 L478,556.1602 C493,556.1602 493,482.207 508,482.207 L518,482.207 " fill="none" style="stroke:#181818;stroke-width:1.0;"/><text fill="#000000" font-family="sans-serif" font-size="14" lengthAdjust="spacing" textLength="22" x="521" y="505.9863">R7i</text><path d="M468,556.1602 L478,556.1602 C493,556.1602 493,500.6953 508,500.6953 L518,500.6953 " fill="none" style="stroke:#181818;stroke-width:1.0;"/><text fill="#000000" font-family="sans-serif" font-size="14" lengthAdjust="spacing" textLength="27" x="521" y="524.4746">R6g</text><path d="M468,556.1602 L478,556.1602 C493,556.1602 493,519.1836 508,519.1836 L518,519.1836 " fill="none" style="stroke:#181818;stroke-width:1.0;"/><text fill="#000000" font-family="sans-serif" font-size="14" lengthAdjust="spacing" textLength="22" x="521" y="542.9629">R6i</text><path d="M468,556.1602 L478,556.1602 C493,556.1602 493,537.6719 508,537.6719 L518,537.6719 " fill="none" style="stroke:#181818;stroke-width:1.0;"/><text fill="#000000" font-family="sans-serif" font-size="14" lengthAdjust="spacing" textLength="18" x="521" y="561.4512">R5</text><path d="M468,556.1602 L478,556.1602 C493,556.1602 493,556.1602 508,556.1602 L518,556.1602 " fill="none" style="stroke:#181818;stroke-width:1.0;"/><text fill="#000000" font-family="sans-serif" font-size="14" lengthAdjust="spacing" textLength="27" x="521" y="579.9395">R5n</text><path d="M468,556.1602 L478,556.1602 C493,556.1602 493,574.6484 508,574.6484 L518,574.6484 " fill="none" style="stroke:#181818;stroke-width:1.0;"/><text fill="#000000" font-family="sans-serif" font-size="14" lengthAdjust="spacing" textLength="18" x="521" y="598.4277">R4</text><path d="M468,556.1602 L478,556.1602 C493,556.1602 493,593.1367 508,593.1367 L518,593.1367 " fill="none" style="stroke:#181818;stroke-width:1.0;"/><text fill="#000000" font-family="sans-serif" font-size="14" lengthAdjust="spacing" textLength="23" x="521" y="616.916">U7i</text><path d="M468,556.1602 L478,556.1602 C493,556.1602 493,611.625 508,611.625 L518,611.625 " fill="none" style="stroke:#181818;stroke-width:1.0;"/><text fill="#000000" font-family="sans-serif" font-size="14" lengthAdjust="spacing" textLength="26" x="521" y="635.4043">X1e</text><path d="M468,556.1602 L478,556.1602 C493,556.1602 493,630.1133 508,630.1133 L518,630.1133 " fill="none" style="stroke:#181818;stroke-width:1.0;"/><text fill="#000000" font-family="sans-serif" font-size="14" lengthAdjust="spacing" textLength="26" x="521" y="653.8926">z1d</text><path d="M468,556.1602 L478,556.1602 C493,556.1602 493,648.6016 508,648.6016 L518,648.6016 " fill="none" style="stroke:#181818;stroke-width:1.0;"/><path d="M127,558.2939 L137,558.2939 C152,558.2939 152,556.1602 167,556.1602 L177,556.1602 " fill="none" style="stroke:#181818;stroke-width:1.0;"/><rect fill="#F1F1F1" height="135.418" rx="12.5" ry="12.5" style="stroke:#181818;stroke-width:1.5;" width="387" x="177" y="667.8457"/><text fill="#000000" font-family="sans-serif" font-size="14" font-weight="bold" lengthAdjust="spacing" textLength="135" x="187" y="691.3809">Storage Optimized</text><text fill="#000000" font-family="sans-serif" font-size="14" lengthAdjust="spacing" textLength="219" x="187" y="707.8691">(torage-intensive requirements,</text><text fill="#000000" font-family="sans-serif" font-size="14" lengthAdjust="spacing" textLength="367" x="187" y="724.3574">high-frequency online transaction processing (OLTP),</text><text fill="#000000" font-family="sans-serif" font-size="14" lengthAdjust="spacing" textLength="205" x="187" y="740.8457">relational &amp; NoSQL databases,</text><text fill="#000000" font-family="sans-serif" font-size="14" lengthAdjust="spacing" textLength="235" x="187" y="757.334">caching for in-memory databases,</text><text fill="#000000" font-family="sans-serif" font-size="14" lengthAdjust="spacing" textLength="127" x="187" y="773.8223">data warehousing,</text><text fill="#000000" font-family="sans-serif" font-size="14" lengthAdjust="spacing" textLength="167" x="187" y="790.3105">distributed file systems).</text><text fill="#000000" font-family="sans-serif" font-size="14" lengthAdjust="spacing" textLength="22" x="617" y="685.3809">i4g</text><path d="M564,735.5547 L574,735.5547 C589,735.5547 589,680.0898 604,680.0898 L614,680.0898 " fill="none" style="stroke:#181818;stroke-width:1.0;"/><text fill="#000000" font-family="sans-serif" font-size="14" lengthAdjust="spacing" textLength="44" x="617" y="703.8691">im4gn</text><path d="M564,735.5547 L574,735.5547 C589,735.5547 589,698.5781 604,698.5781 L614,698.5781 " fill="none" style="stroke:#181818;stroke-width:1.0;"/><text fill="#000000" font-family="sans-serif" font-size="14" lengthAdjust="spacing" textLength="13" x="617" y="722.3574">i3</text><path d="M564,735.5547 L574,735.5547 C589,735.5547 589,717.0664 604,717.0664 L614,717.0664 " fill="none" style="stroke:#181818;stroke-width:1.0;"/><text fill="#000000" font-family="sans-serif" font-size="14" lengthAdjust="spacing" textLength="30" x="617" y="740.8457">i3en</text><path d="M564,735.5547 L574,735.5547 C589,735.5547 589,735.5547 604,735.5547 L614,735.5547 " fill="none" style="stroke:#181818;stroke-width:1.0;"/><text fill="#000000" font-family="sans-serif" font-size="14" lengthAdjust="spacing" textLength="19" x="617" y="759.334">D3</text><path d="M564,735.5547 L574,735.5547 C589,735.5547 589,754.043 604,754.043 L614,754.043 " fill="none" style="stroke:#181818;stroke-width:1.0;"/><text fill="#000000" font-family="sans-serif" font-size="14" lengthAdjust="spacing" textLength="36" x="617" y="777.8223">D3en</text><path d="M564,735.5547 L574,735.5547 C589,735.5547 589,772.5313 604,772.5313 L614,772.5313 " fill="none" style="stroke:#181818;stroke-width:1.0;"/><text fill="#000000" font-family="sans-serif" font-size="14" lengthAdjust="spacing" textLength="19" x="617" y="796.3105">H1</text><path d="M564,735.5547 L574,735.5547 C589,735.5547 589,791.0195 604,791.0195 L614,791.0195 " fill="none" style="stroke:#181818;stroke-width:1.0;"/><path d="M127,558.2939 L137,558.2939 C152,558.2939 152,735.5547 167,735.5547 L177,735.5547 " fill="none" style="stroke:#181818;stroke-width:1.0;"/><rect fill="#F1F1F1" height="135.418" rx="12.5" ry="12.5" style="stroke:#181818;stroke-width:1.5;" width="315" x="177" y="847.2402"/><text fill="#000000" font-family="sans-serif" font-size="14" font-weight="bold" lengthAdjust="spacing" textLength="167" x="187" y="870.7754">Accelerated Computing</text><text fill="#000000" font-family="sans-serif" font-size="14" lengthAdjust="spacing" textLength="161" x="187" y="887.2637">(hardware accelerators,</text><text fill="#000000" font-family="sans-serif" font-size="14" lengthAdjust="spacing" textLength="122" x="187" y="903.752">or co-processors,</text><text fill="#000000" font-family="sans-serif" font-size="14" lengthAdjust="spacing" textLength="146" x="187" y="920.2402">to perform functions,</text><text fill="#000000" font-family="sans-serif" font-size="14" lengthAdjust="spacing" textLength="295" x="187" y="936.7285">such as floating point number calculations,</text><text fill="#000000" font-family="sans-serif" font-size="14" lengthAdjust="spacing" textLength="161" x="187" y="953.2168">graphics processing, or</text><text fill="#000000" font-family="sans-serif" font-size="14" lengthAdjust="spacing" textLength="157" x="187" y="969.7051">data pattern matching)</text><text fill="#000000" font-family="sans-serif" font-size="14" lengthAdjust="spacing" textLength="17" x="545" y="827.7988">P5</text><path d="M492,914.9492 L502,914.9492 C517,914.9492 517,822.5078 532,822.5078 L542,822.5078 " fill="none" style="stroke:#181818;stroke-width:1.0;"/><text fill="#000000" font-family="sans-serif" font-size="14" lengthAdjust="spacing" textLength="17" x="545" y="846.2871">P4</text><path d="M492,914.9492 L502,914.9492 C517,914.9492 517,840.9961 532,840.9961 L542,840.9961 " fill="none" style="stroke:#181818;stroke-width:1.0;"/><text fill="#000000" font-family="sans-serif" font-size="14" lengthAdjust="spacing" textLength="17" x="545" y="864.7754">P3</text><path d="M492,914.9492 L502,914.9492 C517,914.9492 517,859.4844 532,859.4844 L542,859.4844 " fill="none" style="stroke:#181818;stroke-width:1.0;"/><text fill="#000000" font-family="sans-serif" font-size="14" lengthAdjust="spacing" textLength="17" x="545" y="883.2637">P2</text><path d="M492,914.9492 L502,914.9492 C517,914.9492 517,877.9727 532,877.9727 L542,877.9727 " fill="none" style="stroke:#181818;stroke-width:1.0;"/><text fill="#000000" font-family="sans-serif" font-size="14" lengthAdjust="spacing" textLength="19" x="545" y="901.752">G6</text><path d="M492,914.9492 L502,914.9492 C517,914.9492 517,896.4609 532,896.4609 L542,896.4609 " fill="none" style="stroke:#181818;stroke-width:1.0;"/><text fill="#000000" font-family="sans-serif" font-size="14" lengthAdjust="spacing" textLength="28" x="545" y="920.2402">G5g</text><path d="M492,914.9492 L502,914.9492 C517,914.9492 517,914.9492 532,914.9492 L542,914.9492 " fill="none" style="stroke:#181818;stroke-width:1.0;"/><text fill="#000000" font-family="sans-serif" font-size="14" lengthAdjust="spacing" textLength="33" x="545" y="938.7285">Trn1</text><path d="M492,914.9492 L502,914.9492 C517,914.9492 517,933.4375 532,933.4375 L542,933.4375 " fill="none" style="stroke:#181818;stroke-width:1.0;"/><text fill="#000000" font-family="sans-serif" font-size="14" lengthAdjust="spacing" textLength="27" x="545" y="957.2168">Inf2</text><path d="M492,914.9492 L502,914.9492 C517,914.9492 517,951.9258 532,951.9258 L542,951.9258 " fill="none" style="stroke:#181818;stroke-width:1.0;"/><text fill="#000000" font-family="sans-serif" font-size="14" lengthAdjust="spacing" textLength="26" x="545" y="975.7051">DL1</text><path d="M492,914.9492 L502,914.9492 C517,914.9492 517,970.4141 532,970.4141 L542,970.4141 " fill="none" style="stroke:#181818;stroke-width:1.0;"/><text fill="#000000" font-family="sans-serif" font-size="14" lengthAdjust="spacing" textLength="17" x="545" y="994.1934">F1</text><path d="M492,914.9492 L502,914.9492 C517,914.9492 517,988.9023 532,988.9023 L542,988.9023 " fill="none" style="stroke:#181818;stroke-width:1.0;"/><text fill="#000000" font-family="sans-serif" font-size="14" lengthAdjust="spacing" textLength="27" x="545" y="1012.6816">VT1</text><path d="M492,914.9492 L502,914.9492 C517,914.9492 517,1007.3906 532,1007.3906 L542,1007.3906 " fill="none" style="stroke:#181818;stroke-width:1.0;"/><path d="M127,558.2939 L137,558.2939 C152,558.2939 152,914.9492 167,914.9492 L177,914.9492 " fill="none" style="stroke:#181818;stroke-width:1.0;"/><rect fill="#F1F1F1" height="85.9531" rx="12.5" ry="12.5" style="stroke:#181818;stroke-width:1.5;" width="232" x="177" y="1010.6348"/><text fill="#000000" font-family="sans-serif" font-size="14" font-weight="bold" lengthAdjust="spacing" textLength="111" x="187" y="1034.1699">HPC Optimized</text><text fill="#000000" font-family="sans-serif" font-size="14" lengthAdjust="spacing" textLength="212" x="187" y="1050.6582">(High performance computing)</text><text fill="#000000" font-family="sans-serif" font-size="14" lengthAdjust="spacing" textLength="190" x="187" y="1067.1465">(large, complex simulations</text><text fill="#000000" font-family="sans-serif" font-size="14" lengthAdjust="spacing" textLength="205" x="187" y="1083.6348">and deep learning workloads)</text><text fill="#000000" font-family="sans-serif" font-size="14" lengthAdjust="spacing" textLength="44" x="462" y="1031.1699">Hpc7g</text><path d="M409,1053.6113 L419,1053.6113 C434,1053.6113 434,1025.8789 449,1025.8789 L459,1025.8789 " fill="none" style="stroke:#181818;stroke-width:1.0;"/><text fill="#000000" font-family="sans-serif" font-size="14" lengthAdjust="spacing" textLength="43" x="462" y="1049.6582">Hpc7a</text><path d="M409,1053.6113 L419,1053.6113 C434,1053.6113 434,1044.3672 449,1044.3672 L459,1044.3672 " fill="none" style="stroke:#181818;stroke-width:1.0;"/><text fill="#000000" font-family="sans-serif" font-size="14" lengthAdjust="spacing" textLength="48" x="462" y="1068.1465">Hpc6id</text><path d="M409,1053.6113 L419,1053.6113 C434,1053.6113 434,1062.8555 449,1062.8555 L459,1062.8555 " fill="none" style="stroke:#181818;stroke-width:1.0;"/><text fill="#000000" font-family="sans-serif" font-size="14" lengthAdjust="spacing" textLength="43" x="462" y="1086.6348">Hpc6a</text><path d="M409,1053.6113 L419,1053.6113 C434,1053.6113 434,1081.3438 449,1081.3438 L459,1081.3438 " fill="none" style="stroke:#181818;stroke-width:1.0;"/><path d="M127,558.2939 L137,558.2939 C152,558.2939 152,1053.6113 167,1053.6113 L177,1053.6113 " fill="none" style="stroke:#181818;stroke-width:1.0;"/><!--SRC=[TPNRSjis48Rl-HHxbP4yfciTh6GqcKnYsl6XKgDAigSNckcio2M5AGcm06XNUVekI41IwlGAoyM1s6__NNms5hMjXCmghACpk4s66oaaUsLAOFSrcUZi33vkFzsH98qbB1fTAqCVVzb-siXUeLG6MopRvIg7L5LrO-by8okgbDu3oWmasLUb_nAo04r6DJebq-VDhxID3UaNqWRUyTQCU9uF5rPfmKlupsT_mlnz4GnnCEAyf7_25te3KszCmev9s74LHXaClsazzclNep26cM7aGq-weE1RRKKblbFcW_V10jPrALAqGacpaP8eWvqeTb2JpfMkMZQrLXorKRgDV8istGMVu-Bub0epqvBB18BLA0qpuLdslJcFsO5dzxFfxchkvDxz8kdp4fCAabRa8eMAIPVTkHd_Ys_EDowmSij3FZXl6ucP_mQIXP1apg72TCSMb8IQXLBu92KXIMp8O8c3SPAk92GdkGfZs11oaem3-Nadel-2TzTtjyhHs1_2PkE8SYFj3csW32NgWY13YnoKDI0aT1fr2N40uzEJD9LjGh7aZ2eP7x_R8xPeo87FXB5QR1j7i9LpYYNJPqW4XcNSBX8ozjLms0egXDJU-Vh1Srn-y7IMxm-6nxWCu9P1rSkhC7g2ot4tFeKzVmoeCxuFii1qnTV2ugsQEtSif2Lf62yZ-BiHcYgMJT1Od3idoNGFIfPE1wrCCNLeJlNS-pPRBvpiJhYzWz_KwlVP3_pILav52-4dc1nXbx1NrBHJZV6YFO6U2-PjziPIPVeNNR0YrBIena6DOXH6yfwRKHY3vtuG67r9KogvtRa_9A6KFASTwipT1p0iKcqDSWIfYezrpYwhWZeXRsGBoRbDmyMF1dAMQLkZjMBg89jgow9c1QLD1yqjBZJMEv6Q4xhdeBG7KwErf5d9hg4Sot7XbR7mWbZuM1V3RhoR-F4gT3yj1vtr87E_w6RcNL_z-Bm-0EAcyaP0z__RX5o5jULttlgu5u0HLGYI-mm_4XbHVUWgnoBs0TtNQIW8P-B1d8ZiQ6FqcVWbywzPjE1doJxDP-0wcXFeu69uEHnVZ7ihxWjVQWsN4nXCfgFHT7W9oUrg3Mw-7_Nc3sle7YeuY8qFw4UF-8AmRBYHLZHb0YGVRtuD3hYLBq8hwIecUdoU7nTCnl6riB3gckdpFBgX79lIyewknK_XQVqr_X3DK1ODb-6KEswKA3vNxwTmT_ql]--></g></svg>