<svg xmlns="http://www.w3.org/2000/svg" xmlns:xlink="http://www.w3.org/1999/xlink" contentStyleType="text/css" height="489px" preserveAspectRatio="none" style="width:630px;height:489px;background:#FFFFFF;" version="1.1" viewBox="0 0 630 489" width="630px" zoomAndPan="magnify"><defs/><g><ellipse cx="16" cy="316" fill="#222222" rx="10" ry="10" style="stroke:#222222;stroke-width:1.0;"/><g id="Open"><rect fill="#F1F1F1" height="50" rx="12.5" ry="12.5" style="stroke:#181818;stroke-width:0.5;" width="57.3926" x="215.3" y="291"/><line style="stroke:#181818;stroke-width:0.5;" x1="215.3" x2="272.6926" y1="317.2969" y2="317.2969"/><text fill="#000000" font-family="sans-serif" font-size="14" lengthAdjust="spacing" textLength="37.3926" x="225.3" y="308.9951">Open</text></g><g id="Failed"><rect fill="#F1F1F1" height="50" rx="12.5" ry="12.5" style="stroke:#181818;stroke-width:0.5;" width="61.9111" x="200.04" y="433"/><line style="stroke:#181818;stroke-width:0.5;" x1="200.04" x2="261.9511" y1="459.2969" y2="459.2969"/><text fill="#000000" font-family="sans-serif" font-size="14" lengthAdjust="spacing" textLength="41.9111" x="210.04" y="450.9951">Failed</text></g><g id="Cancelled"><rect fill="#F1F1F1" height="50" rx="12.5" ry="12.5" style="stroke:#181818;stroke-width:0.5;" width="88.8174" x="449.59" y="433"/><line style="stroke:#181818;stroke-width:0.5;" x1="449.59" x2="538.4074" y1="459.2969" y2="459.2969"/><text fill="#000000" font-family="sans-serif" font-size="14" lengthAdjust="spacing" textLength="68.8174" x="459.59" y="450.9951">Cancelled</text></g><g id="Active"><rect fill="#F1F1F1" height="50" rx="12.5" ry="12.5" style="stroke:#181818;stroke-width:0.5;" width="63.5518" x="392.22" y="149"/><line style="stroke:#181818;stroke-width:0.5;" x1="392.22" x2="455.7718" y1="175.2969" y2="175.2969"/><text fill="#000000" font-family="sans-serif" font-size="14" lengthAdjust="spacing" textLength="43.5518" x="402.22" y="166.9951">Active</text></g><g id="Disabled"><rect fill="#F1F1F1" height="50" rx="12.5" ry="12.5" style="stroke:#181818;stroke-width:0.5;" width="80.8193" x="439.59" y="291"/><line style="stroke:#181818;stroke-width:0.5;" x1="439.59" x2="520.4093" y1="317.2969" y2="317.2969"/><text fill="#000000" font-family="sans-serif" font-size="14" lengthAdjust="spacing" textLength="60.8193" x="449.59" y="308.9951">Disabled</text></g><g id="Closed"><rect fill="#F1F1F1" height="50" rx="12.5" ry="12.5" style="stroke:#181818;stroke-width:0.5;" width="67.0244" x="390.49" y="7"/><line style="stroke:#181818;stroke-width:0.5;" x1="390.49" x2="457.5144" y1="33.2969" y2="33.2969"/><text fill="#000000" font-family="sans-serif" font-size="14" lengthAdjust="spacing" textLength="47.0244" x="400.49" y="24.9951">Closed</text></g><!--link *start* to Open--><g id="link_*start*_Open"><path d="M26.39,316 C59.58,316 157.87,316 209.07,316 " fill="none" id="*start*-to-Open" style="stroke:#181818;stroke-width:1.0;"/><polygon fill="#181818" points="215.07,316,206.07,312,210.07,316,206.07,320,215.07,316" style="stroke:#181818;stroke-width:1.0;"/><text fill="#000000" font-family="sans-serif" font-size="13" lengthAdjust="spacing" textLength="43.4814" x="99.4" y="279.0669">Create</text><text fill="#000000" font-family="sans-serif" font-size="13" lengthAdjust="spacing" textLength="88.9814" x="76.65" y="294.1997">Spot Instance</text><text fill="#000000" font-family="sans-serif" font-size="13" lengthAdjust="spacing" textLength="49.7021" x="96.2896" y="309.3325">request</text></g><!--link Open to Failed--><g id="link_Open_Failed"><path d="M241.74,341.39 C239.35,367.08 236.1633,401.3256 233.7933,426.9156 " fill="none" id="Open-to-Failed" style="stroke:#181818;stroke-width:1.0;"/><polygon fill="#181818" points="233.24,432.89,238.0529,424.2972,233.7011,427.9113,230.087,423.5595,233.24,432.89" style="stroke:#181818;stroke-width:1.0;"/></g><!--link Open to Cancelled--><g id="link_Open_Cancelled"><path d="M273.17,333.33 C316.83,357.79 394.2551,401.1382 445.1251,429.6282 " fill="none" id="Open-to-Cancelled" style="stroke:#181818;stroke-width:1.0;"/><polygon fill="#181818" points="450.36,432.56,444.4622,424.6723,445.9976,430.1168,440.5531,431.6522,450.36,432.56" style="stroke:#181818;stroke-width:1.0;"/></g><!--reverse link Active to Open--><g id="link_Active_Open"><path d="M386.0536,180.5167 C337.7136,188.1567 255.64,204.22 237,229 C223.85,246.48 227.98,271.99 233.95,290.69 " fill="none" id="Active-backto-Open" style="stroke:#181818;stroke-width:1.0;"/><polygon fill="#181818" points="391.98,179.58,382.4659,177.034,387.0413,180.3605,383.7148,184.9359,391.98,179.58" style="stroke:#181818;stroke-width:1.0;"/></g><!--link Active to Open--><g id="link_Active_Open"><path d="M392.65,199.39 C358.9,225.63 310.4167,263.3471 277.6467,288.8271 " fill="none" id="Active-to-Open" style="stroke:#008000;stroke-width:1.0;"/><polygon fill="#008000" points="272.91,292.51,282.4703,290.1434,276.8572,289.4409,277.5597,283.8278,272.91,292.51" style="stroke:#008000;stroke-width:1.0;"/><text fill="#008000" font-family="sans-serif" font-size="13" lengthAdjust="spacing" textLength="65.1841" x="352" y="249.5669">persistent</text></g><!--link Active to Cancelled--><g id="link_Active_Cancelled"><path d="M456.21,179.13 C487.08,184.85 532.63,198.23 558,229 C607.78,289.38 623.72,334.99 585,403 C574.91,420.72 561.8688,430.6328 544.2088,439.1128 " fill="none" id="Active-to-Cancelled" style="stroke:#181818;stroke-width:1.0;"/><polygon fill="#181818" points="538.8,441.71,548.6446,441.4201,543.3073,439.5457,545.1817,434.2084,538.8,441.71" style="stroke:#181818;stroke-width:1.0;"/></g><!--link Active to Disabled--><g id="link_Active_Disabled"><path d="M433.75,199.39 C444.03,225.08 457.8909,259.7294 468.1309,285.3194 " fill="none" id="Active-to-Disabled" style="stroke:#008000;stroke-width:1.0;"/><polygon fill="#008000" points="470.36,290.89,470.7301,281.0481,468.5024,286.2479,463.3027,284.0202,470.36,290.89" style="stroke:#008000;stroke-width:1.0;"/><text fill="#000000" font-family="sans-serif" font-size="13" lengthAdjust="spacing" textLength="4.1323" x="493.6582" y="242.0669">&#160;</text><text fill="#000000" font-family="sans-serif" font-size="13" lengthAdjust="spacing" textLength="8.2646" x="459" y="257.1997">&#160;&#160;</text><text fill="#008000" font-family="sans-serif" font-size="13" lengthAdjust="spacing" textLength="65.1841" x="467.2646" y="257.1997">persistent</text></g><!--reverse link Closed to Active--><g id="link_Closed_Active"><path d="M424,63.39 C424,89.08 424,123.3 424,148.89 " fill="none" id="Closed-backto-Active" style="stroke:#0000FF;stroke-width:1.0;"/><polygon fill="#0000FF" points="424,57.39,420,66.39,424,62.39,428,66.39,424,57.39" style="stroke:#0000FF;stroke-width:1.0;"/><text fill="#000000" font-family="sans-serif" font-size="13" lengthAdjust="spacing" textLength="4.1323" x="446.1663" y="100.0669">&#160;</text><text fill="#000000" font-family="sans-serif" font-size="13" lengthAdjust="spacing" textLength="4.1323" x="425" y="115.1997">&#160;</text><text fill="#0000FF" font-family="sans-serif" font-size="13" lengthAdjust="spacing" textLength="42.3325" x="429.1323" y="115.1997">1-time</text></g><!--link Disabled to Cancelled--><g id="link_Disabled_Cancelled"><path d="M482.44,341.39 C485.01,367.08 488.4327,401.3298 490.9927,426.9198 " fill="none" id="Disabled-to-Cancelled" style="stroke:#008000;stroke-width:1.0;"/><polygon fill="#008000" points="491.59,432.89,494.6743,423.5365,491.0923,427.9148,486.714,424.3329,491.59,432.89" style="stroke:#008000;stroke-width:1.0;"/><text fill="#000000" font-family="sans-serif" font-size="13" lengthAdjust="spacing" textLength="4.1323" x="522.592" y="384.0669">&#160;</text><text fill="#000000" font-family="sans-serif" font-size="13" lengthAdjust="spacing" textLength="4.1323" x="490" y="399.1997">&#160;</text><text fill="#008000" font-family="sans-serif" font-size="13" lengthAdjust="spacing" textLength="65.1841" x="494.1323" y="399.1997">persistent</text></g><!--reverse link Open to Disabled--><g id="link_Open_Disabled"><path d="M278.94,316 C320.66,316 391.91,316 439.35,316 " fill="none" id="Open-backto-Disabled" style="stroke:#008000;stroke-width:1.0;"/><polygon fill="#008000" points="272.94,316,281.94,320,277.94,316,281.94,312,272.94,316" style="stroke:#008000;stroke-width:1.0;"/><text fill="#008000" font-family="sans-serif" font-size="13" lengthAdjust="spacing" textLength="65.1841" x="323.64" y="309.0669">persistent</text></g><!--SRC=[ZOzDIyD048Rl-HK3FGX2eBqM2KX4wCc3nxI7JJBeucPcdPa8_didLRSM5NhRVUPzvaDV8kKWOGBY4HKpRDRhoZY3CVHinXECKN2mo5HTQOcdI6Zl6O75dhcg0Bhh0zHID_2GaM0BhM0mtDDZPeCTgGKQ_2luEgEQ2yTSxS9zY0d7GaP7xH9EFsboUkjhlA6ZpyVlQE7TwaaGwN1QvsRWnB8zuYQZQ5H3id-akwYXzvukxWakaETkrQSP5xTDhD_cbxYKcarjSLgsBytFHfOxpim_HfxqTF6P7m00]--></g></svg>