<svg xmlns="http://www.w3.org/2000/svg" xmlns:xlink="http://www.w3.org/1999/xlink" contentStyleType="text/css" height="790px" preserveAspectRatio="none" style="width:978px;height:790px;background:#FFFFFF;" version="1.1" viewBox="0 0 978 790" width="978px" zoomAndPan="magnify"><defs/><g><!--entity root--><g id="elem_root"><rect fill="#FFDBBB" height="52.5938" rx="2.5" ry="2.5" style="stroke:#181818;stroke-width:0.5;" width="204.2627" x="61.62" y="7"/><text fill="#000000" font-family="sans-serif" font-size="14" lengthAdjust="spacing" textLength="4.4502" x="161.5263" y="29.9951">&#160;</text><text fill="#000000" font-family="sans-serif" font-size="14" lengthAdjust="spacing" textLength="184.2627" x="71.62" y="46.292">Who need access to data?</text></g><!--entity ec2--><g id="elem_ec2"><rect fill="#FFDBBB" height="52.5938" rx="2.5" ry="2.5" style="stroke:#181818;stroke-width:0.5;" width="47.5283" x="259.99" y="119.6"/><text fill="#000000" font-family="sans-serif" font-size="14" lengthAdjust="spacing" textLength="4.4502" x="281.5291" y="142.5951">&#160;</text><text fill="#000000" font-family="sans-serif" font-size="14" lengthAdjust="spacing" textLength="27.5283" x="269.99" y="158.892">EC2</text></g><!--entity anywhere--><g id="elem_anywhere"><rect fill="#FFDBBB" height="52.5938" rx="2.5" ry="2.5" style="stroke:#181818;stroke-width:0.5;" width="129.5049" x="7" y="602.57"/><text fill="#000000" font-family="sans-serif" font-size="14" lengthAdjust="spacing" textLength="4.4502" x="69.5273" y="625.5651">&#160;</text><text fill="#000000" font-family="sans-serif" font-size="14" lengthAdjust="spacing" textLength="109.5049" x="17" y="641.862">From anywhere</text></g><!--entity access_pattern--><g id="elem_access_pattern"><rect fill="#FFDBBB" height="52.5938" rx="2.5" ry="2.5" style="stroke:#181818;stroke-width:0.5;" width="161.1895" x="236.16" y="232.19"/><text fill="#000000" font-family="sans-serif" font-size="14" lengthAdjust="spacing" textLength="4.4502" x="314.5296" y="255.1851">&#160;</text><text fill="#000000" font-family="sans-serif" font-size="14" lengthAdjust="spacing" textLength="141.1895" x="246.16" y="271.482">Data access pattern</text></g><!--entity write_heavy--><g id="elem_write_heavy"><rect fill="#FFDBBB" height="68.8906" rx="2.5" ry="2.5" style="stroke:#181818;stroke-width:0.5;" width="102.2842" x="690.61" y="344.78"/><text fill="#000000" font-family="sans-serif" font-size="14" lengthAdjust="spacing" textLength="4.4502" x="739.527" y="367.7751">&#160;</text><text fill="#000000" font-family="sans-serif" font-size="14" lengthAdjust="spacing" textLength="82.2842" x="700.61" y="384.072">write heavy</text><text fill="#000000" font-family="sans-serif" font-size="14" lengthAdjust="spacing" textLength="78.9209" x="700.61" y="400.3689">read heavy</text></g><!--entity write_once--><g id="elem_write_once"><rect fill="#FFDBBB" height="68.8906" rx="2.5" ry="2.5" style="stroke:#181818;stroke-width:0.5;" width="98.9209" x="267.29" y="344.78"/><text fill="#000000" font-family="sans-serif" font-size="14" lengthAdjust="spacing" textLength="4.4502" x="314.5254" y="367.7751">&#160;</text><text fill="#000000" font-family="sans-serif" font-size="14" lengthAdjust="spacing" textLength="73.3975" x="277.29" y="384.072">write once</text><text fill="#000000" font-family="sans-serif" font-size="14" lengthAdjust="spacing" textLength="78.9209" x="277.29" y="400.3689">read heavy</text></g><!--entity s3_support--><g id="elem_s3_support"><rect fill="#FFDBBB" height="68.8906" rx="2.5" ry="2.5" style="stroke:#181818;stroke-width:0.5;" width="162.7207" x="235.39" y="473.68"/><text fill="#000000" font-family="sans-serif" font-size="14" lengthAdjust="spacing" textLength="4.4502" x="314.5253" y="496.6751">&#160;</text><text fill="#000000" font-family="sans-serif" font-size="14" lengthAdjust="spacing" textLength="142.7207" x="245.39" y="512.972">application supports</text><text fill="#000000" font-family="sans-serif" font-size="14" lengthAdjust="spacing" textLength="111.2686" x="263.1908" y="529.2689">S3 Integration ?</text></g><!--entity os--><g id="elem_os"><rect fill="#FFDBBB" height="52.5938" rx="2.5" ry="2.5" style="stroke:#181818;stroke-width:0.5;" width="156.9375" x="438.28" y="602.57"/><text fill="#000000" font-family="sans-serif" font-size="14" lengthAdjust="spacing" textLength="4.4502" x="514.5237" y="625.5651">&#160;</text><text fill="#000000" font-family="sans-serif" font-size="14" lengthAdjust="spacing" textLength="136.9375" x="448.28" y="641.862">Operating system ?</text></g><!--entity data_persistence--><g id="elem_data_persistence"><rect fill="#FFDBBB" height="52.5938" rx="2.5" ry="2.5" style="stroke:#181818;stroke-width:0.5;" width="148.8848" x="671.31" y="481.82"/><text fill="#000000" font-family="sans-serif" font-size="14" lengthAdjust="spacing" textLength="4.4502" x="743.5273" y="504.8151">&#160;</text><text fill="#000000" font-family="sans-serif" font-size="14" lengthAdjust="spacing" textLength="128.8848" x="681.31" y="521.112">data persistence ?</text></g><!--entity instance_store--><g id="elem_instance_store"><rect fill="#90EE90" height="68.8906" rx="2.5" ry="2.5" style="stroke:#181818;stroke-width:0.5;" width="87.4092" x="702.05" y="715.16"/><text fill="#000000" font-family="sans-serif" font-size="14" lengthAdjust="spacing" textLength="4.4502" x="743.5295" y="738.1551">&#160;</text><text fill="#000000" font-family="sans-serif" font-size="14" font-weight="bold" lengthAdjust="spacing" textLength="67.4092" x="712.05" y="754.452">Instance</text><text fill="#000000" font-family="sans-serif" font-size="14" lengthAdjust="spacing" textLength="13.3506" x="712.05" y="770.7489">&#160;&#160;&#160;</text><text fill="#000000" font-family="sans-serif" font-size="14" font-weight="bold" lengthAdjust="spacing" textLength="41.043" x="725.4006" y="770.7489">store</text></g><!--entity ebs--><g id="elem_ebs"><rect fill="#90EE90" height="52.5938" rx="2.5" ry="2.5" style="stroke:#181818;stroke-width:0.5;" width="50.3174" x="922.59" y="723.31"/><text fill="#000000" font-family="sans-serif" font-size="14" lengthAdjust="spacing" textLength="4.4502" x="945.5236" y="746.3051">&#160;</text><text fill="#000000" font-family="sans-serif" font-size="14" font-weight="bold" lengthAdjust="spacing" textLength="30.3174" x="932.59" y="762.602">EBS</text></g><!--entity s3--><g id="elem_s3"><rect fill="#FFA500" height="52.5938" rx="2.5" ry="2.5" style="stroke:#181818;stroke-width:0.5;" width="95.6465" x="115.93" y="723.31"/><text fill="#000000" font-family="sans-serif" font-size="14" lengthAdjust="spacing" textLength="4.4502" x="161.5281" y="746.3051">&#160;</text><text fill="#000000" font-family="sans-serif" font-size="14" lengthAdjust="spacing" textLength="17.7939" x="157.0814" y="762.602">S3</text></g><!--entity efs--><g id="elem_efs"><rect fill="#ADD8E6" height="52.5938" rx="2.5" ry="2.5" style="stroke:#181818;stroke-width:0.5;" width="49.21" x="372.15" y="723.31"/><text fill="#000000" font-family="sans-serif" font-size="14" lengthAdjust="spacing" textLength="4.4502" x="394.5299" y="746.3051">&#160;</text><text fill="#000000" font-family="sans-serif" font-size="14" font-weight="bold" lengthAdjust="spacing" textLength="29.21" x="382.15" y="762.602">EFS</text></g><!--entity fsx--><g id="elem_fsx"><rect fill="#FFA500" height="52.5938" rx="2.5" ry="2.5" style="stroke:#181818;stroke-width:0.5;" width="50.4404" x="521.53" y="723.31"/><text fill="#000000" font-family="sans-serif" font-size="14" lengthAdjust="spacing" textLength="4.4502" x="544.5251" y="746.3051">&#160;</text><text fill="#000000" font-family="sans-serif" font-size="14" font-weight="bold" lengthAdjust="spacing" textLength="30.4404" x="531.53" y="762.602">FSX</text></g><g id="elem_GMN16"><path d="M466.59,366.66 L466.59,376.05 L366.66,380.05 L466.59,384.05 L466.59,391.7928 A0,0 0 0 0 466.59,391.7928 L574.9147,391.7928 A0,0 0 0 0 574.9147,391.7928 L574.9147,376.66 L564.9147,366.66 L466.59,366.66 A0,0 0 0 0 466.59,366.66 " fill="#FEFFDD" style="stroke:#181818;stroke-width:0.5;"/><path d="M564.9147,366.66 L564.9147,376.66 L574.9147,376.66 L564.9147,366.66 " fill="#FEFFDD" style="stroke:#181818;stroke-width:0.5;"/><text fill="#000000" font-family="sans-serif" font-size="13" font-weight="bold" lengthAdjust="spacing" textLength="87.3247" x="472.59" y="383.7269">File storage</text></g><g id="elem_GMN19"><path d="M681.07,245.92 L681.07,271.0528 A0,0 0 0 0 681.07,271.0528 L737.75,271.0528 L741.75,344.41 L745.75,271.0528 L802.4328,271.0528 A0,0 0 0 0 802.4328,271.0528 L802.4328,255.92 L792.4328,245.92 L681.07,245.92 A0,0 0 0 0 681.07,245.92 " fill="#FEFFDD" style="stroke:#181818;stroke-width:0.5;"/><path d="M792.4328,245.92 L792.4328,255.92 L802.4328,255.92 L792.4328,245.92 " fill="#FEFFDD" style="stroke:#181818;stroke-width:0.5;"/><text fill="#000000" font-family="sans-serif" font-size="13" font-weight="bold" lengthAdjust="spacing" textLength="100.3628" x="687.07" y="262.9869">Block storage</text></g><!--link root to ec2--><g id="link_root_ec2"><path d="M248.07,60.02 C248.07,93.36 248.07,146.05 248.07,146.05 C248.07,146.05 247.3,146.05 253.76,146.05 " fill="none" id="root-to-ec2" style="stroke:#181818;stroke-width:1.0;"/><polygon fill="#181818" points="259.76,146.05,250.76,142.05,254.76,146.05,250.76,150.05,259.76,146.05" style="stroke:#181818;stroke-width:1.0;"/></g><!--link root to anywhere--><g id="link_root_anywhere"><path d="M99.06,60.05 C99.06,158.96 99.06,497.4 99.06,596.19 " fill="none" id="root-to-anywhere" style="stroke:#181818;stroke-width:1.0;"/><polygon fill="#181818" points="99.06,602.19,103.06,593.19,99.06,597.19,95.06,593.19,99.06,602.19" style="stroke:#181818;stroke-width:1.0;"/></g><!--link ec2 to access_pattern--><g id="link_ec2_access_pattern"><path d="M283.75,172.58 C283.75,190.53 283.75,208.09 283.75,226 " fill="none" id="ec2-to-access_pattern" style="stroke:#181818;stroke-width:1.0;"/><polygon fill="#181818" points="283.75,232,287.75,223,283.75,227,279.75,223,283.75,232" style="stroke:#181818;stroke-width:1.0;"/></g><!--link access_pattern to write_heavy--><g id="link_access_pattern_write_heavy"><path d="M381.78,285.15 C381.78,314.03 381.78,356.05 381.78,356.05 C381.78,356.05 584.64,356.05 684.18,356.05 " fill="none" id="access_pattern-to-write_heavy" style="stroke:#181818;stroke-width:1.0;"/><polygon fill="#181818" points="690.18,356.05,681.18,352.05,685.18,356.05,681.18,360.05,690.18,356.05" style="stroke:#181818;stroke-width:1.0;"/></g><!--link access_pattern to write_once--><g id="link_access_pattern_write_once"><path d="M316.75,285.28 C316.75,302.79 316.75,319.82 316.75,338.7 " fill="none" id="access_pattern-to-write_once" style="stroke:#181818;stroke-width:1.0;"/><polygon fill="#181818" points="316.75,344.7,320.75,335.7,316.75,339.7,312.75,335.7,316.75,344.7" style="stroke:#181818;stroke-width:1.0;"/></g><!--link write_once to s3_support--><g id="link_write_once_s3_support"><path d="M316.75,414.11 C316.75,432.45 316.75,448.87 316.75,467.21 " fill="none" id="write_once-to-s3_support" style="stroke:#181818;stroke-width:1.0;"/><polygon fill="#181818" points="316.75,473.21,320.75,464.21,316.75,468.21,312.75,464.21,316.75,473.21" style="stroke:#181818;stroke-width:1.0;"/></g><!--link s3_support to s3--><g id="link_s3_support_s3"><path d="M234.98,509.05 C203.09,509.05 174.04,509.05 174.04,509.05 C174.04,509.05 174.04,654.31 174.04,716.94 " fill="none" id="s3_support-to-s3" style="stroke:#181818;stroke-width:1.0;"/><polygon fill="#181818" points="174.04,722.94,178.04,713.94,174.04,717.94,170.04,713.94,174.04,722.94" style="stroke:#181818;stroke-width:1.0;"/><text fill="#000000" font-family="sans-serif" font-size="13" lengthAdjust="spacing" textLength="22.7119" x="143.04" y="581.5969">Yes</text></g><!--link s3_support to os--><g id="link_s3_support_os"><path d="M398.42,539.05 C427.16,539.05 452.44,539.05 452.44,539.05 C452.44,539.05 452.44,569.91 452.44,596.4 " fill="none" id="s3_support-to-os" style="stroke:#181818;stroke-width:1.0;"/><polygon fill="#181818" points="452.44,602.4,456.44,593.4,452.44,597.4,448.44,593.4,452.44,602.4" style="stroke:#181818;stroke-width:1.0;"/><text fill="#000000" font-family="sans-serif" font-size="13" lengthAdjust="spacing" textLength="17.6782" x="434.44" y="524.7869">No</text><text fill="#000000" font-family="sans-serif" font-size="13" lengthAdjust="spacing" textLength="4.1323" x="441.2129" y="539.9197">&#160;</text></g><!--link os to efs--><g id="link_os_efs"><path d="M437.85,629.05 C421.81,629.05 409.74,629.05 409.74,629.05 C409.74,629.05 409.74,681.33 409.74,716.85 " fill="none" id="os-to-efs" style="stroke:#181818;stroke-width:1.0;"/><polygon fill="#181818" points="409.74,722.85,413.74,713.85,409.74,717.85,405.74,713.85,409.74,722.85" style="stroke:#181818;stroke-width:1.0;"/><text fill="#000000" font-family="sans-serif" font-size="13" lengthAdjust="spacing" textLength="31.3955" x="369.74" y="657.9569">linux</text></g><!--link os to fsx--><g id="link_os_fsx"><path d="M546.75,655.66 C546.75,675.67 546.75,696.89 546.75,716.88 " fill="none" id="os-to-fsx" style="stroke:#181818;stroke-width:1.0;"/><polygon fill="#181818" points="546.75,722.88,550.75,713.88,546.75,717.88,542.75,713.88,546.75,722.88" style="stroke:#181818;stroke-width:1.0;"/><text fill="#000000" font-family="sans-serif" font-size="13" lengthAdjust="spacing" textLength="56.0942" x="481.75" y="685.3369">windows</text></g><!--link write_heavy to data_persistence--><g id="link_write_heavy_data_persistence"><path d="M741.75,414.11 C741.75,435.28 741.75,455.89 741.75,475.39 " fill="none" id="write_heavy-to-data_persistence" style="stroke:#181818;stroke-width:1.0;"/><polygon fill="#181818" points="741.75,481.39,745.75,472.39,741.75,476.39,737.75,472.39,741.75,481.39" style="stroke:#181818;stroke-width:1.0;"/></g><!--link data_persistence to instance_store--><g id="link_data_persistence_instance_store"><path d="M745.75,534.89 C745.75,578.85 745.75,660.31 745.75,708.95 " fill="none" id="data_persistence-to-instance_store" style="stroke:#181818;stroke-width:1.0;"/><polygon fill="#181818" points="745.75,714.95,749.75,705.95,745.75,709.95,741.75,705.95,745.75,714.95" style="stroke:#181818;stroke-width:1.0;"/><text fill="#000000" font-family="sans-serif" font-size="13" lengthAdjust="spacing" textLength="17.6782" x="719.75" y="620.9869">No</text></g><!--link data_persistence to ebs--><g id="link_data_persistence_ebs"><path d="M804.83,534.47 C804.83,597.17 804.83,750.05 804.83,750.05 C804.83,750.05 875.09,750.05 916.2,750.05 " fill="none" id="data_persistence-to-ebs" style="stroke:#181818;stroke-width:1.0;"/><polygon fill="#181818" points="922.2,750.05,913.2,746.05,917.2,750.05,913.2,754.05,922.2,750.05" style="stroke:#181818;stroke-width:1.0;"/><text fill="#000000" font-family="sans-serif" font-size="13" lengthAdjust="spacing" textLength="22.7119" x="777.83" y="697.0169">Yes</text></g><!--link anywhere to s3--><g id="link_anywhere_s3"><path d="M126.22,655.66 C126.22,675.67 126.22,696.89 126.22,716.88 " fill="none" id="anywhere-to-s3" style="stroke:#181818;stroke-width:1.0;"/><polygon fill="#181818" points="126.22,722.88,130.22,713.88,126.22,717.88,122.22,713.88,126.22,722.88" style="stroke:#181818;stroke-width:1.0;"/></g><!--SRC=[ZLHjQzim4FwkNt7n0cjSXNKj-p9I5x8cKDYoGJksGi0ezjaHTIGZAKi3_V4x-OKutLfNNwnxxhbNtNcGRLNYf5OmbDb2kzccTFkJuHzHR973qA3R6ZLY0vb13SBb9QXjKS3JKmS90WPq1ZNVYmCiB1w1ZJFIg5HcrQSDpfXzaAeKHcn0wHGjbl3nx8ozFy16g0SFVphhS0kfqErB16tSMhD1YXaXyEFdjw_nR75tStT_Wh4dSC0uqOKs76DR6kcGBeLOOK5VKKXXlSAXGJq2g6rQ4mYwhMbf78B993XjnTCWYfOg63LU0vXCXcseA08G5ff0RypoA3dAwJMsVuz_wl7WYB6kdS742PKNoD_DvzVJwPJ_McjGY2c8945hmMb8XHDNt6ZjHZt6io_d79FpFjhSw0q8jT-jgL6ylVHPNLCQRLQbSDHanMinRiG-3plVUrYZ-BDVAeCYhUyr7bVtjxdGAi7_UF1mdmDHbeLCHBLWTbkMDATsgVnMt5x0ZNAOcrfvnUr5t33wd7ulqLkf7EoUfcz3njhsFhL_Lo1BAyc6KYSh3yKTwCN0XSpNBZU8YeVXZRA49nY6LILXQ9qs977PAE8AU9kpsVIMB75bNwHhslmSUG3reRvL9w26lHvYvNzX565UHSXw8uJX_FOtKJFxICrKcbxUU3-WCpYyE7o6oIgQomB1bobod7nOHJNTwV90haQbPayBdJmSqPdVBnYdumXeWpfIknwCu0Ov6dfsBDQKJi1Nz3vxrYcaKXscZXskNbNfAFtW7Yrr-vas0cr9kT1BnUXM5v9vAA1_ylRHMxGuzTFZEwbIlQjyTHjKKPuF8diED1aTJvZtkj3UuGjq6gksWe2rdONnU6p6TNr_0G00]--></g></svg>