<?xml version="1.0" encoding="us-ascii" standalone="no"?><svg xmlns="http://www.w3.org/2000/svg" xmlns:xlink="http://www.w3.org/1999/xlink" contentStyleType="text/css" height="963px" preserveAspectRatio="none" style="width:590px;height:963px;background:#FFFFFF;" version="1.1" viewBox="0 0 590 963" width="590px" zoomAndPan="magnify"><defs/><g><rect fill="#F1F1F1" height="52.9766" rx="12.5" ry="12.5" style="stroke:#181818;stroke-width:1.5;" width="117" x="10" y="454.0967"/><text fill="#000000" font-family="sans-serif" font-size="14" lengthAdjust="spacing" textLength="27" x="20" y="477.6318">EC2</text><text fill="#000000" font-family="sans-serif" font-size="14" lengthAdjust="spacing" textLength="97" x="20" y="494.1201">instance types</text><rect fill="#F1F1F1" height="85.9531" rx="12.5" ry="12.5" style="stroke:#181818;stroke-width:1.5;" width="264" x="177" y="96.4414"/><text fill="#000000" font-family="sans-serif" font-size="14" font-weight="bold" lengthAdjust="spacing" textLength="117" x="187" y="119.9766">General Purpose</text><text fill="#000000" font-family="sans-serif" font-size="14" lengthAdjust="spacing" textLength="184" x="187" y="136.4648">(good balance of compute,</text><text fill="#000000" font-family="sans-serif" font-size="14" lengthAdjust="spacing" textLength="244" x="187" y="152.9531">memory and networking resources)</text><text fill="#000000" font-family="sans-serif" font-size="14" lengthAdjust="spacing" textLength="232" x="187" y="169.4414">(web-servers &amp; code repositories)</text><text fill="#000000" font-family="sans-serif" font-size="14" lengthAdjust="spacing" textLength="30" x="494" y="24.5352">M7g</text><path d="M441,139.418 L451,139.418 C466,139.418 466,19.2441 481,19.2441 L491,19.2441 " fill="none" style="stroke:#181818;stroke-width:1.0;"/><text fill="#000000" font-family="sans-serif" font-size="14" lengthAdjust="spacing" textLength="25" x="494" y="43.0234">M7i</text><path d="M441,139.418 L451,139.418 C466,139.418 466,37.7324 481,37.7324 L491,37.7324 " fill="none" style="stroke:#181818;stroke-width:1.0;"/><text fill="#000000" font-family="sans-serif" font-size="14" lengthAdjust="spacing" textLength="59" x="494" y="61.5117">M7i-flex</text><path d="M441,139.418 L451,139.418 C466,139.418 466,56.2207 481,56.2207 L491,56.2207 " fill="none" style="stroke:#181818;stroke-width:1.0;"/><text fill="#000000" font-family="sans-serif" font-size="14" lengthAdjust="spacing" textLength="29" x="494" y="80">M7a</text><path d="M441,139.418 L451,139.418 C466,139.418 466,74.709 481,74.709 L491,74.709 " fill="none" style="stroke:#181818;stroke-width:1.0;"/><text fill="#000000" font-family="sans-serif" font-size="14" lengthAdjust="spacing" textLength="27" x="494" y="98.4883">Mac</text><path d="M441,139.418 L451,139.418 C466,139.418 466,93.1973 481,93.1973 L491,93.1973 " fill="none" style="stroke:#181818;stroke-width:1.0;"/><text fill="#000000" font-family="sans-serif" font-size="14" lengthAdjust="spacing" textLength="30" x="494" y="116.9766">M6g</text><path d="M441,139.418 L451,139.418 C466,139.418 466,111.6855 481,111.6855 L491,111.6855 " fill="none" style="stroke:#181818;stroke-width:1.0;"/><text fill="#000000" font-family="sans-serif" font-size="14" lengthAdjust="spacing" textLength="25" x="494" y="135.4648">M6i</text><path d="M441,139.418 L451,139.418 C466,139.418 466,130.1738 481,130.1738 L491,130.1738 " fill="none" style="stroke:#181818;stroke-width:1.0;"/><text fill="#000000" font-family="sans-serif" font-size="14" lengthAdjust="spacing" textLength="21" x="494" y="153.9531">M5</text><path d="M441,139.418 L451,139.418 C466,139.418 466,148.6621 481,148.6621 L491,148.6621 " fill="none" style="stroke:#181818;stroke-width:1.0;"/><text fill="#000000" font-family="sans-serif" font-size="14" lengthAdjust="spacing" textLength="30" x="494" y="172.4414">M5n</text><path d="M441,139.418 L451,139.418 C466,139.418 466,167.1504 481,167.1504 L491,167.1504 " fill="none" style="stroke:#181818;stroke-width:1.0;"/><text fill="#000000" font-family="sans-serif" font-size="14" lengthAdjust="spacing" textLength="29" x="494" y="190.9297">M5a</text><path d="M441,139.418 L451,139.418 C466,139.418 466,185.6387 481,185.6387 L491,185.6387 " fill="none" style="stroke:#181818;stroke-width:1.0;"/><text fill="#000000" font-family="sans-serif" font-size="14" lengthAdjust="spacing" textLength="27" x="494" y="209.418">T4g</text><path d="M441,139.418 L451,139.418 C466,139.418 466,204.127 481,204.127 L491,204.127 " fill="none" style="stroke:#181818;stroke-width:1.0;"/><text fill="#000000" font-family="sans-serif" font-size="14" lengthAdjust="spacing" textLength="18" x="494" y="227.9063">T3</text><path d="M441,139.418 L451,139.418 C466,139.418 466,222.6152 481,222.6152 L491,222.6152 " fill="none" style="stroke:#181818;stroke-width:1.0;"/><text fill="#000000" font-family="sans-serif" font-size="14" lengthAdjust="spacing" textLength="26" x="494" y="246.3945">T3a</text><path d="M441,139.418 L451,139.418 C466,139.418 466,241.1035 481,241.1035 L491,241.1035 " fill="none" style="stroke:#181818;stroke-width:1.0;"/><text fill="#000000" font-family="sans-serif" font-size="14" lengthAdjust="spacing" textLength="18" x="494" y="264.8828">T2</text><path d="M441,139.418 L451,139.418 C466,139.418 466,259.5918 481,259.5918 L491,259.5918 " fill="none" style="stroke:#181818;stroke-width:1.0;"/><path d="M127,480.585 L137,480.585 C152,480.585 152,139.418 167,139.418 L177,139.418 " fill="none" style="stroke:#181818;stroke-width:1.0;"/><rect fill="#F1F1F1" height="184.8828" rx="12.5" ry="12.5" style="stroke:#181818;stroke-width:1.5;" width="273" x="177" y="278.8359"/><text fill="#000000" font-family="sans-serif" font-size="14" font-weight="bold" lengthAdjust="spacing" textLength="146" x="187" y="302.3711">Compute Optimized</text><text fill="#000000" font-family="sans-serif" font-size="14" lengthAdjust="spacing" textLength="152" x="187" y="318.8594">(compute applications</text><text fill="#000000" font-family="sans-serif" font-size="14" lengthAdjust="spacing" textLength="245" x="187" y="335.3477">need high performance processors)</text><text fill="#000000" font-family="sans-serif" font-size="14" lengthAdjust="spacing" textLength="201" x="187" y="351.8359">(batch processing workloads,</text><text fill="#000000" font-family="sans-serif" font-size="14" lengthAdjust="spacing" textLength="132" x="187" y="368.3242">media transcoding,</text><text fill="#000000" font-family="sans-serif" font-size="14" lengthAdjust="spacing" textLength="212" x="187" y="384.8125">high performance web servers,</text><text fill="#000000" font-family="sans-serif" font-size="14" lengthAdjust="spacing" textLength="247" x="187" y="401.3008">high performance computing (HPC),</text><text fill="#000000" font-family="sans-serif" font-size="14" lengthAdjust="spacing" textLength="133" x="187" y="417.7891">scientific modeling,</text><text fill="#000000" font-family="sans-serif" font-size="14" lengthAdjust="spacing" textLength="206" x="187" y="434.2773">dedicated gaming servers and</text><text fill="#000000" font-family="sans-serif" font-size="14" lengthAdjust="spacing" textLength="253" x="187" y="450.7656">ad server engines, machine learning)</text><text fill="#000000" font-family="sans-serif" font-size="14" lengthAdjust="spacing" textLength="28" x="503" y="302.6152">C7g</text><path d="M450,371.2773 L460,371.2773 C475,371.2773 475,297.3242 490,297.3242 L500,297.3242 " fill="none" style="stroke:#181818;stroke-width:1.0;"/><text fill="#000000" font-family="sans-serif" font-size="14" lengthAdjust="spacing" textLength="37" x="503" y="321.1035">C7gn</text><path d="M450,371.2773 L460,371.2773 C475,371.2773 475,315.8125 490,315.8125 L500,315.8125 " fill="none" style="stroke:#181818;stroke-width:1.0;"/><text fill="#000000" font-family="sans-serif" font-size="14" lengthAdjust="spacing" textLength="23" x="503" y="339.5918">C7i</text><path d="M450,371.2773 L460,371.2773 C475,371.2773 475,334.3008 490,334.3008 L500,334.3008 " fill="none" style="stroke:#181818;stroke-width:1.0;"/><text fill="#000000" font-family="sans-serif" font-size="14" lengthAdjust="spacing" textLength="57" x="503" y="358.0801">C7i-flex</text><path d="M450,371.2773 L460,371.2773 C475,371.2773 475,352.7891 490,352.7891 L500,352.7891 " fill="none" style="stroke:#181818;stroke-width:1.0;"/><text fill="#000000" font-family="sans-serif" font-size="14" lengthAdjust="spacing" textLength="28" x="503" y="376.5684">C6g</text><path d="M450,371.2773 L460,371.2773 C475,371.2773 475,371.2773 490,371.2773 L500,371.2773 " fill="none" style="stroke:#181818;stroke-width:1.0;"/><text fill="#000000" font-family="sans-serif" font-size="14" lengthAdjust="spacing" textLength="19" x="503" y="395.0566">C5</text><path d="M450,371.2773 L460,371.2773 C475,371.2773 475,389.7656 490,389.7656 L500,389.7656 " fill="none" style="stroke:#181818;stroke-width:1.0;"/><text fill="#000000" font-family="sans-serif" font-size="14" lengthAdjust="spacing" textLength="28" x="503" y="413.5449">C5n</text><path d="M450,371.2773 L460,371.2773 C475,371.2773 475,408.2539 490,408.2539 L500,408.2539 " fill="none" style="stroke:#181818;stroke-width:1.0;"/><text fill="#000000" font-family="sans-serif" font-size="14" lengthAdjust="spacing" textLength="27" x="503" y="432.0332">C5a</text><path d="M450,371.2773 L460,371.2773 C475,371.2773 475,426.7422 490,426.7422 L500,426.7422 " fill="none" style="stroke:#181818;stroke-width:1.0;"/><text fill="#000000" font-family="sans-serif" font-size="14" lengthAdjust="spacing" textLength="19" x="503" y="450.5215">C4</text><path d="M450,371.2773 L460,371.2773 C475,371.2773 475,445.2305 490,445.2305 L500,445.2305 " fill="none" style="stroke:#181818;stroke-width:1.0;"/><path d="M127,480.585 L137,480.585 C152,480.585 152,371.2773 167,371.2773 L177,371.2773 " fill="none" style="stroke:#181818;stroke-width:1.0;"/><rect fill="#F1F1F1" height="135.418" rx="12.5" ry="12.5" style="stroke:#181818;stroke-width:1.5;" width="291" x="177" y="488.4512"/><text fill="#000000" font-family="sans-serif" font-size="14" font-weight="bold" lengthAdjust="spacing" textLength="139" x="187" y="511.9863">Memory Optimized</text><text fill="#000000" font-family="sans-serif" font-size="14" lengthAdjust="spacing" textLength="271" x="187" y="528.4746">(deliver fast performance for workloads</text><text fill="#000000" font-family="sans-serif" font-size="14" lengthAdjust="spacing" textLength="270" x="187" y="544.9629">that process large data sets in memory)</text><text fill="#000000" font-family="sans-serif" font-size="14" lengthAdjust="spacing" textLength="201" x="187" y="561.4512">(high-performance relational</text><text fill="#000000" font-family="sans-serif" font-size="14" lengthAdjust="spacing" textLength="177" x="187" y="577.9395">non-relational databases,</text><text fill="#000000" font-family="sans-serif" font-size="14" lengthAdjust="spacing" textLength="242" x="187" y="594.4277">distributed web-scale cache stores,</text><text fill="#000000" font-family="sans-serif" font-size="14" lengthAdjust="spacing" textLength="268" x="187" y="610.916">in-memory databases optimized for BI)</text><text fill="#000000" font-family="sans-serif" font-size="14" lengthAdjust="spacing" textLength="27" x="521" y="469.0098">R8g</text><path d="M468,556.1602 L478,556.1602 C493,556.1602 493,463.7188 508,463.7188 L518,463.7188 " fill="none" style="stroke:#181818;stroke-width:1.0;"/><text fill="#000000" font-family="sans-serif" font-size="14" lengthAdjust="spacing" textLength="27" x="521" y="487.498">R7g</text><path d="M468,556.1602 L478,556.1602 C493,556.1602 493,482.207 508,482.207 L518,482.207 " fill="none" style="stroke:#181818;stroke-width:1.0;"/><text fill="#000000" font-family="sans-serif" font-size="14" lengthAdjust="spacing" textLength="22" x="521" y="505.9863">R7i</text><path d="M468,556.1602 L478,556.1602 C493,556.1602 493,500.6953 508,500.6953 L518,500.6953 " fill="none" style="stroke:#181818;stroke-width:1.0;"/><text fill="#000000" font-family="sans-serif" font-size="14" lengthAdjust="spacing" textLength="27" x="521" y="524.4746">R6g</text><path d="M468,556.1602 L478,556.1602 C493,556.1602 493,519.1836 508,519.1836 L518,519.1836 " fill="none" style="stroke:#181818;stroke-width:1.0;"/><text fill="#000000" font-family="sans-serif" font-size="14" lengthAdjust="spacing" textLength="22" x="521" y="542.9629">R6i</text><path d="M468,556.1602 L478,556.1602 C493,556.1602 493,537.6719 508,537.6719 L518,537.6719 " fill="none" style="stroke:#181818;stroke-width:1.0;"/><text fill="#000000" font-family="sans-serif" font-size="14" lengthAdjust="spacing" textLength="18" x="521" y="561.4512">R5</text><path d="M468,556.1602 L478,556.1602 C493,556.1602 493,556.1602 508,556.1602 L518,556.1602 " fill="none" style="stroke:#181818;stroke-width:1.0;"/><text fill="#000000" font-family="sans-serif" font-size="14" lengthAdjust="spacing" textLength="27" x="521" y="579.9395">R5n</text><path d="M468,556.1602 L478,556.1602 C493,556.1602 493,574.6484 508,574.6484 L518,574.6484 " fill="none" style="stroke:#181818;stroke-width:1.0;"/><text fill="#000000" font-family="sans-serif" font-size="14" lengthAdjust="spacing" textLength="18" x="521" y="598.4277">R4</text><path d="M468,556.1602 L478,556.1602 C493,556.1602 493,593.1367 508,593.1367 L518,593.1367 " fill="none" style="stroke:#181818;stroke-width:1.0;"/><text fill="#000000" font-family="sans-serif" font-size="14" lengthAdjust="spacing" textLength="23" x="521" y="616.916">U7i</text><path d="M468,556.1602 L478,556.1602 C493,556.1602 493,611.625 508,611.625 L518,611.625 " fill="none" style="stroke:#181818;stroke-width:1.0;"/><text fill="#000000" font-family="sans-serif" font-size="14" lengthAdjust="spacing" textLength="26" x="521" y="635.4043">X1e</text><path d="M468,556.1602 L478,556.1602 C493,556.1602 493,630.1133 508,630.1133 L518,630.1133 " fill="none" style="stroke:#181818;stroke-width:1.0;"/><text fill="#000000" font-family="sans-serif" font-size="14" lengthAdjust="spacing" textLength="26" x="521" y="653.8926">z1d</text><path d="M468,556.1602 L478,556.1602 C493,556.1602 493,648.6016 508,648.6016 L518,648.6016 " fill="none" style="stroke:#181818;stroke-width:1.0;"/><path d="M127,480.585 L137,480.585 C152,480.585 152,556.1602 167,556.1602 L177,556.1602 " fill="none" style="stroke:#181818;stroke-width:1.0;"/><rect fill="#F1F1F1" height="135.418" rx="12.5" ry="12.5" style="stroke:#181818;stroke-width:1.5;" width="315" x="177" y="691.8223"/><text fill="#000000" font-family="sans-serif" font-size="14" font-weight="bold" lengthAdjust="spacing" textLength="167" x="187" y="715.3574">Accelerated Computing</text><text fill="#000000" font-family="sans-serif" font-size="14" lengthAdjust="spacing" textLength="161" x="187" y="731.8457">(hardware accelerators,</text><text fill="#000000" font-family="sans-serif" font-size="14" lengthAdjust="spacing" textLength="122" x="187" y="748.334">or co-processors,</text><text fill="#000000" font-family="sans-serif" font-size="14" lengthAdjust="spacing" textLength="146" x="187" y="764.8223">to perform functions,</text><text fill="#000000" font-family="sans-serif" font-size="14" lengthAdjust="spacing" textLength="295" x="187" y="781.3105">such as floating point number calculations,</text><text fill="#000000" font-family="sans-serif" font-size="14" lengthAdjust="spacing" textLength="161" x="187" y="797.7988">graphics processing, or</text><text fill="#000000" font-family="sans-serif" font-size="14" lengthAdjust="spacing" textLength="157" x="187" y="814.2871">data pattern matching)</text><text fill="#000000" font-family="sans-serif" font-size="14" lengthAdjust="spacing" textLength="17" x="545" y="672.3809">P5</text><path d="M492,759.5313 L502,759.5313 C517,759.5313 517,667.0898 532,667.0898 L542,667.0898 " fill="none" style="stroke:#181818;stroke-width:1.0;"/><text fill="#000000" font-family="sans-serif" font-size="14" lengthAdjust="spacing" textLength="17" x="545" y="690.8691">P4</text><path d="M492,759.5313 L502,759.5313 C517,759.5313 517,685.5781 532,685.5781 L542,685.5781 " fill="none" style="stroke:#181818;stroke-width:1.0;"/><text fill="#000000" font-family="sans-serif" font-size="14" lengthAdjust="spacing" textLength="17" x="545" y="709.3574">P3</text><path d="M492,759.5313 L502,759.5313 C517,759.5313 517,704.0664 532,704.0664 L542,704.0664 " fill="none" style="stroke:#181818;stroke-width:1.0;"/><text fill="#000000" font-family="sans-serif" font-size="14" lengthAdjust="spacing" textLength="17" x="545" y="727.8457">P2</text><path d="M492,759.5313 L502,759.5313 C517,759.5313 517,722.5547 532,722.5547 L542,722.5547 " fill="none" style="stroke:#181818;stroke-width:1.0;"/><text fill="#000000" font-family="sans-serif" font-size="14" lengthAdjust="spacing" textLength="19" x="545" y="746.334">G6</text><path d="M492,759.5313 L502,759.5313 C517,759.5313 517,741.043 532,741.043 L542,741.043 " fill="none" style="stroke:#181818;stroke-width:1.0;"/><text fill="#000000" font-family="sans-serif" font-size="14" lengthAdjust="spacing" textLength="28" x="545" y="764.8223">G5g</text><path d="M492,759.5313 L502,759.5313 C517,759.5313 517,759.5313 532,759.5313 L542,759.5313 " fill="none" style="stroke:#181818;stroke-width:1.0;"/><text fill="#000000" font-family="sans-serif" font-size="14" lengthAdjust="spacing" textLength="33" x="545" y="783.3105">Trn1</text><path d="M492,759.5313 L502,759.5313 C517,759.5313 517,778.0195 532,778.0195 L542,778.0195 " fill="none" style="stroke:#181818;stroke-width:1.0;"/><text fill="#000000" font-family="sans-serif" font-size="14" lengthAdjust="spacing" textLength="27" x="545" y="801.7988">Inf2</text><path d="M492,759.5313 L502,759.5313 C517,759.5313 517,796.5078 532,796.5078 L542,796.5078 " fill="none" style="stroke:#181818;stroke-width:1.0;"/><text fill="#000000" font-family="sans-serif" font-size="14" lengthAdjust="spacing" textLength="26" x="545" y="820.2871">DL1</text><path d="M492,759.5313 L502,759.5313 C517,759.5313 517,814.9961 532,814.9961 L542,814.9961 " fill="none" style="stroke:#181818;stroke-width:1.0;"/><text fill="#000000" font-family="sans-serif" font-size="14" lengthAdjust="spacing" textLength="17" x="545" y="838.7754">F1</text><path d="M492,759.5313 L502,759.5313 C517,759.5313 517,833.4844 532,833.4844 L542,833.4844 " fill="none" style="stroke:#181818;stroke-width:1.0;"/><text fill="#000000" font-family="sans-serif" font-size="14" lengthAdjust="spacing" textLength="27" x="545" y="857.2637">VT1</text><path d="M492,759.5313 L502,759.5313 C517,759.5313 517,851.9727 532,851.9727 L542,851.9727 " fill="none" style="stroke:#181818;stroke-width:1.0;"/><path d="M127,480.585 L137,480.585 C152,480.585 152,759.5313 167,759.5313 L177,759.5313 " fill="none" style="stroke:#181818;stroke-width:1.0;"/><rect fill="#F1F1F1" height="85.9531" rx="12.5" ry="12.5" style="stroke:#181818;stroke-width:1.5;" width="232" x="177" y="855.2168"/><text fill="#000000" font-family="sans-serif" font-size="14" font-weight="bold" lengthAdjust="spacing" textLength="111" x="187" y="878.752">HPC Optimized</text><text fill="#000000" font-family="sans-serif" font-size="14" lengthAdjust="spacing" textLength="212" x="187" y="895.2402">(High performance computing)</text><text fill="#000000" font-family="sans-serif" font-size="14" lengthAdjust="spacing" textLength="190" x="187" y="911.7285">(large, complex simulations</text><text fill="#000000" font-family="sans-serif" font-size="14" lengthAdjust="spacing" textLength="205" x="187" y="928.2168">and deep learning workloads)</text><text fill="#000000" font-family="sans-serif" font-size="14" lengthAdjust="spacing" textLength="44" x="462" y="875.752">Hpc7g</text><path d="M409,898.1934 L419,898.1934 C434,898.1934 434,870.4609 449,870.4609 L459,870.4609 " fill="none" style="stroke:#181818;stroke-width:1.0;"/><text fill="#000000" font-family="sans-serif" font-size="14" lengthAdjust="spacing" textLength="43" x="462" y="894.2402">Hpc7a</text><path d="M409,898.1934 L419,898.1934 C434,898.1934 434,888.9492 449,888.9492 L459,888.9492 " fill="none" style="stroke:#181818;stroke-width:1.0;"/><text fill="#000000" font-family="sans-serif" font-size="14" lengthAdjust="spacing" textLength="48" x="462" y="912.7285">Hpc6id</text><path d="M409,898.1934 L419,898.1934 C434,898.1934 434,907.4375 449,907.4375 L459,907.4375 " fill="none" style="stroke:#181818;stroke-width:1.0;"/><text fill="#000000" font-family="sans-serif" font-size="14" lengthAdjust="spacing" textLength="43" x="462" y="931.2168">Hpc6a</text><path d="M409,898.1934 L419,898.1934 C434,898.1934 434,925.9258 449,925.9258 L459,925.9258 " fill="none" style="stroke:#181818;stroke-width:1.0;"/><path d="M127,480.585 L137,480.585 C152,480.585 152,898.1934 167,898.1934 L177,898.1934 " fill="none" style="stroke:#181818;stroke-width:1.0;"/><!--SRC=[TLJRRjim37ttL_1fQ8jcQz8q6u9XsEfslQp1WZGjzX1WO6pQ4MPJXYItQxz-b2qbtUr9nn99auU7_6WT6bShpcjiaWCuJqShLYotd16ufuPiSd00xzSVBeZ9O0NprZJQqlitwmyhtYkrpc6DLMUk2yXqtRIE3bTSKwtD4o3dmEGUjVcXk0H3LhSc8xilpe-q7bWo3sGil1BNdEHTWYkdZH8J-VF1TvYzBIDGMp0eAlePlp00p0AOH8z9z3Y99qSGd9RZOBiyZcTy6IMXzBGl2husJjNgcV9GV2WMi6agbQ5JcksAcIY7ZIetq90fjAaxRXgZfMghJLVv6bssYNUU5yzFfJ6t7NEvGd06sGedyYftVyKJxY1mzw_dFZKVUUzodkwBYSqKiLE5og0Mfgi-RYx_aimbun9hRnxx8NrRCURX6uXBnMGFeSPi8mWgGYD2AKEJqjWa0HoHse8NxKfZSzAJU4Q7s9Dq79cVzIBwatYVli-gGEj-Arl0ZieLkmswo39KQ4g271rAKSw2OkWrwXlY2HoyZ6IewXgAbNHKys3ttOLOeoLFVAwiCshTUWOxEMTO2Vj24e4L6NT6YWTX6hQke6D9NSwdLu77nRl0pkBj5WGQ5v6uHLJruYIUWS75k3_lei-t8VNWUPX7JZzb6LKooZxbDCea4Bj1ap-Y4Kb78ztfIrBCz62dORboEZ8FHSjP9tulirQ4ZHOAQK6dlqOhTi1jlPQ62JjPsnFfZKk3pKPbziKa788sGgllKeFEaP4k-M7PIMqUgfw7OkTXSEUZ_hoOXFCaJhRXOO-kk0X6PpVXwdCuxvV3I90Cp5-Ak_plW7drTD8wxEv4vs1L7OkK6P85c1CrsudP2JGKTDbaiTaUuXPELBx3c7masT9XKoTpMRdkRdO3VbhbJp1yFJeQZL-Fzsv5yvyQ0qSJ64wcnyVJqH6avxTByE_xoTxiQWdz4eQjUYN0VdAD3mYBLfP4JLDXWFZwx4kyW7D-K4RBScANND_FTWQJyU1KERZj5yNzB3cZ0jlAYKU_lgPmj_myU9VS89SjbXARE4crn3LFKxWu_GK0]--></g></svg>