<svg xmlns="http://www.w3.org/2000/svg" xmlns:xlink="http://www.w3.org/1999/xlink" contentStyleType="text/css" height="273px" preserveAspectRatio="none" style="width:314px;height:273px;background:#FFFFFF;" version="1.1" viewBox="0 0 314 273" width="314px" zoomAndPan="magnify"><defs/><g><ellipse cx="138.3286" cy="20" fill="#222222" rx="10" ry="10" style="stroke:#222222;stroke-width:1.0;"/><rect fill="#F1F1F1" height="33.9688" rx="12.5" ry="12.5" style="stroke:#181818;stroke-width:0.5;" width="145.9883" x="65.3345" y="50"/><text fill="#000000" font-family="sans-serif" font-size="12" lengthAdjust="spacing" textLength="125.9883" x="75.3345" y="71.1387">scaling action occurs</text><polygon fill="#F1F1F1" points="62.1074,108.6724,214.5498,108.6724,226.5498,120.6724,214.5498,132.6724,62.1074,132.6724,50.1074,120.6724,62.1074,108.6724" style="stroke:#181818;stroke-width:0.5;"/><text fill="#000000" font-family="sans-serif" font-size="11" lengthAdjust="spacing" textLength="152.4424" x="62.1074" y="124.4805">default cooldown in effect ?</text><text fill="#000000" font-family="sans-serif" font-size="11" lengthAdjust="spacing" textLength="19.0083" x="31.0991" y="105.2734">yes</text><text fill="#000000" font-family="sans-serif" font-size="11" lengthAdjust="spacing" textLength="6.9932" x="31.0991" y="118.0781">&#160;&#160;</text><text fill="#000000" font-family="sans-serif" font-size="11" lengthAdjust="spacing" textLength="13.7017" x="233.543" y="105.2734">no</text><text fill="#000000" font-family="sans-serif" font-size="11" lengthAdjust="spacing" textLength="3.4966" x="226.5498" y="118.0781">&#160;</text><rect fill="#F1F1F1" height="47.9375" rx="12.5" ry="12.5" style="stroke:#181818;stroke-width:0.5;" width="58.2148" x="11" y="142.6724"/><text fill="#000000" font-family="sans-serif" font-size="12" lengthAdjust="spacing" textLength="38.2148" x="21" y="163.811">ignore</text><text fill="#000000" font-family="sans-serif" font-size="12" lengthAdjust="spacing" textLength="36.9375" x="21" y="177.7798">action</text><rect fill="#F1F1F1" height="47.9375" rx="12.5" ry="12.5" style="stroke:#181818;stroke-width:0.5;" width="133.7422" x="169.6787" y="142.6724"/><text fill="#000000" font-family="sans-serif" font-size="12" lengthAdjust="spacing" textLength="56.1914" x="179.6787" y="163.811">launch or</text><text fill="#000000" font-family="sans-serif" font-size="12" lengthAdjust="spacing" textLength="113.7422" x="179.6787" y="177.7798">terminate instance</text><polygon fill="#F1F1F1" points="138.3286,196.6099,150.3286,208.6099,138.3286,220.6099,126.3286,208.6099,138.3286,196.6099" style="stroke:#181818;stroke-width:0.5;"/><ellipse cx="138.3286" cy="251.6099" fill="none" rx="11" ry="11" style="stroke:#222222;stroke-width:1.0;"/><ellipse cx="138.3286" cy="251.6099" fill="#222222" rx="6" ry="6" style="stroke:#222222;stroke-width:1.0;"/><line style="stroke:#181818;stroke-width:1.0;" x1="138.3286" x2="138.3286" y1="30" y2="50"/><polygon fill="#181818" points="134.3286,40,138.3286,50,142.3286,40,138.3286,44" style="stroke:#181818;stroke-width:1.0;"/><line style="stroke:#181818;stroke-width:1.0;" x1="50.1074" x2="40.1074" y1="120.6724" y2="120.6724"/><line style="stroke:#181818;stroke-width:1.0;" x1="40.1074" x2="40.1074" y1="120.6724" y2="142.6724"/><polygon fill="#181818" points="36.1074,132.6724,40.1074,142.6724,44.1074,132.6724,40.1074,136.6724" style="stroke:#181818;stroke-width:1.0;"/><line style="stroke:#181818;stroke-width:1.0;" x1="226.5498" x2="236.5498" y1="120.6724" y2="120.6724"/><line style="stroke:#181818;stroke-width:1.0;" x1="236.5498" x2="236.5498" y1="120.6724" y2="142.6724"/><polygon fill="#181818" points="232.5498,132.6724,236.5498,142.6724,240.5498,132.6724,236.5498,136.6724" style="stroke:#181818;stroke-width:1.0;"/><line style="stroke:#181818;stroke-width:1.0;" x1="40.1074" x2="40.1074" y1="190.6099" y2="208.6099"/><line style="stroke:#181818;stroke-width:1.0;" x1="40.1074" x2="126.3286" y1="208.6099" y2="208.6099"/><polygon fill="#181818" points="116.3286,204.6099,126.3286,208.6099,116.3286,212.6099,120.3286,208.6099" style="stroke:#181818;stroke-width:1.0;"/><line style="stroke:#181818;stroke-width:1.0;" x1="236.5498" x2="236.5498" y1="190.6099" y2="208.6099"/><line style="stroke:#181818;stroke-width:1.0;" x1="236.5498" x2="150.3286" y1="208.6099" y2="208.6099"/><polygon fill="#181818" points="160.3286,204.6099,150.3286,208.6099,160.3286,212.6099,156.3286,208.6099" style="stroke:#181818;stroke-width:1.0;"/><line style="stroke:#181818;stroke-width:1.0;" x1="138.3286" x2="138.3286" y1="83.9688" y2="108.6724"/><polygon fill="#181818" points="134.3286,98.6724,138.3286,108.6724,142.3286,98.6724,138.3286,102.6724" style="stroke:#181818;stroke-width:1.0;"/><line style="stroke:#181818;stroke-width:1.0;" x1="138.3286" x2="138.3286" y1="220.6099" y2="240.6099"/><polygon fill="#181818" points="134.3286,230.6099,138.3286,240.6099,142.3286,230.6099,138.3286,234.6099" style="stroke:#181818;stroke-width:1.0;"/><!--SRC=[9Omn3eD030Hxls9B-08K-GYDPNnWwM97PwCelmzAof5c9ej74IqftCqFi9I58qIkaIjPmxHhuwiN9ABlyNQOGrjJAJncrAcEwQEvEJ0JiDZXCNJp_sebxQcO08_DVqBdo-L43DnKEfxcN7flizX5xy9tQqHPyVe2]--></g></svg>