<?xml version="1.0" encoding="us-ascii" standalone="no"?><svg xmlns="http://www.w3.org/2000/svg" xmlns:xlink="http://www.w3.org/1999/xlink" contentStyleType="text/css" height="874.2708px" preserveAspectRatio="none" style="width:724px;height:874px;background:#FFFFFF;" version="1.1" viewBox="0 0 724 874" width="724.1667px" zoomAndPan="magnify"><defs/><g><!--class User--><g id="elem_User"><rect codeLine="7" fill="#FFFFFF" height="39.6275" id="User" rx="4.5833" ry="4.5833" style="stroke:#2688D4;stroke-width:0.5729166666666666;" width="114.5833" x="320.6669" y="828.3458"/><ellipse cx="336.7085" cy="848.1596" fill="#ADD1B2" rx="11.4583" ry="11.4583" style="stroke:#181818;stroke-width:1.1458333333333333;"/><path d="M338.81,853.0271 Q338.34,853.2688 337.823,853.3897 Q337.3061,853.5105 336.7354,853.5105 Q334.7078,853.5105 333.6403,852.1745 Q332.5728,850.8384 332.5728,848.314 Q332.5728,845.7829 333.6403,844.4468 Q334.7078,843.1107 336.7354,843.1107 Q337.3061,843.1107 337.8297,843.2316 Q338.3534,843.3524 338.81,843.5941 L338.81,845.7963 Q338.2997,845.3263 337.8197,845.1081 Q337.3396,844.8899 336.8294,844.8899 Q335.7417,844.8899 335.1878,845.7527 Q334.6339,846.6154 334.6339,848.314 Q334.6339,850.0059 335.1878,850.8686 Q335.7417,851.7314 336.8294,851.7314 Q337.3396,851.7314 337.8197,851.5132 Q338.2997,851.295 338.81,850.825 Z " fill="#000000"/><text fill="#000000" font-family="Verdana" font-size="13.75" lengthAdjust="spacing" textLength="68.75" x="357.3335" y="853.628">AWS-User</text></g><!--class Group--><g id="elem_Group"><rect codeLine="10" fill="#FFFFFF" height="39.6275" id="Group" rx="4.5833" ry="4.5833" style="stroke:#2688D4;stroke-width:0.5729166666666666;" width="124.8958" x="69.1564" y="650.0656"/><ellipse cx="85.1981" cy="669.8794" fill="#ADD1B2" rx="11.4583" ry="11.4583" style="stroke:#181818;stroke-width:1.1458333333333333;"/><path d="M87.2995,674.7469 Q86.8296,674.9886 86.3126,675.1095 Q85.7956,675.2303 85.225,675.2303 Q83.1974,675.2303 82.1299,673.8943 Q81.0624,672.5582 81.0624,670.0338 Q81.0624,667.5027 82.1299,666.1666 Q83.1974,664.8305 85.225,664.8305 Q85.7956,664.8305 86.3193,664.9514 Q86.843,665.0722 87.2995,665.3139 L87.2995,667.5161 Q86.7893,667.0461 86.3093,666.8279 Q85.8292,666.6097 85.319,666.6097 Q84.2313,666.6097 83.6774,667.4724 Q83.1235,668.3352 83.1235,670.0338 Q83.1235,671.7257 83.6774,672.5884 Q84.2313,673.4511 85.319,673.4511 Q85.8292,673.4511 86.3093,673.2329 Q86.7893,673.0147 87.2995,672.5448 Z " fill="#000000"/><text fill="#000000" font-family="Verdana" font-size="13.75" lengthAdjust="spacing" textLength="79.0625" x="105.8231" y="675.3478">AWS-Group</text></g><!--class Role--><g id="elem_Role"><rect codeLine="13" fill="#FFFFFF" height="39.6275" id="Role" rx="4.5833" ry="4.5833" style="stroke:#2688D4;stroke-width:0.5729166666666666;" width="112.2917" x="321.8127" y="223.6208"/><ellipse cx="337.8544" cy="243.4346" fill="#ADD1B2" rx="11.4583" ry="11.4583" style="stroke:#181818;stroke-width:1.1458333333333333;"/><path d="M339.9558,248.3021 Q339.4858,248.5438 338.9689,248.6647 Q338.4519,248.7855 337.8812,248.7855 Q335.8536,248.7855 334.7861,247.4495 Q333.7186,246.1134 333.7186,243.589 Q333.7186,241.0579 334.7861,239.7218 Q335.8536,238.3857 337.8812,238.3857 Q338.4519,238.3857 338.9756,238.5066 Q339.4993,238.6274 339.9558,238.8691 L339.9558,241.0713 Q339.4455,240.6013 338.9655,240.3831 Q338.4855,240.1649 337.9752,240.1649 Q336.8876,240.1649 336.3337,241.0277 Q335.7798,241.8904 335.7798,243.589 Q335.7798,245.2809 336.3337,246.1436 Q336.8876,247.0064 337.9752,247.0064 Q338.4855,247.0064 338.9655,246.7882 Q339.4455,246.57 339.9558,246.1 Z " fill="#000000"/><text fill="#000000" font-family="Verdana" font-size="13.75" lengthAdjust="spacing" textLength="66.4583" x="358.4794" y="248.903">AWS-Role</text></g><!--class Policy--><g id="elem_Policy"><rect codeLine="16" fill="#FFFFFF" height="39.6275" id="Policy" rx="4.5833" ry="4.5833" style="stroke:#2688D4;stroke-width:0.5729166666666666;" width="121.4583" x="317.2294" y="401.901"/><ellipse cx="333.271" cy="421.7148" fill="#ADD1B2" rx="11.4583" ry="11.4583" style="stroke:#181818;stroke-width:1.1458333333333333;"/><path d="M335.3725,426.5823 Q334.9025,426.824 334.3855,426.9449 Q333.8686,427.0657 333.2979,427.0657 Q331.2703,427.0657 330.2028,425.7297 Q329.1353,424.3936 329.1353,421.8692 Q329.1353,419.3381 330.2028,418.002 Q331.2703,416.666 333.2979,416.666 Q333.8686,416.666 334.3922,416.7868 Q334.9159,416.9077 335.3725,417.1494 L335.3725,419.3515 Q334.8622,418.8815 334.3822,418.6633 Q333.9021,418.4451 333.3919,418.4451 Q332.3042,418.4451 331.7503,419.3079 Q331.1964,420.1706 331.1964,421.8692 Q331.1964,423.5611 331.7503,424.4238 Q332.3042,425.2866 333.3919,425.2866 Q333.9021,425.2866 334.3822,425.0684 Q334.8622,424.8502 335.3725,424.3802 Z " fill="#000000"/><text fill="#000000" font-family="Verdana" font-size="13.75" lengthAdjust="spacing" textLength="75.625" x="353.896" y="427.1832">AWS-Policy</text></g><!--class Service--><g id="elem_Service"><rect codeLine="19" fill="#FFFFFF" height="76.9633" id="Service" rx="4.5833" ry="4.5833" style="stroke:#2688D4;stroke-width:0.5729166666666666;" width="132.9167" x="311.5002" y="8.0208"/><ellipse cx="327.5419" cy="27.8346" fill="#ADD1B2" rx="11.4583" ry="11.4583" style="stroke:#181818;stroke-width:1.1458333333333333;"/><path d="M329.6433,32.7021 Q329.1733,32.9438 328.6564,33.0647 Q328.1394,33.1855 327.5687,33.1855 Q325.5411,33.1855 324.4736,31.8495 Q323.4061,30.5134 323.4061,27.989 Q323.4061,25.4579 324.4736,24.1218 Q325.5411,22.7857 327.5687,22.7857 Q328.1394,22.7857 328.6631,22.9066 Q329.1868,23.0274 329.6433,23.2691 L329.6433,25.4713 Q329.133,25.0013 328.653,24.7831 Q328.173,24.5649 327.6627,24.5649 Q326.5751,24.5649 326.0212,25.4277 Q325.4673,26.2904 325.4673,27.989 Q325.4673,29.6809 326.0212,30.5436 Q326.5751,31.4064 327.6627,31.4064 Q328.173,31.4064 328.653,31.1882 Q329.133,30.97 329.6433,30.5 Z " fill="#000000"/><text fill="#000000" font-family="Verdana" font-size="13.75" lengthAdjust="spacing" textLength="87.0833" x="348.1669" y="33.303">AWS-Service</text><line style="stroke:#2688D4;stroke-width:0.5729166666666666;" x1="312.646" x2="443.271" y1="47.6483" y2="47.6483"/><text fill="#000000" font-family="Verdana" font-size="13.75" lengthAdjust="spacing" textLength="107.7083" x="324.1044" y="71.7847">CloudFormation</text></g><!--class Application--><g id="elem_Application"><rect codeLine="23" fill="#FFFFFF" height="76.9633" id="Application" rx="4.5833" ry="4.5833" style="stroke:#2688D4;stroke-width:0.5729166666666666;" width="156.9792" x="559.5731" y="8.0208"/><ellipse cx="575.6148" cy="27.8346" fill="#ADD1B2" rx="11.4583" ry="11.4583" style="stroke:#181818;stroke-width:1.1458333333333333;"/><path d="M577.7162,32.7021 Q577.2462,32.9438 576.7293,33.0647 Q576.2123,33.1855 575.6416,33.1855 Q573.614,33.1855 572.5465,31.8495 Q571.479,30.5134 571.479,27.989 Q571.479,25.4579 572.5465,24.1218 Q573.614,22.7857 575.6416,22.7857 Q576.2123,22.7857 576.736,22.9066 Q577.2597,23.0274 577.7162,23.2691 L577.7162,25.4713 Q577.206,25.0013 576.7259,24.7831 Q576.2459,24.5649 575.7356,24.5649 Q574.648,24.5649 574.0941,25.4277 Q573.5402,26.2904 573.5402,27.989 Q573.5402,29.6809 574.0941,30.5436 Q574.648,31.4064 575.7356,31.4064 Q576.2459,31.4064 576.7259,31.1882 Q577.206,30.97 577.7162,30.5 Z " fill="#000000"/><text fill="#000000" font-family="Verdana" font-size="13.75" lengthAdjust="spacing" textLength="111.1458" x="596.2398" y="33.303">AWS-Application</text><line style="stroke:#2688D4;stroke-width:0.5729166666666666;" x1="560.7189" x2="715.4064" y1="47.6483" y2="47.6483"/><text fill="#000000" font-family="Verdana" font-size="13.75" lengthAdjust="spacing" textLength="118.0208" x="572.1773" y="71.7847">Lambda Function</text></g><!--class Resource--><g id="elem_Resource"><rect codeLine="27" fill="#FFFFFF" height="76.9633" id="Resource" rx="4.5833" ry="4.5833" style="stroke:#2688D4;stroke-width:0.5729166666666666;" width="145.5208" x="50.8231" y="8.0208"/><ellipse cx="66.8648" cy="27.8346" fill="#ADD1B2" rx="11.4583" ry="11.4583" style="stroke:#181818;stroke-width:1.1458333333333333;"/><path d="M68.9662,32.7021 Q68.4962,32.9438 67.9793,33.0647 Q67.4623,33.1855 66.8916,33.1855 Q64.864,33.1855 63.7965,31.8495 Q62.729,30.5134 62.729,27.989 Q62.729,25.4579 63.7965,24.1218 Q64.864,22.7857 66.8916,22.7857 Q67.4623,22.7857 67.986,22.9066 Q68.5097,23.0274 68.9662,23.2691 L68.9662,25.4713 Q68.456,25.0013 67.9759,24.7831 Q67.4959,24.5649 66.9856,24.5649 Q65.898,24.5649 65.3441,25.4277 Q64.7902,26.2904 64.7902,27.989 Q64.7902,29.6809 65.3441,30.5436 Q65.898,31.4064 66.9856,31.4064 Q67.4959,31.4064 67.9759,31.1882 Q68.456,30.97 68.9662,30.5 Z " fill="#000000"/><text fill="#000000" font-family="Verdana" font-size="13.75" lengthAdjust="spacing" textLength="99.6875" x="87.4898" y="33.303">AWS-Resource</text><line style="stroke:#2688D4;stroke-width:0.5729166666666666;" x1="51.9689" x2="195.1981" y1="47.6483" y2="47.6483"/><text fill="#000000" font-family="Verdana" font-size="13.75" lengthAdjust="spacing" textLength="27.5" x="63.4273" y="71.7847">EC2</text></g><!--class Account--><g id="elem_Account"><rect codeLine="31" fill="#FFFFFF" height="39.6275" id="Account" rx="4.5833" ry="4.5833" style="stroke:#2688D4;stroke-width:0.5729166666666666;" width="138.6458" x="308.6356" y="650.0656"/><ellipse cx="324.6773" cy="669.8794" fill="#ADD1B2" rx="11.4583" ry="11.4583" style="stroke:#181818;stroke-width:1.1458333333333333;"/><path d="M326.7787,674.7469 Q326.3087,674.9886 325.7918,675.1095 Q325.2748,675.2303 324.7041,675.2303 Q322.6765,675.2303 321.609,673.8943 Q320.5415,672.5582 320.5415,670.0338 Q320.5415,667.5027 321.609,666.1666 Q322.6765,664.8305 324.7041,664.8305 Q325.2748,664.8305 325.7985,664.9514 Q326.3222,665.0722 326.7787,665.3139 L326.7787,667.5161 Q326.2685,667.0461 325.7884,666.8279 Q325.3084,666.6097 324.7981,666.6097 Q323.7105,666.6097 323.1566,667.4724 Q322.6027,668.3352 322.6027,670.0338 Q322.6027,671.7257 323.1566,672.5884 Q323.7105,673.4511 324.7981,673.4511 Q325.3084,673.4511 325.7884,673.2329 Q326.2685,673.0147 326.7787,672.5448 Z " fill="#000000"/><text fill="#000000" font-family="Verdana" font-size="13.75" lengthAdjust="spacing" textLength="92.8125" x="345.3023" y="675.3478">AWS-Account</text></g><!--link Group to Account--><g id="link_Group_Account"><path codeLine="33" d="M194.4075,670.8854 C229.1835,670.8854 272.5075,670.8854 308.3262,670.8854 " fill="none" id="Group-Account" style="stroke:#2688D4;stroke-width:1.1458333333333333;"/><polygon fill="#000000" points="220.4294,686.1158,212.138,683.4218,212.138,688.8098,220.4294,686.1158" style="stroke:#000000;stroke-width:1.1458333333333333;"/><text fill="#000000" font-family="Verdana" font-size="13.75" lengthAdjust="spacing" textLength="52.7083" x="231.8877" y="691.5843">Belongs</text><text fill="#000000" font-family="Verdana" font-size="13.75" lengthAdjust="spacing" textLength="27.5" x="209.1363" y="661.5812">0..n</text><text fill="#000000" font-family="Verdana" font-size="13.75" lengthAdjust="spacing" textLength="9.1667" x="284.6864" y="661.5812">1</text></g><!--link Account to User--><g id="link_Account_User"><path codeLine="34" d="M377.9585,689.9865 C377.9585,724.224 377.9585,793.4781 377.9585,827.8531 " fill="none" id="Account-User" style="stroke:#2688D4;stroke-width:1.1458333333333333;"/><polygon fill="#000000" points="302.3335,739.7752,299.6395,748.0665,305.0275,748.0665,302.3335,739.7752" style="stroke:#000000;stroke-width:1.1458333333333333;"/><text fill="#000000" font-family="Verdana" font-size="13.75" lengthAdjust="spacing" textLength="52.7083" x="318.3752" y="749.827">Belongs</text><text fill="#000000" font-family="Verdana" font-size="13.75" lengthAdjust="spacing" textLength="9.1667" x="360.4201" y="718.3011">1</text><text fill="#000000" font-family="Verdana" font-size="13.75" lengthAdjust="spacing" textLength="27.5" x="339.2508" y="810.4219">0..n</text></g><!--link Policy to Account--><g id="link_Policy_Account"><path codeLine="35" d="M377.9585,442.0167 C377.9585,488.675 377.9585,603.0521 377.9585,649.6417 " fill="none" id="Policy-Account" style="stroke:#2688D4;stroke-width:1.1458333333333333;"/><polygon fill="#000000" points="288.5835,535.8512,291.2775,527.5599,285.8895,527.5599,288.5835,535.8512" style="stroke:#000000;stroke-width:1.1458333333333333;"/><text fill="#000000" font-family="Verdana" font-size="13.75" lengthAdjust="spacing" textLength="66.4583" x="304.6252" y="536.7364">Applied to</text><text fill="#000000" font-family="Verdana" font-size="13.75" lengthAdjust="spacing" textLength="27.5" x="339.7378" y="470.3812">0..n</text><text fill="#000000" font-family="Verdana" font-size="13.75" lengthAdjust="spacing" textLength="9.1667" x="360.1623" y="632.2297">1</text></g><!--link Group to User--><g id="link_Group_User"><path codeLine="37" d="M131.6044,690.0208 C131.6044,736.7365 131.6044,848.4896 131.6044,848.4896 C131.6044,848.4896 247.3794,848.4896 320.1971,848.4896 " fill="none" id="Group-User" style="stroke:#2688D4;stroke-width:1.1458333333333333;"/><polygon fill="#000000" points="67.5266,830.9798,72.1414,838.3763,75.6076,834.2512,67.5266,830.9798" style="stroke:#000000;stroke-width:1.1458333333333333;"/><text fill="#000000" font-family="Verdana" font-size="13.75" lengthAdjust="spacing" textLength="52.7083" x="87.0773" y="839.3968">Belongs</text><text fill="#000000" font-family="Verdana" font-size="13.75" lengthAdjust="spacing" textLength="27.5" x="93.3837" y="718.3443">0..n</text><text fill="#000000" font-family="Verdana" font-size="13.75" lengthAdjust="spacing" textLength="32.0833" x="273.6857" y="839.1114">0..m</text></g><!--link Policy to User--><g id="link_Policy_User"><path codeLine="38" d="M439.2148,422.2396 C471.0689,422.2396 503.4273,422.2396 503.4273,422.2396 C503.4273,422.2396 503.4273,848.4896 503.4273,848.4896 C503.4273,848.4896 468.5367,848.4896 435.5481,848.4896 " fill="none" id="Policy-User" style="stroke:#2688D4;stroke-width:1.1458333333333333;"/><polygon fill="#000000" points="414.0129,627.2198,416.7781,618.952,411.3903,618.9056,414.0129,627.2198" style="stroke:#000000;stroke-width:1.1458333333333333;"/><text fill="#000000" font-family="Verdana" font-size="13.75" lengthAdjust="spacing" textLength="66.4583" x="430.0939" y="628.1051">Applied to</text><text fill="#000000" font-family="Verdana" font-size="13.75" lengthAdjust="spacing" textLength="27.5" x="453.7744" y="412.8827">0..n</text><text fill="#000000" font-family="Verdana" font-size="13.75" lengthAdjust="spacing" textLength="9.1667" x="449.9772" y="838.866">1</text></g><!--link Policy to Group--><g id="link_Policy_Group"><path codeLine="39" d="M316.6564,422.2396 C237.7773,422.2396 110.7846,422.2396 110.7846,422.2396 C110.7846,422.2396 110.7846,590.4708 110.7846,649.6188 " fill="none" id="Policy-Group" style="stroke:#2688D4;stroke-width:1.1458333333333333;"/><polygon fill="#000000" points="18.3333,421.8238,25.8954,417.4857,21.9012,413.8694,18.3333,421.8238" style="stroke:#000000;stroke-width:1.1458333333333333;"/><text fill="#000000" font-family="Verdana" font-size="13.75" lengthAdjust="spacing" textLength="66.4583" x="37.4512" y="423.8947">Applied to</text><text fill="#000000" font-family="Verdana" font-size="13.75" lengthAdjust="spacing" textLength="27.5" x="274.5918" y="412.8827">0..n</text><text fill="#000000" font-family="Verdana" font-size="13.75" lengthAdjust="spacing" textLength="9.1667" x="87.1328" y="632.2004">1</text></g><!--link Role to Policy--><g id="link_Role_Policy"><path codeLine="41" d="M377.9585,263.5417 C377.9585,297.7792 377.9585,367.0333 377.9585,401.4083 " fill="none" id="Role-Policy" style="stroke:#2688D4;stroke-width:1.1458333333333333;"/><polygon fill="#000000" points="288.5835,313.3304,285.8895,321.6217,291.2775,321.6217,288.5835,313.3304" style="stroke:#000000;stroke-width:1.1458333333333333;"/><text fill="#000000" font-family="Verdana" font-size="13.75" lengthAdjust="spacing" textLength="66.4583" x="304.6252" y="323.3822">Applied to</text><text fill="#000000" font-family="Verdana" font-size="13.75" lengthAdjust="spacing" textLength="32.0833" x="334.5672" y="291.8563">0..m</text><text fill="#000000" font-family="Verdana" font-size="13.75" lengthAdjust="spacing" textLength="9.1667" x="360.1623" y="383.9771">n</text></g><!--link Application to Role--><g id="link_Application_Role"><path codeLine="42" d="M638.0627,85.4219 C638.0627,142.8281 638.0627,243.4896 638.0627,243.4896 C638.0627,243.4896 510.8867,243.4896 434.3908,243.4896 " fill="none" id="Application-Role" style="stroke:#2688D4;stroke-width:1.1458333333333333;"/><polygon fill="#000000" points="536.3814,226.1182,528.1796,229.0735,531.483,233.33,536.3814,226.1182" style="stroke:#000000;stroke-width:1.1458333333333333;"/><text fill="#000000" font-family="Verdana" font-size="13.75" lengthAdjust="spacing" textLength="59.5833" x="548.8023" y="234.3968">Assigned</text><text fill="#000000" font-family="Verdana" font-size="13.75" lengthAdjust="spacing" textLength="27.5" x="601.6073" y="113.7537">0..n</text><text fill="#000000" font-family="Verdana" font-size="13.75" lengthAdjust="spacing" textLength="13.75" x="448.9653" y="233.8308">m</text></g><!--link Service to Role--><g id="link_Service_Role"><path codeLine="43" d="M377.9585,85.4104 C377.9585,126.8896 377.9585,190.9417 377.9585,223.2885 " fill="none" id="Service-Role" style="stroke:#2688D4;stroke-width:1.1458333333333333;"/><polygon fill="#000000" points="295.4585,135.1992,292.7645,143.4905,298.1525,143.4905,295.4585,135.1992" style="stroke:#000000;stroke-width:1.1458333333333333;"/><text fill="#000000" font-family="Verdana" font-size="13.75" lengthAdjust="spacing" textLength="59.5833" x="311.5002" y="145.2509">Assigned</text><text fill="#000000" font-family="Verdana" font-size="13.75" lengthAdjust="spacing" textLength="27.5" x="341.5031" y="113.7403">0..n</text><text fill="#000000" font-family="Verdana" font-size="13.75" lengthAdjust="spacing" textLength="13.75" x="354.9344" y="205.9024">m</text></g><!--link Resource to Role--><g id="link_Resource_Role"><path codeLine="44" d="M152.4127,85.4219 C152.4127,142.8281 152.4127,243.4896 152.4127,243.4896 C152.4127,243.4896 254.5294,243.4896 321.3314,243.4896 " fill="none" id="Resource-Role" style="stroke:#2688D4;stroke-width:1.1458333333333333;"/><polygon fill="#000000" points="71.9973,225.7967,76.2107,233.429,79.8921,229.4948,71.9973,225.7967" style="stroke:#000000;stroke-width:1.1458333333333333;"/><text fill="#000000" font-family="Verdana" font-size="13.75" lengthAdjust="spacing" textLength="59.5833" x="91.3856" y="234.3968">Assigned</text><text fill="#000000" font-family="Verdana" font-size="13.75" lengthAdjust="spacing" textLength="27.5" x="120.7321" y="113.7537">0..n</text><text fill="#000000" font-family="Verdana" font-size="13.75" lengthAdjust="spacing" textLength="13.75" x="292.982" y="233.8308">m</text></g><!--SRC=[XP9FRm8X4CNlV8hftdUxzcYCYJMrbnuQJTCp0b5IO0X_cXZJxruMTgrRDTuUURytCp0yICDKv0AQvj67WnADZLeH_oMDfOvgKDA8SB02q8KzdXa6kV32mgHjIK0B0M6B8Q06BfrWGQ8XX2dgFLIBpqtzuOMhW7he11p9pyXzTHXjjhEwyDUeHBOxSU6-evBiaFqYBuYDSD-IbHAzJWmi5KQ-GgTfddUSMLYRQcKdvyxENHRUgDvo2gjes9NqMdYChcyv7BhSo_BfVoF6C9fGcXGDnuGCkffKKAiQghPfqYZbXQRmB1IQdOVP6EJrYSnFVHEiun_PFzkqN5BmRfqpGdA13j69ZpSdcFVW95DtYfPmpzxfdxSzzCyNkyaML8ydE5zPuhsNEvC2y-lqy37kawTzZj1V]--></g></svg>